<?xml version="1.0" encoding="UTF-8" standalone="no"?>
<!-- Created with Inkscape (http://www.inkscape.org/) -->

<svg
   xmlns:osb="http://www.openswatchbook.org/uri/2009/osb"
   xmlns:dc="http://purl.org/dc/elements/1.1/"
   xmlns:cc="http://creativecommons.org/ns#"
   xmlns:rdf="http://www.w3.org/1999/02/22-rdf-syntax-ns#"
   xmlns:svg="http://www.w3.org/2000/svg"
   xmlns="http://www.w3.org/2000/svg"
   xmlns:sodipodi="http://sodipodi.sourceforge.net/DTD/sodipodi-0.dtd"
   xmlns:inkscape="http://www.inkscape.org/namespaces/inkscape"
   width="210mm"
   height="297mm"
   viewBox="0 0 210 297"
   version="1.1"
   id="svg8"
   inkscape:version="0.92.2 5c3e80d, 2017-08-06"
   sodipodi:docname="FullEight.svg">
  <defs
     id="defs2">
    <linearGradient
       id="linearGradient1100"
       osb:paint="solid">
      <stop
         style="stop-color:#000000;stop-opacity:1;"
         offset="0"
         id="stop1098" />
    </linearGradient>
  </defs>
  <sodipodi:namedview
     id="base"
     pagecolor="#ffffff"
     bordercolor="#666666"
     borderopacity="1.0"
     inkscape:pageopacity="0.0"
     inkscape:pageshadow="2"
     inkscape:zoom="0.7"
     inkscape:cx="59.818796"
     inkscape:cy="623.04101"
     inkscape:document-units="mm"
     inkscape:current-layer="layer1"
     showgrid="false"
     inkscape:window-width="1920"
     inkscape:window-height="1081"
     inkscape:window-x="0"
     inkscape:window-y="1"
     inkscape:window-maximized="1" />
  <metadata
     id="metadata5">
    <rdf:RDF>
      <cc:Work
         rdf:about="">
        <dc:format>image/svg+xml</dc:format>
        <dc:type
           rdf:resource="http://purl.org/dc/dcmitype/StillImage" />
        <dc:title></dc:title>
      </cc:Work>
    </rdf:RDF>
  </metadata>
  <g
     inkscape:label="Layer 1"
     inkscape:groupmode="layer"
     id="layer1">
    <path
       style="fill:none;fill-rule:evenodd;stroke:#000000;stroke-width:1.60544455;stroke-linecap:butt;stroke-linejoin:miter;stroke-miterlimit:4;stroke-dasharray:none;stroke-opacity:1"
       d="m 106.0595,2.2596199 c 0,0 -12.080676,11.4693031 -15.615861,87.8478921 -0.898984,19.422778 -0.632105,85.216258 -0.600634,101.506708 0.116519,60.31432 16.371515,91.27313 16.371515,91.27313 0,0 15.6216,-44.53219 15.16638,-92.04106 0,0 -0.047,-79.91653 -0.47861,-100.468727 C 119.27167,12.722663 106.0595,2.2596199 106.0595,2.2596199 Z"
       id="path817"
       inkscape:connector-curvature="0"
       sodipodi:nodetypes="csscssc" />
    <path
       style="fill:#000000;fill-opacity:1;fill-rule:evenodd;stroke:#000000;stroke-width:0.26458332px;stroke-linecap:butt;stroke-linejoin:miter;stroke-opacity:1"
       d="M 94.613411,43.082822 105.70509,31.055693 117.73223,42.949187 115.05953,27.714825 106.106,16.088599 97.018836,27.714825 Z"
       id="path1092"
       inkscape:connector-curvature="0"
       sodipodi:nodetypes="ccccccc" />
    <path
       style="fill:#000000;fill-opacity:1;fill-rule:evenodd;stroke:#000000;stroke-width:0.26458332px;stroke-linecap:butt;stroke-linejoin:miter;stroke-opacity:1"
       d="m 95.911457,249.84746 9.638393,11.43379 9.07143,-11.1503 2.17336,-12.37872 -11.33929,11.71725 -11.717257,-11.71726 z"
       id="path1094"
       inkscape:connector-curvature="0"
       sodipodi:nodetypes="ccccccc" />
    <g
       id="g1154"
       transform="translate(0,-6.4255952)">
      <g
         id="g1042"
         transform="matrix(-0.14723833,-0.21982996,0.21982996,-0.14723833,149.07106,136.95081)">
        <g
           id="g1040">
          <path
             id="path1036"
             d="m 212.8,72.5 c 0.3,0.1 0.7,0.1 1,0.1 1.1,0 2.1,-0.3 3.1,-0.8 l 20.3,-11.3 c 1.3,-0.7 2.3,-1.9 2.8,-3.2 l 9.7,-5.6 55.4,-30.7 c 0.9,-0.5 1.6,-1.3 2,-2.1 L 329.4,6.1 c 1.7,-0.9 1.8,-2.5 0.8,-4.2 -1,-1.6 -2.5,-2.5 -4.2,-1.6 l -23,12.3 c -0.9,0 -1.7,0.1 -2.5,0.6 L 264,33.4 234.5,49.1 c -1.2,-0.1 -2.5,0.2 -3.6,0.8 l -20.3,11.3 c -1.1,0.6 -1.9,1.5 -2.5,2.5 -44.01215,25.162472 -88.11062,50.17252 -132.2,75.2 -19.9,2.4 -65.4,16 -75.9,21.8 1.7,11.3 9.5,29.8 13.1,37.3 15.4,-4.9 63.2,-29.8 65.1,-31.9 1.4,-1.5 1.3,-14 1.1,-21.2"
             inkscape:connector-curvature="0"
             sodipodi:nodetypes="csccccccccccccccccccccc" />
          <path
             sodipodi:nodetypes="csccccccccccccccccccccc"
             inkscape:connector-curvature="0"
             d="m 212.8,72.5 c 0.3,0.1 0.7,0.1 1,0.1 1.1,0 2.1,-0.3 3.1,-0.8 l 20.3,-11.3 c 1.3,-0.7 2.3,-1.9 2.8,-3.2 l 9.7,-5.6 55.4,-30.7 c 0.9,-0.5 1.6,-1.3 2,-2.1 L 329.4,6.1 c 1.7,-0.9 1.8,-2.5 0.8,-4.2 -1,-1.6 -2.5,-2.5 -4.2,-1.6 l -23,12.3 c -0.9,0 -1.7,0.1 -2.5,0.6 L 264,33.4 234.5,49.1 c -1.2,-0.1 -2.5,0.2 -3.6,0.8 l -20.3,11.3 c -1.1,0.6 -1.9,1.5 -2.5,2.5 -44.01215,25.162472 -88.11062,50.17252 -132.2,75.2 -19.9,2.4 -65.4,16 -75.9,21.8 1.7,11.3 9.5,29.8 13.1,37.3 15.4,-4.9 63.2,-29.8 65.1,-31.9 1.4,-1.5 1.3,-14 1.1,-21.2"
             id="path1038" />
        </g>
      </g>
      <path
         sodipodi:nodetypes="ccccccc"
         inkscape:connector-curvature="0"
         id="path1096"
         d="m 184.23572,111.76063 c 0,0 -8.84997,-5.94371 -13.73743,-11.28463 0.61326,-0.13389 6.28035,2.22647 6.28035,2.22647 0,0 -5.35207,-3.302947 -6.09984,-3.854155 1.40133,-1.217465 3.37923,-2.45918 3.37923,-2.45918 5.05543,2.582837 9.93809,5.335085 15.08801,8.874325 -1.94348,2.85362 -2.17349,3.52937 -4.91032,6.49717 z"
         style="fill:#ffffff;fill-opacity:1;fill-rule:evenodd;stroke:#000000;stroke-width:0.26458332px;stroke-linecap:butt;stroke-linejoin:miter;stroke-opacity:1" />
    </g>
    <text
       xml:space="preserve"
       style="font-style:normal;font-variant:normal;font-weight:normal;font-stretch:normal;font-size:3.52777767px;line-height:125%;font-family:Avenir;-inkscape-font-specification:Avenir;letter-spacing:0px;word-spacing:0px;fill:#000000;fill-opacity:1;stroke:none;stroke-width:0.26458332px;stroke-linecap:butt;stroke-linejoin:miter;stroke-opacity:1"
       x="138.01561"
       y="-0.1555472"
       id="text1106"
       transform="rotate(27.648872)"><tspan
         sodipodi:role="line"
         x="138.01561"
         y="-0.1555472"
         style="font-style:normal;font-variant:normal;font-weight:900;font-stretch:normal;font-size:5.64444447px;font-family:Avenir;-inkscape-font-specification:'Avenir Heavy';stroke-width:0.26458332px"
         id="tspan1108">Parameter8</tspan></text>
    <text
       transform="rotate(27.648872)"
       id="text1135"
       y="36.646435"
       x="158.7003"
       style="font-style:normal;font-variant:normal;font-weight:normal;font-stretch:normal;font-size:3.52777767px;line-height:125%;font-family:Avenir;-inkscape-font-specification:Avenir;letter-spacing:0px;word-spacing:0px;fill:#000000;fill-opacity:1;stroke:none;stroke-width:0.26458332px;stroke-linecap:butt;stroke-linejoin:miter;stroke-opacity:1"
       xml:space="preserve"><tspan
         id="tspan1133"
         style="font-style:normal;font-variant:normal;font-weight:900;font-stretch:normal;font-size:5.64444447px;font-family:Avenir;-inkscape-font-specification:'Avenir Heavy';stroke-width:0.26458332px"
         y="36.646435"
         x="158.7003"
         sodipodi:role="line">Parameter6</tspan></text>
    <text
       xml:space="preserve"
       style="font-style:normal;font-variant:normal;font-weight:normal;font-stretch:normal;font-size:3.52777767px;line-height:125%;font-family:Avenir;-inkscape-font-specification:Avenir;letter-spacing:0px;word-spacing:0px;fill:#000000;fill-opacity:1;stroke:none;stroke-width:0.26458332px;stroke-linecap:butt;stroke-linejoin:miter;stroke-opacity:1"
       x="177.67863"
       y="73.449303"
       id="text1139"
       transform="rotate(27.648872)"><tspan
         sodipodi:role="line"
         x="177.67863"
         y="73.449303"
         style="font-style:normal;font-variant:normal;font-weight:900;font-stretch:normal;font-size:5.64444447px;font-family:Avenir;-inkscape-font-specification:'Avenir Heavy';stroke-width:0.26458332px"
         id="tspan1137">Parameter4</tspan><tspan
         sodipodi:role="line"
         x="177.67863"
         y="77.859024"
         style="font-style:normal;font-variant:normal;font-weight:900;font-stretch:normal;font-size:5.64444447px;font-family:Avenir;-inkscape-font-specification:'Avenir Heavy';stroke-width:0.26458332px"
         id="tspan1145" /></text>
    <text
       transform="rotate(27.648872)"
       id="text1143"
       y="109.92894"
       x="197.21606"
       style="font-style:normal;font-variant:normal;font-weight:normal;font-stretch:normal;font-size:3.52777767px;line-height:125%;font-family:Avenir;-inkscape-font-specification:Avenir;letter-spacing:0px;word-spacing:0px;fill:#000000;fill-opacity:1;stroke:none;stroke-width:0.26458332px;stroke-linecap:butt;stroke-linejoin:miter;stroke-opacity:1"
       xml:space="preserve"><tspan
         id="tspan1141"
         style="font-style:normal;font-variant:normal;font-weight:900;font-stretch:normal;font-size:5.64444447px;font-family:Avenir;-inkscape-font-specification:'Avenir Heavy';stroke-width:0.26458332px"
         y="109.92894"
         x="197.21606"
         sodipodi:role="line">Parameter2</tspan><tspan
         style="font-style:normal;font-variant:normal;font-weight:900;font-stretch:normal;font-size:5.64444447px;font-family:Avenir;-inkscape-font-specification:'Avenir Heavy';stroke-width:0.26458332px"
         y="114.33866"
         x="197.21606"
         sodipodi:role="line"
         id="tspan1260" /></text>
    <g
       id="g1166"
       transform="translate(-0.45312269,34.964041)">
      <g
         transform="matrix(-0.14723833,-0.21982996,0.21982996,-0.14723833,149.07106,136.95081)"
         id="g1162">
        <g
           id="g1160">
          <path
             sodipodi:nodetypes="csccccccccccccccccccccc"
             inkscape:connector-curvature="0"
             d="m 212.8,72.5 c 0.3,0.1 0.7,0.1 1,0.1 1.1,0 2.1,-0.3 3.1,-0.8 l 20.3,-11.3 c 1.3,-0.7 2.3,-1.9 2.8,-3.2 l 9.7,-5.6 55.4,-30.7 c 0.9,-0.5 1.6,-1.3 2,-2.1 L 329.4,6.1 c 1.7,-0.9 1.8,-2.5 0.8,-4.2 -1,-1.6 -2.5,-2.5 -4.2,-1.6 l -23,12.3 c -0.9,0 -1.7,0.1 -2.5,0.6 L 264,33.4 234.5,49.1 c -1.2,-0.1 -2.5,0.2 -3.6,0.8 l -20.3,11.3 c -1.1,0.6 -1.9,1.5 -2.5,2.5 -44.01215,25.162472 -88.11062,50.17252 -132.2,75.2 -19.9,2.4 -65.4,16 -75.9,21.8 1.7,11.3 9.5,29.8 13.1,37.3 15.4,-4.9 63.2,-29.8 65.1,-31.9 1.4,-1.5 1.3,-14 1.1,-21.2"
             id="path1156" />
          <path
             id="path1158"
             d="m 212.8,72.5 c 0.3,0.1 0.7,0.1 1,0.1 1.1,0 2.1,-0.3 3.1,-0.8 l 20.3,-11.3 c 1.3,-0.7 2.3,-1.9 2.8,-3.2 l 9.7,-5.6 55.4,-30.7 c 0.9,-0.5 1.6,-1.3 2,-2.1 L 329.4,6.1 c 1.7,-0.9 1.8,-2.5 0.8,-4.2 -1,-1.6 -2.5,-2.5 -4.2,-1.6 l -23,12.3 c -0.9,0 -1.7,0.1 -2.5,0.6 L 264,33.4 234.5,49.1 c -1.2,-0.1 -2.5,0.2 -3.6,0.8 l -20.3,11.3 c -1.1,0.6 -1.9,1.5 -2.5,2.5 -44.01215,25.162472 -88.11062,50.17252 -132.2,75.2 -19.9,2.4 -65.4,16 -75.9,21.8 1.7,11.3 9.5,29.8 13.1,37.3 15.4,-4.9 63.2,-29.8 65.1,-31.9 1.4,-1.5 1.3,-14 1.1,-21.2"
             inkscape:connector-curvature="0"
             sodipodi:nodetypes="csccccccccccccccccccccc" />
        </g>
      </g>
      <path
         style="fill:#ffffff;fill-opacity:1;fill-rule:evenodd;stroke:#000000;stroke-width:0.26458332px;stroke-linecap:butt;stroke-linejoin:miter;stroke-opacity:1"
         d="m 184.23572,111.76063 c 0,0 -8.84997,-5.94371 -13.73743,-11.28463 0.61326,-0.13389 6.28035,2.22647 6.28035,2.22647 0,0 -5.35207,-3.302947 -6.09984,-3.854155 1.40133,-1.217465 3.37923,-2.45918 3.37923,-2.45918 5.05543,2.582837 9.93809,5.335085 15.08801,8.874325 -1.94348,2.85362 -2.17349,3.52937 -4.91032,6.49717 z"
         id="path1164"
         inkscape:connector-curvature="0"
         sodipodi:nodetypes="ccccccc" />
    </g>
    <g
       transform="translate(-0.72039222,76.257183)"
       id="g1178">
      <g
         id="g1174"
         transform="matrix(-0.14723833,-0.21982996,0.21982996,-0.14723833,149.07106,136.95081)">
        <g
           id="g1172">
          <path
             id="path1168"
             d="m 212.8,72.5 c 0.3,0.1 0.7,0.1 1,0.1 1.1,0 2.1,-0.3 3.1,-0.8 l 20.3,-11.3 c 1.3,-0.7 2.3,-1.9 2.8,-3.2 l 9.7,-5.6 55.4,-30.7 c 0.9,-0.5 1.6,-1.3 2,-2.1 L 329.4,6.1 c 1.7,-0.9 1.8,-2.5 0.8,-4.2 -1,-1.6 -2.5,-2.5 -4.2,-1.6 l -23,12.3 c -0.9,0 -1.7,0.1 -2.5,0.6 L 264,33.4 234.5,49.1 c -1.2,-0.1 -2.5,0.2 -3.6,0.8 l -20.3,11.3 c -1.1,0.6 -1.9,1.5 -2.5,2.5 -44.01215,25.162472 -88.11062,50.17252 -132.2,75.2 -19.9,2.4 -65.4,16 -75.9,21.8 1.7,11.3 9.5,29.8 13.1,37.3 15.4,-4.9 63.2,-29.8 65.1,-31.9 1.4,-1.5 1.3,-14 1.1,-21.2"
             inkscape:connector-curvature="0"
             sodipodi:nodetypes="csccccccccccccccccccccc" />
          <path
             sodipodi:nodetypes="csccccccccccccccccccccc"
             inkscape:connector-curvature="0"
             d="m 212.8,72.5 c 0.3,0.1 0.7,0.1 1,0.1 1.1,0 2.1,-0.3 3.1,-0.8 l 20.3,-11.3 c 1.3,-0.7 2.3,-1.9 2.8,-3.2 l 9.7,-5.6 55.4,-30.7 c 0.9,-0.5 1.6,-1.3 2,-2.1 L 329.4,6.1 c 1.7,-0.9 1.8,-2.5 0.8,-4.2 -1,-1.6 -2.5,-2.5 -4.2,-1.6 l -23,12.3 c -0.9,0 -1.7,0.1 -2.5,0.6 L 264,33.4 234.5,49.1 c -1.2,-0.1 -2.5,0.2 -3.6,0.8 l -20.3,11.3 c -1.1,0.6 -1.9,1.5 -2.5,2.5 -44.01215,25.162472 -88.11062,50.17252 -132.2,75.2 -19.9,2.4 -65.4,16 -75.9,21.8 1.7,11.3 9.5,29.8 13.1,37.3 15.4,-4.9 63.2,-29.8 65.1,-31.9 1.4,-1.5 1.3,-14 1.1,-21.2"
             id="path1170" />
        </g>
      </g>
      <path
         sodipodi:nodetypes="ccccccc"
         inkscape:connector-curvature="0"
         id="path1176"
         d="m 184.23572,111.76063 c 0,0 -8.84997,-5.94371 -13.73743,-11.28463 0.61326,-0.13389 6.28035,2.22647 6.28035,2.22647 0,0 -5.35207,-3.302947 -6.09984,-3.854155 1.40133,-1.217465 3.37923,-2.45918 3.37923,-2.45918 5.05543,2.582837 9.93809,5.335085 15.08801,8.874325 -1.94348,2.85362 -2.17349,3.52937 -4.91032,6.49717 z"
         style="fill:#ffffff;fill-opacity:1;fill-rule:evenodd;stroke:#000000;stroke-width:0.26458332px;stroke-linecap:butt;stroke-linejoin:miter;stroke-opacity:1" />
    </g>
    <g
       id="g1190"
       transform="translate(-0.85402698,117.55032)">
      <g
         transform="matrix(-0.14723833,-0.21982996,0.21982996,-0.14723833,149.07106,136.95081)"
         id="g1186">
        <g
           id="g1184">
          <path
             sodipodi:nodetypes="csccccccccccccccccccccc"
             inkscape:connector-curvature="0"
             d="m 212.8,72.5 c 0.3,0.1 0.7,0.1 1,0.1 1.1,0 2.1,-0.3 3.1,-0.8 l 20.3,-11.3 c 1.3,-0.7 2.3,-1.9 2.8,-3.2 l 9.7,-5.6 55.4,-30.7 c 0.9,-0.5 1.6,-1.3 2,-2.1 L 329.4,6.1 c 1.7,-0.9 1.8,-2.5 0.8,-4.2 -1,-1.6 -2.5,-2.5 -4.2,-1.6 l -23,12.3 c -0.9,0 -1.7,0.1 -2.5,0.6 L 264,33.4 234.5,49.1 c -1.2,-0.1 -2.5,0.2 -3.6,0.8 l -20.3,11.3 c -1.1,0.6 -1.9,1.5 -2.5,2.5 -44.01215,25.162472 -88.11062,50.17252 -132.2,75.2 -19.9,2.4 -65.4,16 -75.9,21.8 1.7,11.3 9.5,29.8 13.1,37.3 15.4,-4.9 63.2,-29.8 65.1,-31.9 1.4,-1.5 1.3,-14 1.1,-21.2"
             id="path1180" />
          <path
             id="path1182"
             d="m 212.8,72.5 c 0.3,0.1 0.7,0.1 1,0.1 1.1,0 2.1,-0.3 3.1,-0.8 l 20.3,-11.3 c 1.3,-0.7 2.3,-1.9 2.8,-3.2 l 9.7,-5.6 55.4,-30.7 c 0.9,-0.5 1.6,-1.3 2,-2.1 L 329.4,6.1 c 1.7,-0.9 1.8,-2.5 0.8,-4.2 -1,-1.6 -2.5,-2.5 -4.2,-1.6 l -23,12.3 c -0.9,0 -1.7,0.1 -2.5,0.6 L 264,33.4 234.5,49.1 c -1.2,-0.1 -2.5,0.2 -3.6,0.8 l -20.3,11.3 c -1.1,0.6 -1.9,1.5 -2.5,2.5 -44.01215,25.162472 -88.11062,50.17252 -132.2,75.2 -19.9,2.4 -65.4,16 -75.9,21.8 1.7,11.3 9.5,29.8 13.1,37.3 15.4,-4.9 63.2,-29.8 65.1,-31.9 1.4,-1.5 1.3,-14 1.1,-21.2"
             inkscape:connector-curvature="0"
             sodipodi:nodetypes="csccccccccccccccccccccc" />
        </g>
      </g>
      <path
         style="fill:#ffffff;fill-opacity:1;fill-rule:evenodd;stroke:#000000;stroke-width:0.26458332px;stroke-linecap:butt;stroke-linejoin:miter;stroke-opacity:1"
         d="m 184.23572,111.76063 c 0,0 -8.84997,-5.94371 -13.73743,-11.28463 0.61326,-0.13389 6.28035,2.22647 6.28035,2.22647 0,0 -5.35207,-3.302947 -6.09984,-3.854155 1.40133,-1.217465 3.37923,-2.45918 3.37923,-2.45918 5.05543,2.582837 9.93809,5.335085 15.08801,8.874325 -1.94348,2.85362 -2.17349,3.52937 -4.91032,6.49717 z"
         id="path1188"
         inkscape:connector-curvature="0"
         sodipodi:nodetypes="ccccccc" />
    </g>
    <g
       id="g1202"
       transform="matrix(-1,0,0,1,210.91513,17.094123)">
      <g
         transform="matrix(-0.14723833,-0.21982996,0.21982996,-0.14723833,149.07106,136.95081)"
         id="g1198">
        <g
           id="g1196">
          <path
             sodipodi:nodetypes="csccccccccccccccccccccc"
             inkscape:connector-curvature="0"
             d="m 212.8,72.5 c 0.3,0.1 0.7,0.1 1,0.1 1.1,0 2.1,-0.3 3.1,-0.8 l 20.3,-11.3 c 1.3,-0.7 2.3,-1.9 2.8,-3.2 l 9.7,-5.6 55.4,-30.7 c 0.9,-0.5 1.6,-1.3 2,-2.1 L 329.4,6.1 c 1.7,-0.9 1.8,-2.5 0.8,-4.2 -1,-1.6 -2.5,-2.5 -4.2,-1.6 l -23,12.3 c -0.9,0 -1.7,0.1 -2.5,0.6 L 264,33.4 234.5,49.1 c -1.2,-0.1 -2.5,0.2 -3.6,0.8 l -20.3,11.3 c -1.1,0.6 -1.9,1.5 -2.5,2.5 -44.01215,25.162472 -88.11062,50.17252 -132.2,75.2 -19.9,2.4 -65.4,16 -75.9,21.8 1.7,11.3 9.5,29.8 13.1,37.3 15.4,-4.9 63.2,-29.8 65.1,-31.9 1.4,-1.5 1.3,-14 1.1,-21.2"
             id="path1192" />
          <path
             id="path1194"
             d="m 212.8,72.5 c 0.3,0.1 0.7,0.1 1,0.1 1.1,0 2.1,-0.3 3.1,-0.8 l 20.3,-11.3 c 1.3,-0.7 2.3,-1.9 2.8,-3.2 l 9.7,-5.6 55.4,-30.7 c 0.9,-0.5 1.6,-1.3 2,-2.1 L 329.4,6.1 c 1.7,-0.9 1.8,-2.5 0.8,-4.2 -1,-1.6 -2.5,-2.5 -4.2,-1.6 l -23,12.3 c -0.9,0 -1.7,0.1 -2.5,0.6 L 264,33.4 234.5,49.1 c -1.2,-0.1 -2.5,0.2 -3.6,0.8 l -20.3,11.3 c -1.1,0.6 -1.9,1.5 -2.5,2.5 -44.01215,25.162472 -88.11062,50.17252 -132.2,75.2 -19.9,2.4 -65.4,16 -75.9,21.8 1.7,11.3 9.5,29.8 13.1,37.3 15.4,-4.9 63.2,-29.8 65.1,-31.9 1.4,-1.5 1.3,-14 1.1,-21.2"
             inkscape:connector-curvature="0"
             sodipodi:nodetypes="csccccccccccccccccccccc" />
        </g>
      </g>
      <path
         style="fill:#ffffff;fill-opacity:1;fill-rule:evenodd;stroke:#000000;stroke-width:0.26458332px;stroke-linecap:butt;stroke-linejoin:miter;stroke-opacity:1"
         d="m 184.23572,111.76063 c 0,0 -8.84997,-5.94371 -13.73743,-11.28463 0.61326,-0.13389 6.28035,2.22647 6.28035,2.22647 0,0 -5.35207,-3.302947 -6.09984,-3.854155 1.40133,-1.217465 3.37923,-2.45918 3.37923,-2.45918 5.05543,2.582837 9.93809,5.335085 15.08801,8.874325 -1.94348,2.85362 -2.17349,3.52937 -4.91032,6.49717 z"
         id="path1200"
         inkscape:connector-curvature="0"
         sodipodi:nodetypes="ccccccc" />
    </g>
    <g
       transform="matrix(-1,0,0,1,211.36825,58.483759)"
       id="g1214">
      <g
         id="g1210"
         transform="matrix(-0.14723833,-0.21982996,0.21982996,-0.14723833,149.07106,136.95081)">
        <g
           id="g1208">
          <path
             id="path1204"
             d="m 212.8,72.5 c 0.3,0.1 0.7,0.1 1,0.1 1.1,0 2.1,-0.3 3.1,-0.8 l 20.3,-11.3 c 1.3,-0.7 2.3,-1.9 2.8,-3.2 l 9.7,-5.6 55.4,-30.7 c 0.9,-0.5 1.6,-1.3 2,-2.1 L 329.4,6.1 c 1.7,-0.9 1.8,-2.5 0.8,-4.2 -1,-1.6 -2.5,-2.5 -4.2,-1.6 l -23,12.3 c -0.9,0 -1.7,0.1 -2.5,0.6 L 264,33.4 234.5,49.1 c -1.2,-0.1 -2.5,0.2 -3.6,0.8 l -20.3,11.3 c -1.1,0.6 -1.9,1.5 -2.5,2.5 -44.01215,25.162472 -88.11062,50.17252 -132.2,75.2 -19.9,2.4 -65.4,16 -75.9,21.8 1.7,11.3 9.5,29.8 13.1,37.3 15.4,-4.9 63.2,-29.8 65.1,-31.9 1.4,-1.5 1.3,-14 1.1,-21.2"
             inkscape:connector-curvature="0"
             sodipodi:nodetypes="csccccccccccccccccccccc" />
          <path
             sodipodi:nodetypes="csccccccccccccccccccccc"
             inkscape:connector-curvature="0"
             d="m 212.8,72.5 c 0.3,0.1 0.7,0.1 1,0.1 1.1,0 2.1,-0.3 3.1,-0.8 l 20.3,-11.3 c 1.3,-0.7 2.3,-1.9 2.8,-3.2 l 9.7,-5.6 55.4,-30.7 c 0.9,-0.5 1.6,-1.3 2,-2.1 L 329.4,6.1 c 1.7,-0.9 1.8,-2.5 0.8,-4.2 -1,-1.6 -2.5,-2.5 -4.2,-1.6 l -23,12.3 c -0.9,0 -1.7,0.1 -2.5,0.6 L 264,33.4 234.5,49.1 c -1.2,-0.1 -2.5,0.2 -3.6,0.8 l -20.3,11.3 c -1.1,0.6 -1.9,1.5 -2.5,2.5 -44.01215,25.162472 -88.11062,50.17252 -132.2,75.2 -19.9,2.4 -65.4,16 -75.9,21.8 1.7,11.3 9.5,29.8 13.1,37.3 15.4,-4.9 63.2,-29.8 65.1,-31.9 1.4,-1.5 1.3,-14 1.1,-21.2"
             id="path1206" />
        </g>
      </g>
      <path
         sodipodi:nodetypes="ccccccc"
         inkscape:connector-curvature="0"
         id="path1212"
         d="m 184.23572,111.76063 c 0,0 -8.84997,-5.94371 -13.73743,-11.28463 0.61326,-0.13389 6.28035,2.22647 6.28035,2.22647 0,0 -5.35207,-3.302947 -6.09984,-3.854155 1.40133,-1.217465 3.37923,-2.45918 3.37923,-2.45918 5.05543,2.582837 9.93809,5.335085 15.08801,8.874325 -1.94348,2.85362 -2.17349,3.52937 -4.91032,6.49717 z"
         style="fill:#ffffff;fill-opacity:1;fill-rule:evenodd;stroke:#000000;stroke-width:0.26458332px;stroke-linecap:butt;stroke-linejoin:miter;stroke-opacity:1" />
    </g>
    <g
       id="g1226"
       transform="matrix(-1,0,0,1,211.63552,99.776905)">
      <g
         transform="matrix(-0.14723833,-0.21982996,0.21982996,-0.14723833,149.07106,136.95081)"
         id="g1222">
        <g
           id="g1220">
          <path
             sodipodi:nodetypes="csccccccccccccccccccccc"
             inkscape:connector-curvature="0"
             d="m 212.8,72.5 c 0.3,0.1 0.7,0.1 1,0.1 1.1,0 2.1,-0.3 3.1,-0.8 l 20.3,-11.3 c 1.3,-0.7 2.3,-1.9 2.8,-3.2 l 9.7,-5.6 55.4,-30.7 c 0.9,-0.5 1.6,-1.3 2,-2.1 L 329.4,6.1 c 1.7,-0.9 1.8,-2.5 0.8,-4.2 -1,-1.6 -2.5,-2.5 -4.2,-1.6 l -23,12.3 c -0.9,0 -1.7,0.1 -2.5,0.6 L 264,33.4 234.5,49.1 c -1.2,-0.1 -2.5,0.2 -3.6,0.8 l -20.3,11.3 c -1.1,0.6 -1.9,1.5 -2.5,2.5 -44.01215,25.162472 -88.11062,50.17252 -132.2,75.2 -19.9,2.4 -65.4,16 -75.9,21.8 1.7,11.3 9.5,29.8 13.1,37.3 15.4,-4.9 63.2,-29.8 65.1,-31.9 1.4,-1.5 1.3,-14 1.1,-21.2"
             id="path1216" />
          <path
             id="path1218"
             d="m 212.8,72.5 c 0.3,0.1 0.7,0.1 1,0.1 1.1,0 2.1,-0.3 3.1,-0.8 l 20.3,-11.3 c 1.3,-0.7 2.3,-1.9 2.8,-3.2 l 9.7,-5.6 55.4,-30.7 c 0.9,-0.5 1.6,-1.3 2,-2.1 L 329.4,6.1 c 1.7,-0.9 1.8,-2.5 0.8,-4.2 -1,-1.6 -2.5,-2.5 -4.2,-1.6 l -23,12.3 c -0.9,0 -1.7,0.1 -2.5,0.6 L 264,33.4 234.5,49.1 c -1.2,-0.1 -2.5,0.2 -3.6,0.8 l -20.3,11.3 c -1.1,0.6 -1.9,1.5 -2.5,2.5 -44.01215,25.162472 -88.11062,50.17252 -132.2,75.2 -19.9,2.4 -65.4,16 -75.9,21.8 1.7,11.3 9.5,29.8 13.1,37.3 15.4,-4.9 63.2,-29.8 65.1,-31.9 1.4,-1.5 1.3,-14 1.1,-21.2"
             inkscape:connector-curvature="0"
             sodipodi:nodetypes="csccccccccccccccccccccc" />
        </g>
      </g>
      <path
         style="fill:#ffffff;fill-opacity:1;fill-rule:evenodd;stroke:#000000;stroke-width:0.26458332px;stroke-linecap:butt;stroke-linejoin:miter;stroke-opacity:1"
         d="m 184.23572,111.76063 c 0,0 -8.84997,-5.94371 -13.73743,-11.28463 0.61326,-0.13389 6.28035,2.22647 6.28035,2.22647 0,0 -5.35207,-3.302947 -6.09984,-3.854155 1.40133,-1.217465 3.37923,-2.45918 3.37923,-2.45918 5.05543,2.582837 9.93809,5.335085 15.08801,8.874325 -1.94348,2.85362 -2.17349,3.52937 -4.91032,6.49717 z"
         id="path1224"
         inkscape:connector-curvature="0"
         sodipodi:nodetypes="ccccccc" />
    </g>
    <g
       transform="matrix(-1,0,0,1,211.76916,141.07004)"
       id="g1238">
      <g
         id="g1234"
         transform="matrix(-0.14723833,-0.21982996,0.21982996,-0.14723833,149.07106,136.95081)">
        <g
           id="g1232">
          <path
             id="path1228"
             d="m 212.8,72.5 c 0.3,0.1 0.7,0.1 1,0.1 1.1,0 2.1,-0.3 3.1,-0.8 l 20.3,-11.3 c 1.3,-0.7 2.3,-1.9 2.8,-3.2 l 9.7,-5.6 55.4,-30.7 c 0.9,-0.5 1.6,-1.3 2,-2.1 L 329.4,6.1 c 1.7,-0.9 1.8,-2.5 0.8,-4.2 -1,-1.6 -2.5,-2.5 -4.2,-1.6 l -23,12.3 c -0.9,0 -1.7,0.1 -2.5,0.6 L 264,33.4 234.5,49.1 c -1.2,-0.1 -2.5,0.2 -3.6,0.8 l -20.3,11.3 c -1.1,0.6 -1.9,1.5 -2.5,2.5 -44.01215,25.162472 -88.11062,50.17252 -132.2,75.2 -19.9,2.4 -65.4,16 -75.9,21.8 1.7,11.3 9.5,29.8 13.1,37.3 15.4,-4.9 63.2,-29.8 65.1,-31.9 1.4,-1.5 1.3,-14 1.1,-21.2"
             inkscape:connector-curvature="0"
             sodipodi:nodetypes="csccccccccccccccccccccc" />
          <path
             sodipodi:nodetypes="csccccccccccccccccccccc"
             inkscape:connector-curvature="0"
             d="m 212.8,72.5 c 0.3,0.1 0.7,0.1 1,0.1 1.1,0 2.1,-0.3 3.1,-0.8 l 20.3,-11.3 c 1.3,-0.7 2.3,-1.9 2.8,-3.2 l 9.7,-5.6 55.4,-30.7 c 0.9,-0.5 1.6,-1.3 2,-2.1 L 329.4,6.1 c 1.7,-0.9 1.8,-2.5 0.8,-4.2 -1,-1.6 -2.5,-2.5 -4.2,-1.6 l -23,12.3 c -0.9,0 -1.7,0.1 -2.5,0.6 L 264,33.4 234.5,49.1 c -1.2,-0.1 -2.5,0.2 -3.6,0.8 l -20.3,11.3 c -1.1,0.6 -1.9,1.5 -2.5,2.5 -44.01215,25.162472 -88.11062,50.17252 -132.2,75.2 -19.9,2.4 -65.4,16 -75.9,21.8 1.7,11.3 9.5,29.8 13.1,37.3 15.4,-4.9 63.2,-29.8 65.1,-31.9 1.4,-1.5 1.3,-14 1.1,-21.2"
             id="path1230" />
        </g>
      </g>
      <path
         sodipodi:nodetypes="ccccccc"
         inkscape:connector-curvature="0"
         id="path1236"
         d="m 184.23572,111.76063 c 0,0 -8.84997,-5.94371 -13.73743,-11.28463 0.61326,-0.13389 6.28035,2.22647 6.28035,2.22647 0,0 -5.35207,-3.302947 -6.09984,-3.854155 1.40133,-1.217465 3.37923,-2.45918 3.37923,-2.45918 5.05543,2.582837 9.93809,5.335085 15.08801,8.874325 -1.94348,2.85362 -2.17349,3.52937 -4.91032,6.49717 z"
         style="fill:#ffffff;fill-opacity:1;fill-rule:evenodd;stroke:#000000;stroke-width:0.26458332px;stroke-linecap:butt;stroke-linejoin:miter;stroke-opacity:1" />
    </g>
    <text
       transform="rotate(-26.405789)"
       id="text1242"
       y="117.79842"
       x="39.051231"
       style="font-style:normal;font-variant:normal;font-weight:normal;font-stretch:normal;font-size:3.52777767px;line-height:125%;font-family:Avenir;-inkscape-font-specification:Avenir;text-align:end;letter-spacing:0px;word-spacing:0px;text-anchor:end;fill:#000000;fill-opacity:1;stroke:none;stroke-width:0.26458332px;stroke-linecap:butt;stroke-linejoin:miter;stroke-opacity:1"
       xml:space="preserve"><tspan
         id="tspan1240"
         style="font-style:normal;font-variant:normal;font-weight:900;font-stretch:normal;font-size:5.64444447px;font-family:Avenir;-inkscape-font-specification:'Avenir Heavy';text-align:end;text-anchor:end;stroke-width:0.26458332px"
         y="117.79842"
         x="39.051231"
         sodipodi:role="line">Parameter7</tspan></text>
    <text
       xml:space="preserve"
       style="font-style:normal;font-variant:normal;font-weight:normal;font-stretch:normal;font-size:3.52777767px;line-height:125%;font-family:Avenir;-inkscape-font-specification:Avenir;text-align:end;letter-spacing:0px;word-spacing:0px;text-anchor:end;fill:#000000;fill-opacity:1;stroke:none;stroke-width:0.26458332px;stroke-linecap:butt;stroke-linejoin:miter;stroke-opacity:1"
       x="20.62768"
       y="154.90302"
       id="text1246"
       transform="rotate(-26.405789)"><tspan
         sodipodi:role="line"
         x="20.62768"
         y="154.90302"
         style="font-style:normal;font-variant:normal;font-weight:900;font-stretch:normal;font-size:5.64444447px;font-family:Avenir;-inkscape-font-specification:'Avenir Heavy';text-align:end;text-anchor:end;stroke-width:0.26458332px"
         id="tspan1244">Parameter5</tspan><tspan
         sodipodi:role="line"
         x="20.62768"
         y="159.31274"
         style="font-style:normal;font-variant:normal;font-weight:900;font-stretch:normal;font-size:5.64444447px;font-family:Avenir;-inkscape-font-specification:'Avenir Heavy';text-align:end;text-anchor:end;stroke-width:0.26458332px"
         id="tspan1256" /></text>
    <text
       transform="rotate(-26.405789)"
       id="text1250"
       y="191.88708"
       x="2.5623739"
       style="font-style:normal;font-variant:normal;font-weight:normal;font-stretch:normal;font-size:3.52777767px;line-height:125%;font-family:Avenir;-inkscape-font-specification:Avenir;text-align:end;letter-spacing:0px;word-spacing:0px;text-anchor:end;fill:#000000;fill-opacity:1;stroke:none;stroke-width:0.26458332px;stroke-linecap:butt;stroke-linejoin:miter;stroke-opacity:1"
       xml:space="preserve"><tspan
         id="tspan1248"
         style="font-style:normal;font-variant:normal;font-weight:900;font-stretch:normal;font-size:5.64444447px;font-family:Avenir;-inkscape-font-specification:'Avenir Heavy';text-align:end;text-anchor:end;stroke-width:0.26458332px"
         y="191.88708"
         x="2.5623748"
         sodipodi:role="line">Parameter3</tspan><tspan
         style="font-style:normal;font-variant:normal;font-weight:900;font-stretch:normal;font-size:5.64444447px;font-family:Avenir;-inkscape-font-specification:'Avenir Heavy';text-align:end;text-anchor:end;stroke-width:0.26458332px"
         y="196.29681"
         x="2.5623739"
         sodipodi:role="line"
         id="tspan1258" /></text>
    <text
       xml:space="preserve"
       style="font-style:normal;font-variant:normal;font-weight:normal;font-stretch:normal;font-size:3.52777767px;line-height:125%;font-family:Avenir;-inkscape-font-specification:Avenir;text-align:end;letter-spacing:0px;word-spacing:0px;text-anchor:end;fill:#000000;fill-opacity:1;stroke:none;stroke-width:0.26458332px;stroke-linecap:butt;stroke-linejoin:miter;stroke-opacity:1"
       x="-15.380019"
       y="229.22458"
       id="text1254"
       transform="rotate(-26.405789)"><tspan
         sodipodi:role="line"
         x="-15.380018"
         y="229.22458"
         style="font-style:normal;font-variant:normal;font-weight:900;font-stretch:normal;font-size:5.64444447px;font-family:Avenir;-inkscape-font-specification:'Avenir Heavy';text-align:end;text-anchor:end;stroke-width:0.26458332px"
         id="tspan1252">Parameter1</tspan></text>
    <text
       xml:space="preserve"
       style="font-style:normal;font-variant:normal;font-weight:normal;font-stretch:normal;font-size:3.52777767px;line-height:125%;font-family:Avenir;-inkscape-font-specification:Avenir;letter-spacing:0px;word-spacing:0px;fill:#000000;fill-opacity:1;stroke:none;stroke-width:0.26458332px;stroke-linecap:butt;stroke-linejoin:miter;stroke-opacity:1"
       x="283.30569"
       y="99.755089"
       id="text1264"><tspan
         sodipodi:role="line"
         id="tspan1262"
         x="283.30569"
         y="99.755089"
         style="stroke-width:0.26458332px">-</tspan></text>
    <text
       xml:space="preserve"
       style="font-style:normal;font-variant:normal;font-weight:normal;font-stretch:normal;font-size:3.52777767px;line-height:125%;font-family:Avenir;-inkscape-font-specification:Avenir;letter-spacing:0px;word-spacing:0px;fill:#000000;fill-opacity:1;stroke:none;stroke-width:0.26458332px;stroke-linecap:butt;stroke-linejoin:miter;stroke-opacity:1"
       x="5.291667"
       y="291.70834"
       id="text1276"><tspan
         sodipodi:role="line"
         x="5.291667"
         y="291.70834"
         style="font-style:normal;font-variant:normal;font-weight:900;font-stretch:normal;font-size:5.64444447px;font-family:Avenir;-inkscape-font-specification:'Avenir Heavy';stroke-width:0.26458332px"
         id="tspan1278">Parameter9</tspan></text>
    <text
       id="text1284"
       y="292.46429"
       x="170.46725"
       style="font-style:normal;font-variant:normal;font-weight:normal;font-stretch:normal;font-size:3.52777767px;line-height:125%;font-family:Avenir;-inkscape-font-specification:Avenir;letter-spacing:0px;word-spacing:0px;fill:#000000;fill-opacity:1;stroke:none;stroke-width:0.26458332px;stroke-linecap:butt;stroke-linejoin:miter;stroke-opacity:1"
       xml:space="preserve"><tspan
         id="tspan1282"
         style="font-style:normal;font-variant:normal;font-weight:900;font-stretch:normal;font-size:5.64444447px;font-family:Avenir;-inkscape-font-specification:'Avenir Heavy';stroke-width:0.26458332px"
         y="292.46429"
         x="170.46725"
         sodipodi:role="line">Parameter10</tspan></text>
  </g>
</svg>
