<svg xmlns="http://www.w3.org/2000/svg" xmlns:xlink="http://www.w3.org/1999/xlink" viewBox="0 0 380 340"><defs><style>.cls-1,.cls-3{fill:#7e2d40;}.cls-1,.cls-7,.cls-9{stroke:#fff;stroke-miterlimit:10;}.cls-1,.cls-9{stroke-width:2.26px;}.cls-2{fill:#13294b;}.cls-4{fill:#b8bfc9;}.cls-5{clip-path:url(#clip-path);}.cls-6{fill:#daaa00;}.cls-10,.cls-7{fill:#fff;}.cls-7{stroke-width:0.92px;}.cls-8{fill:#36749d;fill-rule:evenodd;}.cls-9{fill:none;}</style><clipPath id="clip-path"><path class="cls-1" d="M119.76,28.53V138.1a17.6,17.6,0,0,0,14.41,17.31l40.63,7.47a20.7,20.7,0,0,1,15.39,12.47h0a20.67,20.67,0,0,1,15.38-12.47l40.63-7.47a17.6,17.6,0,0,0,14.41-17.31V28.53Z"/></clipPath></defs><title>CCRC Logo Master RGB</title><g id="Layer_5" data-name="Layer 5"><path class="cls-2" d="M161.74,188a4.2,4.2,0,0,0-1.6-1.31,4.75,4.75,0,0,0-2-.43,4.9,4.9,0,0,0-2.2.49,5.55,5.55,0,0,0-1.73,1.3,5.72,5.72,0,0,0-1.13,1.91,6.16,6.16,0,0,0-.41,2.26,6.38,6.38,0,0,0,.41,2.33,5.58,5.58,0,0,0,1.12,1.89,5.28,5.28,0,0,0,1.72,1.26,5.53,5.53,0,0,0,4.57-.05,5.29,5.29,0,0,0,1.8-1.48l1.28,1.07a5.91,5.91,0,0,1-2.34,1.9,7.44,7.44,0,0,1-3.09.61,7.26,7.26,0,0,1-2.88-.57,7,7,0,0,1-2.32-1.57,7.46,7.46,0,0,1-1.54-2.38,8,8,0,0,1-.55-3,8.23,8.23,0,0,1,.53-3,7.14,7.14,0,0,1,6.76-4.58,7.5,7.5,0,0,1,2.81.53,5.11,5.11,0,0,1,2.25,1.72Z"/><path class="cls-2" d="M166.37,185.06h1.71v14.35h-1.71Z"/><path class="cls-2" d="M182.15,186.64h-4.74v12.77h-1.7V186.64H171v-1.58h11.18Z"/><path class="cls-2" d="M189.1,193.23l-5.34-8.17h2.16l4,6.49,4.16-6.49h2l-5.34,8.17v6.18H189.1Z"/><path class="cls-2" d="M209,199.77a7.72,7.72,0,0,1-3-.57,7.11,7.11,0,0,1-2.37-1.57,7,7,0,0,1-1.56-2.39,8.34,8.34,0,0,1,0-6,6.88,6.88,0,0,1,1.56-2.39,7.11,7.11,0,0,1,2.37-1.57,8.23,8.23,0,0,1,6,0,7,7,0,0,1,3.93,4,8.48,8.48,0,0,1,0,6,7.28,7.28,0,0,1-1.56,2.39,7.11,7.11,0,0,1-2.37,1.57A7.8,7.8,0,0,1,209,199.77Zm0-1.58a5.51,5.51,0,0,0,4.09-1.74,5.65,5.65,0,0,0,1.16-1.9,6.32,6.32,0,0,0,.42-2.31,6.42,6.42,0,0,0-.42-2.33,5.7,5.7,0,0,0-1.16-1.89,5.41,5.41,0,0,0-4.09-1.74,5.45,5.45,0,0,0-4.1,1.74,5.87,5.87,0,0,0-1.16,1.89,6.42,6.42,0,0,0-.42,2.33,6.32,6.32,0,0,0,.42,2.31,5.81,5.81,0,0,0,1.16,1.9,5.55,5.55,0,0,0,4.1,1.74Z"/><path class="cls-2" d="M220.25,185.06h8.9v1.58H222v4.74h6.69V193H222v6.45h-1.7Z"/><path class="cls-2" d="M79.55,217.05a8.68,8.68,0,0,0-6.7-3.14c-6.57,0-10.93,5-10.93,11.38,0,6.79,4.36,11.83,10.93,11.83,2.56,0,5-1.17,7.15-3.87l4.68,3.33a14.11,14.11,0,0,1-11.88,5.66C63,242.24,56,235.59,56,225.65c0-10.22,7-16.87,16.82-16.87a13.83,13.83,0,0,1,11.16,5Z"/><path class="cls-2" d="M99.65,209.59h4.9l13.72,31.84H111.8l-3-7.28H95l-2.88,7.28H85.8Zm7.2,19.7-4.91-13-5,13Z"/><path class="cls-2" d="M122,209.59h8.64l8.5,22.31,8.59-22.31h8.55v31.84h-5.4V215h-.09l-9.67,26.45h-4L127.45,215h-.09v26.45H122Z"/><path class="cls-2" d="M163.33,209.59h12.41c4.82,0,9.76,2.2,9.76,8,0,3.6-2.24,6-5.53,7v.09a7.56,7.56,0,0,1,6.88,7.69c0,6.93-6,9.08-12,9.08H163.33ZM169,222.54h5.17c3.78,0,5.67-1.62,5.67-4,0-2.75-1.89-4.1-6.17-4.1H169Zm0,14h5.21c2.93,0,7-.5,7-4.68,0-3.33-2.16-4.5-6.75-4.5H169Z"/><path class="cls-2" d="M192.3,209.59h11.06c6.12,0,11.88,2,11.88,9.13,0,4.59-2.65,8-7.38,8.63l8.46,14.08h-6.84l-7.37-13.49H198v13.49H192.3Zm10.08,13.49c3.19,0,6.92-.27,6.92-4.41,0-3.78-3.51-4.23-6.43-4.23H198v8.64Z"/><path class="cls-2" d="M220.55,209.59h5.67v31.84h-5.67Z"/><path class="cls-2" d="M233.08,209.59h12.55c8.37,0,16.2,5.12,16.2,15.92S252.6,241.43,245,241.43H233.08Zm9.9,26.72c7.11,0,12.91-3.06,12.91-10.8s-5-10.8-12-10.8h-5.17v21.6Z"/><path class="cls-2" d="M295.52,239.1a27.68,27.68,0,0,1-13.18,3.14c-9.81,0-16.83-6.65-16.83-16.59,0-10.22,7-16.87,16.83-16.87,4.85,0,9.22,1,12.55,4L290.7,217a12,12,0,0,0-8.32-3.1c-6.57,0-10.93,5-10.93,11.38,0,6.79,4.36,11.83,10.93,11.83a15.22,15.22,0,0,0,7.47-1.67v-7.51h-6.52v-5.13h12.19Z"/><path class="cls-2" d="M302.12,209.59h21.1v5.12H307.79v7.83h14.62v5.13H307.79v8.64H324v5.12h-21.9Z"/><path class="cls-2" d="M58.43,252.87h9.35c5.17,0,10,1.68,10,7.72a6.9,6.9,0,0,1-6.24,7.3l7.15,11.9H73l-6.24-11.4H63.22v11.4H58.43Zm8.51,11.41c2.7,0,5.86-.23,5.86-3.73,0-3.19-3-3.57-5.44-3.57H63.22v7.3Z"/><path class="cls-2" d="M95,252.19c8.41-.15,14.34,5.47,14.34,14.1,0,8.41-5.93,14-14.34,14.19-8.29,0-14.22-5.63-14.22-14C80.73,257.82,86.66,252.19,95,252.19Zm0,23.95c5.59,0,9.28-4.26,9.28-10,0-5.36-3.69-9.62-9.28-9.62s-9.24,4.26-9.24,9.62C85.75,271.88,89.44,276.14,95,276.14Z"/><path class="cls-2" d="M110.31,252.87h5.25l5.06,19.39h.07l6-19.39h4.71l5.94,19.39h.07l5.29-19.39h4.86l-7.83,26.92h-4.56L129,259.3h-.07l-6.24,20.49h-4.41Z"/><path class="cls-2" d="M150.72,252.87h4.79v26.92h-4.79Z"/><path class="cls-2" d="M161.39,252.87h6.35l13,20,.08.08h-.08l.08-.08v-20h4.79v26.92h-6.08l-13.31-20.64h-.08v20.64h-4.79Z"/><path class="cls-2" d="M215.63,277.82a23.3,23.3,0,0,1-11.14,2.66c-8.29,0-14.23-5.63-14.23-14,0-8.63,5.94-14.26,14.23-14.26,4.1,0,7.79.87,10.61,3.38l-3.54,3.58a10.15,10.15,0,0,0-7-2.63c-5.55,0-9.24,4.26-9.24,9.62,0,5.74,3.69,10,9.24,10a13,13,0,0,0,6.32-1.4v-6.35h-5.52v-4.34h10.31Z"/><path class="cls-2" d="M251.79,259.18a7.34,7.34,0,0,0-5.67-2.66c-5.55,0-9.24,4.26-9.24,9.62,0,5.74,3.69,10,9.24,10a7.55,7.55,0,0,0,6-3.27l4,2.82a11.92,11.92,0,0,1-10,4.79c-8.28,0-14.22-5.63-14.22-14,0-8.63,5.94-14.26,14.22-14.26a11.73,11.73,0,0,1,9.44,4.26Z"/><path class="cls-2" d="M259.35,252.87h4.79v22.59h11.45v4.33H259.35Z"/><path class="cls-2" d="M300,269.91c0,6.5-4.67,10.57-10.83,10.57s-10.84-4.07-10.84-10.57v-17h4.79v16.88c0,2.67,1.45,6.16,6.05,6.16s6-3.49,6-6.16V252.87H300Z"/><path class="cls-2" d="M305.84,252.87h10.49c4.07,0,8.25,1.87,8.25,6.77,0,3-1.9,5.06-4.67,5.89v.08a6.41,6.41,0,0,1,5.82,6.5c0,5.86-5.1,7.68-10.2,7.68h-9.69Zm4.79,10.95H315c3.2,0,4.79-1.37,4.79-3.38,0-2.32-1.59-3.46-5.21-3.46h-3.95Zm0,11.87H315c2.47,0,5.89-.42,5.89-4,0-2.81-1.82-3.8-5.7-3.8h-4.6Z"/><path class="cls-3" d="M159.05,299.29v1.2h-5.16v4.37h5.16v1.19h-6.36V293.79h6.36V295h-5.16v4.3Z"/><path class="cls-3" d="M162.16,302.55a2.29,2.29,0,1,0,4.56,0c0-1.78-1.17-2.06-2.87-2.62s-2.54-1.44-2.54-3a3.16,3.16,0,0,1,3.28-3.33c1.81,0,3,1.16,3.08,3.24h-1.13c-.13-1.34-.83-2.08-1.95-2.08a2,2,0,0,0-2.07,2.1,1.69,1.69,0,0,0,.72,1.47,12.14,12.14,0,0,0,2.45,1,3,3,0,0,1,2.24,3.07c0,2.35-1.38,4-3.55,4-2,0-3.36-1.5-3.4-3.74Z"/><path class="cls-3" d="M171.75,306.05V295H169.3v-1.2h6.11V295H173v11.06Z"/><path class="cls-3" d="M177.2,300.93v-7.14h2.3a3.4,3.4,0,0,1,3.59,3.59,3.46,3.46,0,0,1-1.44,2.91,3.72,3.72,0,0,1-2.44.64Zm2.26-1a2.39,2.39,0,0,0,2.58-2.58,2.48,2.48,0,0,0-2.77-2.63H178.2V300Z"/><path class="cls-3" d="M193.48,306.05V294.84h-2.14v-1h3.42v12.26Z"/><path class="cls-3" d="M199.56,296.79a3.33,3.33,0,0,1,3.35-3.25,3.28,3.28,0,0,1,3.4,3.16,2.72,2.72,0,0,1-1.36,2.5,3.34,3.34,0,0,1,1.91,3.1,3.93,3.93,0,1,1-7.85.09,3.47,3.47,0,0,1,1.87-3.19A2.77,2.77,0,0,1,199.56,296.79Zm3.3,8.45a2.67,2.67,0,0,0,2.76-2.76,2.69,2.69,0,1,0-5.38,0A2.62,2.62,0,0,0,202.86,305.24Zm0-6.59c1.48,0,2.27-.72,2.27-2a2,2,0,0,0-2.17-2,2,2,0,0,0-2.19,2A2,2,0,0,0,202.86,298.65Z"/><path class="cls-3" d="M215,293.79l-2.87,4.43a5.89,5.89,0,0,1,1.33-.19,3.86,3.86,0,0,1,3.85,4.09,4.06,4.06,0,0,1-4.19,4.17,4,4,0,0,1-4.14-4c0-1.6.84-2.76,1.74-4.15l2.78-4.31Zm-4.76,8.34a3,3,0,0,0,3,3.09,3.07,3.07,0,0,0,0-6.12A3,3,0,0,0,210.28,302.13Z"/><path class="cls-3" d="M220.71,302.43a2.66,2.66,0,0,0,2.62,2.81,2.69,2.69,0,0,0,2.76-2.83c0-1.86-1.1-2.86-3.24-2.86h-.57v-1h.54c1.62,0,2.43-.67,2.43-2a1.89,1.89,0,1,0-3.78.11h-1.12a3,3,0,0,1,3.12-3.13,3,3,0,0,1,3,3,2.59,2.59,0,0,1-1.19,2.28,3.63,3.63,0,0,1,2,3.45,3.88,3.88,0,0,1-3.92,4,3.67,3.67,0,0,1-3.91-4h1.22Z"/><rect class="cls-3" x="179.36" y="302.88" width="1.01" height="5.33" transform="translate(-125.68 485.41) rotate(-90)"/><path class="cls-4" d="M316.35,173.47l.28.35,15.58,1.52.57-.45.26-1.83-.44-.59-15.4-2.77-.36.26v0l-21.23-3.8-86.38-12,70-9.69,9.69-1.81.89.34a23.59,23.59,0,0,1,18.08,7.06,2,2,0,0,0,1.76.59l35.82-6a1.42,1.42,0,0,0,1.12-1.81l-6.11-19.95a2,2,0,0,0-2.5-1.29L289.1,137.89l-.74.57-9.81.89-88.37,12.23-88.36-12.23L92,138.46l-.74-.57L42.36,121.65a2,2,0,0,0-2.5,1.29l-6.11,19.95a1.42,1.42,0,0,0,1.12,1.81l35.82,6a2,2,0,0,0,1.76-.59,23.59,23.59,0,0,1,18.08-7.06l.89-.34,9.69,1.81,70,9.69-86.38,12L63.53,170v0l-.36-.26-15.4,2.77-.44.59.26,1.83.57.45,15.58-1.52.28-.35h0l21.46-2.11,104.71-14.49,104.71,14.49,21.47,2.11Z"/><path class="cls-3" d="M119.76,28.53V138.1a17.6,17.6,0,0,0,14.41,17.31l40.63,7.47a20.7,20.7,0,0,1,15.39,12.47h0a20.67,20.67,0,0,1,15.38-12.47l40.63-7.47a17.6,17.6,0,0,0,14.41-17.31V28.53Z"/><g class="cls-5"><rect class="cls-2" x="119.76" y="108.9" width="140.86" height="68.81"/><path class="cls-6" d="M190.84,85.86c28,0,53.67,4.18,74.88,11.41-1.11,10.42-2.45,21.26-4,31.39-18.63-8.26-44.36-13-70.87-13-27.07,0-53.33,4.92-72,13.5L117,130c-1.6-10.17-3-21.12-4.1-31.68C134.7,90.45,161.51,85.86,190.84,85.86Z"/><path class="cls-6" d="M107,101.94l-.91-9a1.76,1.76,0,0,1,1.12-1.82L115.12,88C120,86.13,125,84.45,130.23,83a1.77,1.77,0,0,1,2.25,1.7V92.6"/><path class="cls-6" d="M171.84,86.77V76.71a1.77,1.77,0,0,1,1.73-1.78q9.15-.18,18.43-.18,6.57,0,13.07.1a1.77,1.77,0,0,1,1.74,1.77v10"/><path class="cls-6" d="M246.17,92.12V83.89a1.77,1.77,0,0,1,2.22-1.72c5.13,1.38,10.11,3,14.9,4.7l8.12,2.95a1.79,1.79,0,0,1,1.15,1.84l-.92,9.21"/><path class="cls-7" d="M119.14,128.65a142.87,142.87,0,0,1,31.62-9.6l.43-.08v-9.53l-.63.11a160,160,0,0,0-33.1,9.44l-.26-.61a142.62,142.62,0,0,1,14.56-5.11l.39-.11v-9.79l-.67.18a158.57,158.57,0,0,0-16,5.18l-.24-.62a181,181,0,0,1,35.48-9.4l.45-.08V89.15l-.62.1a203.58,203.58,0,0,0-37,9.21l-.23-.63a191,191,0,0,1,18.43-5.49l.41-.1V84.66a1.42,1.42,0,0,0-.57-1.14,1.4,1.4,0,0,0-.87-.29,1.31,1.31,0,0,0-.39,0c-5.22,1.49-10.29,3.19-15.07,5l-7.92,3.07a1.44,1.44,0,0,0-.91,1.48l.86,8.51-.66.07-.86-8.52a2.08,2.08,0,0,1,1.33-2.16L115,87.7c4.81-1.86,9.9-3.56,15.14-5.06a2.25,2.25,0,0,1,.58-.08,2.1,2.1,0,0,1,2.09,2.1V92.1l.66-.15A238,238,0,0,1,171,86.26l.49,0V76.71a2.12,2.12,0,0,1,2.06-2.11c6-.12,12-.18,18.08-.18,4.45,0,9,0,13.44.1a2.1,2.1,0,0,1,2.06,2.1v9.43l.5,0a243.25,243.25,0,0,1,37.55,5.18l.64.14V83.89a2.14,2.14,0,0,1,.83-1.68,2.09,2.09,0,0,1,1.27-.43,2,2,0,0,1,.54.07c5.14,1.38,10.16,3,14.94,4.7l8.11,3a2.11,2.11,0,0,1,1.37,2.18l-.87,8.68-.66-.07.87-8.67a1.44,1.44,0,0,0-.94-1.49l-8.11-3c-4.74-1.73-9.75-3.31-14.88-4.68a1.14,1.14,0,0,0-.37,0,1.39,1.39,0,0,0-.87.3,1.44,1.44,0,0,0-.56,1.14v7.65l.41.09c6.57,1.52,12.77,3.25,18.42,5.15l-.22.63a210.79,210.79,0,0,0-37.5-8.66l-.61-.08V98.1l.45.07A187.14,187.14,0,0,1,264,107.23l-.23.63a167.88,167.88,0,0,0-16.61-5.09l-.66-.16v9.72l.39.11a144.61,144.61,0,0,1,15.79,5.25l-.25.61A166.23,166.23,0,0,0,227.62,109l-.62-.1v9.48l.44.08a150.68,150.68,0,0,1,33.92,9.71l-.27.61C242.56,120.64,217,116,190.83,116c-26.79,0-52.77,4.83-71.41,13.26Zm71.69-22.59a229.26,229.26,0,0,0-38.54,3.19l-.44.08v9.51l.63-.11a214,214,0,0,1,38.35-3.39,216.91,216.91,0,0,1,34.89,2.79l.61.11v-9.48l-.45-.07A231.17,231.17,0,0,0,190.83,106.06Zm-19.9-9.14a220.55,220.55,0,0,0-37.72,6.17l-.4.11V113l.68-.19A200.22,200.22,0,0,1,171,106.22l.48,0V96.87Zm36.21,9,.5,0a205.18,205.18,0,0,1,37.53,6l.66.17v-9.71l-.4-.1a224.94,224.94,0,0,0-37.72-5.65l-.57,0Zm-16.31-9.83c-5.94,0-12.05.22-18.17.66l-.49,0v9.3l.57,0c6.06-.46,12.15-.69,18.09-.69,5,0,10.1.16,15.08.47l.57,0v-9.3l-.5,0C201,96.28,195.85,96.13,190.83,96.13Zm0-9.94A262,262,0,0,0,152.31,89l-.46.06v9.46l.62-.1a249.49,249.49,0,0,1,73.26-.52l.6.09V88.59l-.46-.07A266,266,0,0,0,190.83,86.19Zm.86-11.1c-6,0-12.14.06-18.12.18a1.44,1.44,0,0,0-1.4,1.44V86.2l.57,0c6.43-.43,12.35-.63,18.09-.63,4.56,0,9.49.15,15.09.45l.56,0V76.62a1.45,1.45,0,0,0-1.41-1.44C200.64,75.12,196.13,75.09,191.69,75.09Z"/><path class="cls-8" d="M298.76,135.51c-8.94,0-17.94,5.39-26.92,5.39s-17.88-5.39-26.92-5.39S226.79,140.9,218,140.9c-9.06,0-18.06-5.39-26.92-5.39-9.22,0-18,5.39-26.92,5.39-9.13,0-18.2-5.39-26.88-5.39-9.3,0-18.3,5.39-27,5.39-9.41,0-18.43-5.39-26.92-5.39-9.63,0-18.71,5.39-26.92,5.39-10.34,0-19.26-5.38-26.92-5.39v1.93c7.6,0,16.71,5.39,26.92,5.39,8.21,0,17.29-5.39,26.92-5.39,8.51,0,17.48,5.39,26.92,5.39,8.66,0,17.58-5.39,26.88-5.39,8.78,0,17.72,5.39,27,5.39,8.8,0,17.8-5.39,26.92-5.39,8.93,0,17.78,5.39,26.92,5.39,8.8,0,17.95-5.39,26.87-5.39s18,5.39,27,5.39S290,137.44,299,137.44s17.75,5.39,26.65,5.39,18.1-5.39,26.92-5.39v-1.93c-8.73,0-18,5.39-26.92,5.39S307.86,135.51,298.76,135.51Z"/><path class="cls-8" d="M298.76,157.05c-8.94,0-17.94,5.39-26.92,5.39s-17.88-5.39-26.92-5.39-18.13,5.39-26.93,5.39c-9.06,0-18.06-5.39-26.92-5.39-9.22,0-18,5.39-26.92,5.39-9.13,0-18.2-5.39-26.88-5.39-9.3,0-18.3,5.39-27,5.39-9.41,0-18.43-5.39-26.92-5.39-9.63,0-18.71,5.39-26.92,5.39-10.34,0-19.26-5.38-26.92-5.38V159c7.6,0,16.71,5.39,26.92,5.39,8.21,0,17.29-5.39,26.92-5.39,8.51,0,17.48,5.39,26.92,5.39,8.66,0,17.58-5.39,26.88-5.39,8.78,0,17.72,5.39,27,5.39,8.8,0,17.8-5.39,26.92-5.39,8.93,0,17.78,5.39,26.92,5.39,8.8,0,17.95-5.39,26.87-5.39s18,5.39,27,5.39S290,159,299,159s17.75,5.39,26.65,5.39S343.78,159,352.6,159v-1.93c-8.73,0-18,5.39-26.92,5.39S307.86,157.05,298.76,157.05Z"/><path class="cls-8" d="M298.76,171.42c-8.94,0-17.94,5.38-26.92,5.38s-17.88-5.38-26.92-5.38S226.79,176.8,218,176.8c-9.06,0-18.06-5.38-26.92-5.38-9.22,0-18,5.38-26.92,5.38-9.13,0-18.2-5.38-26.88-5.38-9.3,0-18.3,5.38-27,5.38-9.41,0-18.43-5.38-26.92-5.38-9.63,0-18.71,5.38-26.92,5.38-10.34,0-19.26-5.38-26.92-5.38v1.93c7.6,0,16.71,5.38,26.92,5.38,8.21,0,17.29-5.38,26.92-5.38,8.51,0,17.48,5.38,26.92,5.38,8.66,0,17.58-5.38,26.88-5.38,8.78,0,17.72,5.38,27,5.38,8.8,0,17.8-5.38,26.92-5.38,8.93,0,17.78,5.38,26.92,5.38,8.8,0,17.95-5.38,26.87-5.38s18,5.38,27,5.38S290,173.35,299,173.35s17.75,5.38,26.65,5.38,18.1-5.38,26.92-5.38v-1.93c-8.73,0-18,5.38-26.92,5.38S307.86,171.42,298.76,171.42Z"/><path class="cls-8" d="M298.76,142.69c-8.94,0-17.94,5.39-26.92,5.39s-17.88-5.39-26.92-5.39-18.13,5.39-26.93,5.39c-9.06,0-18.06-5.39-26.92-5.39-9.22,0-18,5.39-26.92,5.39-9.13,0-18.2-5.39-26.88-5.39-9.3,0-18.3,5.39-27,5.39-9.41,0-18.43-5.39-26.92-5.39-9.63,0-18.71,5.39-26.92,5.39-10.34,0-19.26-5.38-26.92-5.39v1.93c7.6,0,16.71,5.39,26.92,5.39,8.21,0,17.29-5.39,26.92-5.39,8.51,0,17.48,5.39,26.92,5.39,8.66,0,17.58-5.39,26.88-5.39,8.78,0,17.72,5.39,27,5.39,8.8,0,17.8-5.39,26.92-5.39,8.93,0,17.78,5.39,26.92,5.39,8.8,0,17.95-5.39,26.87-5.39s18,5.39,27,5.39S290,144.62,299,144.62,316.78,150,325.68,150s18.1-5.39,26.92-5.39v-1.93c-8.73,0-18,5.39-26.92,5.39S307.86,142.69,298.76,142.69Z"/><path class="cls-8" d="M298.76,178.6c-8.94,0-17.94,5.38-26.92,5.38S254,178.6,244.92,178.6,226.79,184,218,184c-9.06,0-18.06-5.38-26.92-5.38-9.22,0-18,5.38-26.92,5.38-9.13,0-18.2-5.38-26.88-5.38-9.3,0-18.3,5.38-27,5.38-9.41,0-18.43-5.38-26.92-5.38-9.63,0-18.71,5.38-26.92,5.38-10.34,0-19.26-5.38-26.92-5.38v1.93c7.6,0,16.71,5.38,26.92,5.38,8.21,0,17.29-5.38,26.92-5.38,8.51,0,17.48,5.38,26.92,5.38,8.66,0,17.58-5.38,26.88-5.38,8.78,0,17.72,5.38,27,5.38,8.8,0,17.8-5.38,26.92-5.38,8.93,0,17.78,5.38,26.92,5.38,8.8,0,17.95-5.38,26.87-5.38s18,5.38,27,5.38S290,180.53,299,180.53s17.75,5.38,26.65,5.38,18.1-5.38,26.92-5.38V178.6c-8.73,0-18,5.38-26.92,5.38S307.86,178.6,298.76,178.6Z"/><path class="cls-8" d="M298.76,149.87c-8.94,0-17.94,5.39-26.92,5.39s-17.88-5.39-26.92-5.39-18.13,5.39-26.93,5.39c-9.06,0-18.06-5.39-26.92-5.39-9.22,0-18,5.39-26.92,5.39-9.13,0-18.2-5.39-26.88-5.39-9.3,0-18.3,5.39-27,5.39-9.41,0-18.43-5.39-26.92-5.39-9.63,0-18.71,5.39-26.92,5.39-10.34,0-19.26-5.38-26.92-5.39v1.93c7.6,0,16.71,5.39,26.92,5.39,8.21,0,17.29-5.39,26.92-5.39,8.51,0,17.48,5.39,26.92,5.39,8.66,0,17.58-5.39,26.88-5.39,8.78,0,17.72,5.39,27,5.39,8.8,0,17.8-5.39,26.92-5.39,8.93,0,17.78,5.39,26.92,5.39,8.8,0,17.95-5.39,26.87-5.39s18,5.39,27,5.39S290,151.8,299,151.8s17.75,5.39,26.65,5.39,18.1-5.39,26.92-5.39v-1.93c-8.73,0-18,5.39-26.92,5.39S307.86,149.87,298.76,149.87Z"/><path class="cls-8" d="M298.76,164.23c-8.94,0-17.94,5.39-26.92,5.39s-17.88-5.39-26.92-5.39-18.13,5.39-26.93,5.39c-9.06,0-18.06-5.39-26.92-5.39-9.22,0-18,5.39-26.92,5.39-9.13,0-18.2-5.39-26.88-5.39-9.3,0-18.3,5.39-27,5.39-9.41,0-18.43-5.39-26.92-5.39-9.63,0-18.71,5.39-26.92,5.39-10.34,0-19.26-5.38-26.92-5.38v1.92c7.6,0,16.71,5.39,26.92,5.39,8.21,0,17.29-5.39,26.92-5.39,8.51,0,17.48,5.39,26.92,5.39,8.66,0,17.58-5.39,26.88-5.39,8.78,0,17.72,5.39,27,5.39,8.8,0,17.8-5.39,26.92-5.39,8.93,0,17.78,5.39,26.92,5.39,8.8,0,17.95-5.39,26.87-5.39s18,5.39,27,5.39S290,166.16,299,166.16s17.75,5.39,26.65,5.39,18.1-5.39,26.92-5.39v-1.93c-8.73,0-18,5.39-26.92,5.39S307.86,164.23,298.76,164.23Z"/><path class="cls-8" d="M298.76,185.78c-8.94,0-17.94,5.38-26.92,5.38s-17.88-5.38-26.92-5.38-18.13,5.38-26.93,5.38c-9.06,0-18.06-5.38-26.92-5.38-9.22,0-18,5.38-26.92,5.38-9.13,0-18.2-5.38-26.88-5.38-9.3,0-18.3,5.38-27,5.38-9.41,0-18.43-5.38-26.92-5.38-9.63,0-18.71,5.38-26.92,5.38-10.34,0-19.26-5.38-26.92-5.38v1.93c7.6,0,16.71,5.38,26.92,5.38,8.21,0,17.29-5.38,26.92-5.38,8.51,0,17.48,5.38,26.92,5.38,8.66,0,17.58-5.38,26.88-5.38,8.78,0,17.72,5.38,27,5.38,8.8,0,17.8-5.38,26.92-5.38,8.93,0,17.78,5.38,26.92,5.38,8.8,0,17.95-5.38,26.87-5.38s18,5.38,27,5.38S290,187.71,299,187.71s17.75,5.38,26.65,5.38,18.1-5.38,26.92-5.38v-1.93c-8.73,0-18,5.38-26.92,5.38S307.86,185.78,298.76,185.78Z"/><path class="cls-8" d="M298.76,193c-8.94,0-17.94,5.38-26.92,5.38S254,193,244.92,193s-18.13,5.38-26.93,5.38c-9.06,0-18.06-5.38-26.92-5.38-9.22,0-18,5.38-26.92,5.38-9.13,0-18.2-5.38-26.88-5.38-9.3,0-18.3,5.38-27,5.38-9.41,0-18.43-5.38-26.92-5.38-9.63,0-18.71,5.38-26.92,5.38-10.34,0-19.26-5.38-26.92-5.38v1.93c7.6,0,16.71,5.38,26.92,5.38,8.21,0,17.29-5.38,26.92-5.38,8.51,0,17.48,5.38,26.92,5.38,8.66,0,17.58-5.38,26.88-5.38,8.78,0,17.72,5.38,27,5.38,8.8,0,17.8-5.38,26.92-5.38,8.93,0,17.78,5.38,26.92,5.38,8.8,0,17.95-5.38,26.87-5.38s18,5.38,27,5.38S290,194.89,299,194.89s17.75,5.38,26.65,5.38,18.1-5.38,26.92-5.38V193c-8.73,0-18,5.38-26.92,5.38S307.86,193,298.76,193Z"/><path class="cls-8" d="M298.76,128.33c-8.94,0-17.94,5.39-26.92,5.39s-17.88-5.39-26.92-5.39-18.13,5.39-26.93,5.39c-9.06,0-18.06-5.39-26.92-5.39-9.22,0-18,5.39-26.92,5.39-9.13,0-18.2-5.39-26.88-5.39-9.3,0-18.3,5.39-27,5.39-9.41,0-18.43-5.39-26.92-5.39-9.63,0-18.71,5.39-26.92,5.39-10.34,0-19.26-5.38-26.92-5.39v1.93c7.6,0,16.71,5.39,26.92,5.39,8.21,0,17.29-5.39,26.92-5.39,8.51,0,17.48,5.39,26.92,5.39,8.66,0,17.58-5.39,26.88-5.39,8.78,0,17.72,5.39,27,5.39,8.8,0,17.8-5.39,26.92-5.39,8.93,0,17.78,5.39,26.92,5.39,8.8,0,17.95-5.39,26.87-5.39s18,5.39,27,5.39S290,130.26,299,130.26s17.75,5.39,26.65,5.39,18.1-5.39,26.92-5.39v-1.93c-8.73,0-18,5.39-26.92,5.39S307.86,128.33,298.76,128.33Z"/></g><path class="cls-9" d="M119.76,28.53V138.1a17.6,17.6,0,0,0,14.41,17.31l40.63,7.47a20.7,20.7,0,0,1,15.39,12.47h0a20.67,20.67,0,0,1,15.38-12.47l40.63-7.47a17.6,17.6,0,0,0,14.41-17.31V28.53Z"/><path class="cls-10" d="M224,41.06a4.61,4.61,0,0,1,1.48-.21,6.07,6.07,0,0,1,1.72.32,12.75,12.75,0,0,0,3.07.26,13,13,0,0,0,3.18-.28,7,7,0,0,1,1.75-.31,4.62,4.62,0,0,1,1.42.22A2.65,2.65,0,0,1,238,43.87a5.61,5.61,0,0,1-.42,1.6,5.4,5.4,0,0,1-.66,1.11,4.43,4.43,0,0,1-.92.89,3.88,3.88,0,0,0-3.32-1.8c-1.37,0-2.18.41-2.41,1.29-.07-1-1-1.4-2.75-1.33s-2.75.67-3,1.84A4,4,0,0,1,223,45.81a6.31,6.31,0,0,1-.43-1.94A2.72,2.72,0,0,1,224,41.06Z"/><path class="cls-10" d="M233.86,57.22a2.46,2.46,0,0,1,.31-1,6,6,0,0,1,2-.88q1.62-.51,2.13-.06a1.73,1.73,0,0,1,.55,1.47,7.29,7.29,0,0,1-.57,2.57c-.37,1-.71,1.82-1,2.44a1.76,1.76,0,0,1-1.3,1.06c-.57.11-1.21-.3-1.89-1.22A5.36,5.36,0,0,1,233,59.79a2.11,2.11,0,0,1,.31-1,2.76,2.76,0,0,1,.84-.62A3.28,3.28,0,0,1,233.86,57.22Z"/><path class="cls-10" d="M236,54.62a4.79,4.79,0,0,1-2.09.44,2,2,0,0,1-.83-.59,2.23,2.23,0,0,1-.33-1,4,4,0,0,1-1,0,2.33,2.33,0,0,1-.82-.6,6,6,0,0,1-.2-2.19c0-1.13.21-1.81.59-2a1.88,1.88,0,0,1,1.57-.06,8.34,8.34,0,0,1,2.27,1.34,25.18,25.18,0,0,1,2,1.71,1.84,1.84,0,0,1,.63,1.55C237.63,53.75,237.05,54.24,236,54.62Z"/><path class="cls-10" d="M227.13,58.79a2,2,0,0,1,.32,1,5.75,5.75,0,0,1-1.11,1.87c-.68.91-1.25,1.35-1.69,1.32a1.87,1.87,0,0,1-1.3-.88,7.49,7.49,0,0,1-1.07-2.41c-.29-1-.49-1.89-.61-2.56a1.89,1.89,0,0,1,.42-1.63c.41-.42,1.17-.46,2.27-.13a5.93,5.93,0,0,1,2,.85,2,2,0,0,1,.31,1,2.45,2.45,0,0,1-.31,1A3.31,3.31,0,0,1,227.13,58.79Z"/><path class="cls-10" d="M226.66,55a5.06,5.06,0,0,1-2.14-.46c-1.07-.36-1.67-.76-1.78-1.21a1.89,1.89,0,0,1,.43-1.5,7.75,7.75,0,0,1,2-1.75c.91-.6,1.66-1.05,2.25-1.37a1.77,1.77,0,0,1,1.69-.1c.51.25.79,1,.82,2.11a5.49,5.49,0,0,1-.22,2.13,2,2,0,0,1-.83.59,2.5,2.5,0,0,1-1.05,0,3,3,0,0,1-.31,1A2.14,2.14,0,0,1,226.66,55Z"/><path class="cls-10" d="M213.25,58a4.67,4.67,0,0,1,.27-1.48,6,6,0,0,1,.83-1.54,11.85,11.85,0,0,0,1.2-2.84,12,12,0,0,0,.71-3.12,7.29,7.29,0,0,1,.23-1.75,4.5,4.5,0,0,1,.68-1.28,2.61,2.61,0,0,1,3.08-.47,6.27,6.27,0,0,1,1.39.89,5.88,5.88,0,0,1,.86,1,4.71,4.71,0,0,1,.58,1.14,3.91,3.91,0,0,0-2.75,2.62c-.44,1.29-.27,2.18.5,2.67-.94-.22-1.65.52-2.13,2.21s-.2,2.82.84,3.41a4.25,4.25,0,0,1-2.08,1,7.34,7.34,0,0,1-2-.22A2.69,2.69,0,0,1,213.25,58Z"/><path class="cls-10" d="M229.65,70a6.34,6.34,0,0,1-.83,1.83A2.68,2.68,0,0,1,226,73.24a5.2,5.2,0,0,1-1.35-.73,6.17,6.17,0,0,1-1.19-1.24,11.38,11.38,0,0,0-2.33-2,13.16,13.16,0,0,0-2.74-1.65,6.66,6.66,0,0,1-1.58-.76,4.53,4.53,0,0,1-1-1,2.66,2.66,0,0,1,.5-3.1,8,8,0,0,1,1.28-1.05,6.55,6.55,0,0,1,1.19-.5,5.14,5.14,0,0,1,1.27-.2,3.93,3.93,0,0,0,1.63,3.41c1.1.84,2,1,2.7.38q-.75,1.23,1.44,2.7c1.46,1,2.63,1.07,3.51.25A4.23,4.23,0,0,1,229.65,70Z"/><path class="cls-10" d="M227.71,65.25a1.86,1.86,0,0,1-1.42-.91c-.27-.51-.08-1.24.58-2.19a5.38,5.38,0,0,1,1.42-1.6,2.23,2.23,0,0,1,1,0,2.3,2.3,0,0,1,.85.61,3.39,3.39,0,0,1,.83-.59,2.44,2.44,0,0,1,1,0,5.42,5.42,0,0,1,1.44,1.64c.66.93.91,1.6.74,2a1.89,1.89,0,0,1-1.24,1,7.83,7.83,0,0,1-2.62.25C229.25,65.41,228.38,65.34,227.71,65.25Z"/><path class="cls-10" d="M244.7,65.89a4.72,4.72,0,0,1-1.09,1,5.88,5.88,0,0,1-1.57.76,11.55,11.55,0,0,0-2.64,1.57A12.09,12.09,0,0,0,237,71.38a7.93,7.93,0,0,1-1.24,1.27,5.58,5.58,0,0,1-1.28.67,2.66,2.66,0,0,1-2.79-1.44,5.51,5.51,0,0,1-.59-1.55,4.67,4.67,0,0,1-.13-1.28,5.16,5.16,0,0,1,.21-1.27,3.91,3.91,0,0,0,3.75-.5c1.13-.79,1.52-1.6,1.17-2.44.63.72,1.64.54,3-.55S241,62.12,240.46,61a4.14,4.14,0,0,1,2.26.42,6.27,6.27,0,0,1,1.48,1.33A2.69,2.69,0,0,1,244.7,65.89Z"/><path class="cls-10" d="M245,60.21a6.33,6.33,0,0,1-1.65.11,6.11,6.11,0,0,1-1.26-.28,6.36,6.36,0,0,1-1.15-.61,3.88,3.88,0,0,0,.69-3.71c-.39-1.32-1.05-1.95-2-1.89.9-.37,1-1.38.44-3s-1.5-2.41-2.69-2.29a4.12,4.12,0,0,1,1.08-2,6.59,6.59,0,0,1,1.73-1,2.7,2.7,0,0,1,3.1.48,4.21,4.21,0,0,1,.67,1.36,6.26,6.26,0,0,1,.24,1.72,11.73,11.73,0,0,0,.67,3A12.81,12.81,0,0,0,246.16,55a7.85,7.85,0,0,1,.83,1.57,4.34,4.34,0,0,1,.23,1.44A2.63,2.63,0,0,1,245,60.21Z"/><path class="cls-10" d="M143.85,41.06a4.67,4.67,0,0,1,1.49-.21,6.13,6.13,0,0,1,1.72.32,12.59,12.59,0,0,0,3.06.26,13,13,0,0,0,3.18-.28,7,7,0,0,1,1.75-.31,4.69,4.69,0,0,1,1.43.22,2.68,2.68,0,0,1,1.41,2.81,6,6,0,0,1-.43,1.6,4.93,4.93,0,0,1-.65,1.11,4.7,4.7,0,0,1-.93.89,3.87,3.87,0,0,0-3.31-1.8c-1.38,0-2.19.41-2.41,1.29-.08-1-1-1.4-2.76-1.33s-2.74.67-3,1.84a4.09,4.09,0,0,1-1.58-1.66,6.08,6.08,0,0,1-.42-1.94A2.71,2.71,0,0,1,143.85,41.06Z"/><path class="cls-10" d="M153.75,57.22a2.46,2.46,0,0,1,.32-1,5.87,5.87,0,0,1,2-.88c1.07-.34,1.78-.36,2.12-.06a1.73,1.73,0,0,1,.55,1.47,7.47,7.47,0,0,1-.56,2.57c-.38,1-.72,1.82-1,2.44a1.75,1.75,0,0,1-1.3,1.06c-.57.11-1.2-.3-1.89-1.22a5.36,5.36,0,0,1-1.08-1.84,2.11,2.11,0,0,1,.31-1,2.79,2.79,0,0,1,.85-.62A3.28,3.28,0,0,1,153.75,57.22Z"/><path class="cls-10" d="M155.87,54.62a4.85,4.85,0,0,1-2.1.44,2,2,0,0,1-.83-.59,2.23,2.23,0,0,1-.33-1,4,4,0,0,1-1,0,2.2,2.2,0,0,1-.81-.6,5.73,5.73,0,0,1-.21-2.19c0-1.13.21-1.81.6-2a1.85,1.85,0,0,1,1.56-.06A8.34,8.34,0,0,1,155,49.91a23.49,23.49,0,0,1,2,1.71,1.84,1.84,0,0,1,.63,1.55C157.53,53.75,156.94,54.24,155.87,54.62Z"/><path class="cls-10" d="M147,58.79a2.08,2.08,0,0,1,.31,1,5.38,5.38,0,0,1-1.11,1.87c-.68.91-1.24,1.35-1.69,1.32a1.89,1.89,0,0,1-1.3-.88,7.5,7.5,0,0,1-1.06-2.41,22.5,22.5,0,0,1-.61-2.56,1.83,1.83,0,0,1,.42-1.63c.4-.42,1.16-.46,2.27-.13a5.94,5.94,0,0,1,2,.85,2.15,2.15,0,0,1,.32,1,2.61,2.61,0,0,1-.32,1A3.35,3.35,0,0,1,147,58.79Z"/><path class="cls-10" d="M146.56,55a5.1,5.1,0,0,1-2.15-.46c-1.07-.36-1.67-.76-1.78-1.21a1.87,1.87,0,0,1,.44-1.5,7.68,7.68,0,0,1,2-1.75c.91-.6,1.66-1.05,2.26-1.37a1.77,1.77,0,0,1,1.69-.1c.51.25.78,1,.81,2.11a5.28,5.28,0,0,1-.22,2.13,1.89,1.89,0,0,1-.83.59,2.49,2.49,0,0,1-1,0,2.78,2.78,0,0,1-.31,1A2.19,2.19,0,0,1,146.56,55Z"/><path class="cls-10" d="M133.15,58a5,5,0,0,1,.26-1.48,6.34,6.34,0,0,1,.83-1.54,11.78,11.78,0,0,0,1.21-2.84,11.9,11.9,0,0,0,.7-3.12,6.77,6.77,0,0,1,.24-1.75,4.48,4.48,0,0,1,.67-1.28,2.61,2.61,0,0,1,3.08-.47,6.27,6.27,0,0,1,1.39.89,5.46,5.46,0,0,1,.86,1,4.38,4.38,0,0,1,.58,1.14,3.94,3.94,0,0,0-2.75,2.62c-.44,1.29-.27,2.18.5,2.67-.94-.22-1.65.52-2.13,2.21s-.2,2.82.85,3.41a4.29,4.29,0,0,1-2.08,1,7.4,7.4,0,0,1-2-.22A2.68,2.68,0,0,1,133.15,58Z"/><path class="cls-10" d="M149.55,70a6.64,6.64,0,0,1-.83,1.83,2.68,2.68,0,0,1-2.79,1.44,5.2,5.2,0,0,1-1.35-.73,5.89,5.89,0,0,1-1.18-1.24,11.8,11.8,0,0,0-2.34-2,13.15,13.15,0,0,0-2.73-1.65,6.3,6.3,0,0,1-1.58-.76,4.57,4.57,0,0,1-1-1,2.66,2.66,0,0,1,.5-3.1,7.62,7.62,0,0,1,1.29-1.05,6.26,6.26,0,0,1,1.19-.5A5.07,5.07,0,0,1,140,61a4,4,0,0,0,1.63,3.41c1.11.84,2,1,2.71.38q-.75,1.23,1.44,2.7c1.46,1,2.63,1.07,3.5.25A4.25,4.25,0,0,1,149.55,70Z"/><path class="cls-10" d="M147.61,65.25a1.88,1.88,0,0,1-1.43-.91c-.27-.51-.08-1.24.58-2.19a5.38,5.38,0,0,1,1.42-1.6,2.27,2.27,0,0,1,1,0,2.34,2.34,0,0,1,.84.61,3.6,3.6,0,0,1,.83-.59,2.49,2.49,0,0,1,1,0,5.71,5.71,0,0,1,1.44,1.64c.65.93.9,1.6.73,2a1.87,1.87,0,0,1-1.23,1,7.92,7.92,0,0,1-2.63.25C149.14,65.41,148.27,65.34,147.61,65.25Z"/><path class="cls-10" d="M164.6,65.89a5,5,0,0,1-1.1,1,6,6,0,0,1-1.56.76,11.35,11.35,0,0,0-2.65,1.57,12.71,12.71,0,0,0-2.39,2.11,7.93,7.93,0,0,1-1.24,1.27,5.38,5.38,0,0,1-1.28.67,2.64,2.64,0,0,1-2.78-1.44,5.26,5.26,0,0,1-.6-1.55,4.68,4.68,0,0,1-.12-1.28,5.2,5.2,0,0,1,.2-1.27,3.9,3.9,0,0,0,3.75-.5c1.13-.79,1.52-1.6,1.18-2.44.62.72,1.64.54,3-.55s1.82-2.17,1.32-3.25a4.08,4.08,0,0,1,2.25.42,6.27,6.27,0,0,1,1.49,1.33A2.72,2.72,0,0,1,164.6,65.89Z"/><path class="cls-10" d="M164.88,60.21A5.2,5.2,0,0,1,162,60a5.91,5.91,0,0,1-1.14-.61,3.93,3.93,0,0,0,.69-3.71q-.6-2-2-1.89c.9-.37,1.05-1.38.44-3s-1.5-2.41-2.69-2.29a4.12,4.12,0,0,1,1.08-2,6.52,6.52,0,0,1,1.74-1,2.7,2.7,0,0,1,3.1.48,4.43,4.43,0,0,1,.67,1.36,6.69,6.69,0,0,1,.23,1.72,11.86,11.86,0,0,0,.68,3A12.88,12.88,0,0,0,166.05,55a7.36,7.36,0,0,1,.83,1.57,4.35,4.35,0,0,1,.24,1.44A2.65,2.65,0,0,1,164.88,60.21Z"/><path class="cls-10" d="M201.7,46.46a4.62,4.62,0,0,0-2.82-.41A5.46,5.46,0,0,0,196,47.62a10.62,10.62,0,0,0-2.31,3.74A9.78,9.78,0,0,0,193.2,53a11.83,11.83,0,0,0-.22,1.46c0,.25,0,.6-.08,1h-1.23a.54.54,0,0,1,0-.08,13.89,13.89,0,0,1,.15-1.57,1.66,1.66,0,0,1,0-.22c0-.12,0-.24.06-.36.09-.47.2-.92.33-1.37a47.64,47.64,0,0,1,2.19-5,8.53,8.53,0,0,0,.72-3.34,10.1,10.1,0,0,0-1.6-5.06,25.4,25.4,0,0,0-3.32-4h-.05a25.4,25.4,0,0,0-3.32,4,10.1,10.1,0,0,0-1.6,5.06,8.53,8.53,0,0,0,.72,3.34,47.64,47.64,0,0,1,2.19,5c.13.45.24.9.33,1.37,0,.12.05.24.06.36a1.7,1.7,0,0,1,0,.22c.07.52.12,1.05.14,1.57,0,0,0,0,0,.08h-1.23c0-.38-.05-.73-.08-1a11.64,11.64,0,0,0-.21-1.46,11,11,0,0,0-.49-1.64,10.72,10.72,0,0,0-2.3-3.74,5.53,5.53,0,0,0-2.9-1.57,4.62,4.62,0,0,0-2.82.41,4.51,4.51,0,0,0-2.49,4.62,4,4,0,0,0,.16.76A4.65,4.65,0,0,0,177.91,54a3.89,3.89,0,0,0,2.52.76S178.64,53,180,51.26a2.61,2.61,0,0,1,2.82-.75,5.27,5.27,0,0,1,2.67,3.23,5.67,5.67,0,0,1,.31,1.46h0a1.77,1.77,0,0,1,0,.24h-.65a.95.95,0,1,0,0,1.9h.64a4.15,4.15,0,0,1-.26,1,3.72,3.72,0,0,1-.8,1.29,1.72,1.72,0,0,1-2,.16,1.55,1.55,0,0,1-.58-1.45s0-.09,0-.13a.83.83,0,0,0-.42.13,2.42,2.42,0,0,0,.41,4.24,3.23,3.23,0,0,0,3.28-.55,5.17,5.17,0,0,0,1.22-1.51,9.72,9.72,0,0,0,.83-2.18,6.28,6.28,0,0,0,.15-1h1.18a8.82,8.82,0,0,1-.44,2.43c-.16.5-.81,1.81-.94,2.34a6.73,6.73,0,0,0,1,5,13.38,13.38,0,0,0,1.85,2.25v0h.05v0a13.38,13.38,0,0,0,1.85-2.25,6.69,6.69,0,0,0,1-5c-.13-.53-.78-1.84-.94-2.34a8.82,8.82,0,0,1-.44-2.43h1.18a6.28,6.28,0,0,0,.15,1,9.28,9.28,0,0,0,.84,2.18,5,5,0,0,0,1.21,1.51,3.23,3.23,0,0,0,3.28.55,2.42,2.42,0,0,0,.42-4.24.9.9,0,0,0-.43-.13.57.57,0,0,1,0,.13,1.55,1.55,0,0,1-.58,1.45,1.72,1.72,0,0,1-2-.16,3.72,3.72,0,0,1-.8-1.29,3.93,3.93,0,0,1-.25-1h.63a1,1,0,0,0,0-1.9h-.65c0-.09,0-.17,0-.24h0a6.14,6.14,0,0,1,.31-1.46,5.27,5.27,0,0,1,2.67-3.23,2.61,2.61,0,0,1,2.82.75c1.32,1.71-.48,3.49-.48,3.49a3.89,3.89,0,0,0,2.52-.76A4.65,4.65,0,0,0,204,51.84a4,4,0,0,0,.16-.76A4.51,4.51,0,0,0,201.7,46.46Z"/></g></svg>