<svg xmlns="http://www.w3.org/2000/svg" xmlns:xlink="http://www.w3.org/1999/xlink" viewBox="0 0 120 120"><defs><style>.cls-1,.cls-3{fill:#7e2d40;}.cls-1,.cls-6,.cls-8{stroke:#fff;stroke-miterlimit:10;}.cls-1,.cls-8{stroke-width:1.26px;}.cls-2{fill:#13294b;}.cls-4{clip-path:url(#clip-path);}.cls-5{fill:#daaa00;}.cls-6,.cls-9{fill:#fff;}.cls-6{stroke-width:0.52px;}.cls-7{fill:#36749d;fill-rule:evenodd;}.cls-8{fill:none;}</style><clipPath id="clip-path"><path class="cls-1" d="M20.48,24.68v61.4a9.85,9.85,0,0,0,8.07,9.7L51.32,100A11.59,11.59,0,0,1,60,107h0a11.56,11.56,0,0,1,8.62-7l22.77-4.19a9.85,9.85,0,0,0,8.07-9.7V24.68Z"/></clipPath></defs><title>CCRC Logo Master RGB</title><g id="Layer_5" data-name="Layer 5"><path class="cls-3" d="M20.48,24.68v61.4a9.85,9.85,0,0,0,8.07,9.7L51.32,100A11.59,11.59,0,0,1,60,107h0a11.56,11.56,0,0,1,8.62-7l22.77-4.19a9.85,9.85,0,0,0,8.07-9.7V24.68Z"/><g class="cls-4"><rect class="cls-2" x="20.48" y="69.72" width="78.94" height="38.56"/><path class="cls-5" d="M60.31,56.8c15.68,0,30.08,2.35,42,6.4-.63,5.84-1.37,11.91-2.25,17.59-10.44-4.63-24.86-7.28-39.72-7.28-15.17,0-29.88,2.76-40.37,7.57-.34.15-.67.31-1,.47-.9-5.7-1.66-11.84-2.3-17.76C28.85,59.38,43.88,56.8,60.31,56.8Z"/><path class="cls-5" d="M13.33,65.82l-.51-5.07a1,1,0,0,1,.62-1L17.88,58c2.72-1,5.54-2,8.47-2.83a1,1,0,0,1,1.26,1v4.44"/><path class="cls-5" d="M49.66,57.31V51.68a1,1,0,0,1,1-1c3.42-.07,6.87-.1,10.33-.1q3.69,0,7.33.06a1,1,0,0,1,1,1v5.62"/><path class="cls-5" d="M91.32,60.31V55.7a1,1,0,0,1,1.24-1q4.32,1.15,8.36,2.63L105.46,59a1,1,0,0,1,.65,1l-.52,5.16"/><path class="cls-6" d="M20.13,80.79a79.52,79.52,0,0,1,17.72-5.38l.24,0V70l-.35.06a89.8,89.8,0,0,0-18.55,5.29L19,75a80.91,80.91,0,0,1,8.17-2.86l.21-.06V66.62l-.38.1a90.4,90.4,0,0,0-8.95,2.9L18,69.27A102,102,0,0,1,37.84,64l.25,0V58.65l-.34.05A114.17,114.17,0,0,0,17,63.87l-.12-.35a104.45,104.45,0,0,1,10.32-3.08l.23-.06V56.14a.82.82,0,0,0-.32-.65.79.79,0,0,0-.48-.16.78.78,0,0,0-.22,0c-2.93.84-5.77,1.79-8.45,2.82L13.51,59.9a.82.82,0,0,0-.51.83l.48,4.77-.37,0-.48-4.77a1.17,1.17,0,0,1,.75-1.21l4.43-1.72c2.69-1.05,5.55-2,8.48-2.84a1.24,1.24,0,0,1,.33,0,1.17,1.17,0,0,1,1.17,1.18V60.3l.37-.08A132.83,132.83,0,0,1,49.2,57l.28,0V51.68a1.18,1.18,0,0,1,1.15-1.18c3.34-.07,6.74-.11,10.13-.11,2.5,0,5,0,7.53.06a1.18,1.18,0,0,1,1.16,1.18v5.28l.28,0a137.13,137.13,0,0,1,21,2.9l.36.08V55.7a1.17,1.17,0,0,1,.47-.94,1.13,1.13,0,0,1,.71-.24,1,1,0,0,1,.3,0c2.88.77,5.69,1.66,8.37,2.63l4.55,1.66a1.17,1.17,0,0,1,.76,1.22l-.48,4.87-.37,0,.48-4.86a.81.81,0,0,0-.52-.84l-4.55-1.65c-2.65-1-5.46-1.86-8.33-2.63a.76.76,0,0,0-.21,0,.8.8,0,0,0-.8.81V60l.23,0c3.68.85,7.15,1.82,10.32,2.89l-.12.35a117.65,117.65,0,0,0-21-4.85l-.34,0v5.29l.25,0a105.23,105.23,0,0,1,20.48,5.07l-.13.35a95.43,95.43,0,0,0-9.3-2.85l-.37-.09v5.45l.22.06a82.48,82.48,0,0,1,8.84,2.94l-.14.35a92.72,92.72,0,0,0-19.51-5.23l-.34-.06V75l.24,0a84,84,0,0,1,19,5.44l-.15.34C89.3,76.3,75,73.7,60.31,73.7c-15,0-29.58,2.7-40,7.43ZM60.31,68.13a128.76,128.76,0,0,0-21.6,1.78l-.25,0v5.33l.35-.06a119.17,119.17,0,0,1,21.5-1.91,121.17,121.17,0,0,1,19.55,1.57l.34.06V69.64l-.25,0A128.94,128.94,0,0,0,60.31,68.13ZM49.15,63A124,124,0,0,0,28,66.46l-.23.06V72l.38-.11a112.58,112.58,0,0,1,21-3.68l.28,0V63Zm20.3,5.07.28,0a115.27,115.27,0,0,1,21,3.36l.37.09V66.1l-.23,0a126.29,126.29,0,0,0-21.13-3.17l-.32,0Zm-9.14-5.51c-3.33,0-6.76.13-10.18.37l-.28,0v5.22l.32,0c3.39-.25,6.81-.38,10.14-.38,2.81,0,5.66.09,8.45.26l.32,0V62.83H68.8C66,62.65,63.12,62.56,60.31,62.56Zm0-5.57a146.61,146.61,0,0,0-21.59,1.58l-.26,0v5.3l.35-.06a140.12,140.12,0,0,1,41.05-.29l.34,0V58.33l-.25,0A148,148,0,0,0,60.31,57Zm.48-6.22c-3.39,0-6.8,0-10.15.1a.81.81,0,0,0-.79.81V57l.32,0c3.6-.24,6.92-.35,10.14-.35,2.55,0,5.32.08,8.45.25l.32,0V51.63a.82.82,0,0,0-.79-.81C65.8,50.79,63.28,50.77,60.79,50.77Z"/><path class="cls-7" d="M120.79,84.63c-5,0-10.05,3-15.08,3s-10-3-15.09-3-10.16,3-15.09,3c-5.08,0-10.13-3-15.09-3-5.17,0-10.1,3-15.08,3s-10.2-3-15.07-3c-5.21,0-10.26,3-15.11,3-5.27,0-10.33-3-15.09-3-5.39,0-10.48,3-15.08,3-5.8,0-10.79-3-15.09-3v1.08c4.26,0,9.37,3,15.09,3,4.6,0,9.69-3,15.08-3,4.77,0,9.8,3,15.09,3,4.85,0,9.85-3,15.07-3,4.92,0,9.93,3,15.11,3,4.93,0,10-3,15.08-3s10,3,15.09,3c4.93,0,10.06-3,15.06-3s10.1,3,15.12,3,10.15-3,15.23-3,9.95,3,14.94,3,10.14-3,15.09-3V84.63c-4.9,0-10.08,3-15.09,3S125.89,84.63,120.79,84.63Z"/><path class="cls-7" d="M120.79,96.7c-5,0-10.05,3-15.08,3s-10-3-15.09-3-10.16,3-15.09,3c-5.08,0-10.13-3-15.09-3-5.17,0-10.1,3-15.08,3s-10.2-3-15.07-3c-5.21,0-10.26,3-15.11,3-5.27,0-10.33-3-15.09-3-5.39,0-10.48,3-15.08,3-5.8,0-10.79-3-15.09-3v1.09c4.26,0,9.37,3,15.09,3,4.6,0,9.69-3,15.08-3,4.77,0,9.8,3,15.09,3,4.85,0,9.85-3,15.07-3,4.92,0,9.93,3,15.11,3,4.93,0,10-3,15.08-3s10,3,15.09,3c4.93,0,10.06-3,15.06-3s10.1,3,15.12,3,10.15-3,15.23-3,9.95,3,14.94,3,10.14-3,15.09-3V96.7c-4.9,0-10.08,3-15.09,3S125.89,96.7,120.79,96.7Z"/><path class="cls-7" d="M120.79,104.75c-5,0-10.05,3-15.08,3s-10-3-15.09-3-10.16,3-15.09,3c-5.08,0-10.13-3-15.09-3-5.17,0-10.1,3-15.08,3s-10.2-3-15.07-3c-5.21,0-10.26,3-15.11,3-5.27,0-10.33-3-15.09-3-5.39,0-10.48,3-15.08,3-5.8,0-10.79-3-15.09-3v1.08c4.26,0,9.37,3,15.09,3,4.6,0,9.69-3,15.08-3,4.77,0,9.8,3,15.09,3,4.85,0,9.85-3,15.07-3,4.92,0,9.93,3,15.11,3,4.93,0,10-3,15.08-3s10,3,15.09,3c4.93,0,10.06-3,15.06-3s10.1,3,15.12,3,10.15-3,15.23-3,9.95,3,14.94,3,10.14-3,15.09-3v-1.08c-4.9,0-10.08,3-15.09,3S125.89,104.75,120.79,104.75Z"/><path class="cls-7" d="M120.79,88.66c-5,0-10.05,3-15.08,3s-10-3-15.09-3-10.16,3-15.09,3c-5.08,0-10.13-3-15.09-3-5.17,0-10.1,3-15.08,3s-10.2-3-15.07-3c-5.21,0-10.26,3-15.11,3-5.27,0-10.33-3-15.09-3-5.39,0-10.48,3-15.08,3-5.8,0-10.79-3-15.09-3v1.08c4.26,0,9.37,3,15.09,3,4.6,0,9.69-3,15.08-3,4.77,0,9.8,3,15.09,3,4.85,0,9.85-3,15.07-3,4.92,0,9.93,3,15.11,3,4.93,0,10-3,15.08-3s10,3,15.09,3c4.93,0,10.06-3,15.06-3s10.1,3,15.12,3,10.15-3,15.23-3,9.95,3,14.94,3,10.14-3,15.09-3V88.66c-4.9,0-10.08,3-15.09,3S125.89,88.66,120.79,88.66Z"/><path class="cls-7" d="M120.79,108.78c-5,0-10.05,3-15.08,3s-10-3-15.09-3-10.16,3-15.09,3c-5.08,0-10.13-3-15.09-3-5.17,0-10.1,3-15.08,3s-10.2-3-15.07-3c-5.21,0-10.26,3-15.11,3-5.27,0-10.33-3-15.09-3-5.39,0-10.48,3-15.08,3-5.8,0-10.79-3-15.09-3v1.08c4.26,0,9.37,3,15.09,3,4.6,0,9.69-3,15.08-3,4.77,0,9.8,3,15.09,3,4.85,0,9.85-3,15.07-3,4.92,0,9.93,3,15.11,3,4.93,0,10-3,15.08-3s10,3,15.09,3c4.93,0,10.06-3,15.06-3s10.1,3,15.12,3,10.15-3,15.23-3,9.95,3,14.94,3,10.14-3,15.09-3v-1.08c-4.9,0-10.08,3-15.09,3S125.89,108.78,120.79,108.78Z"/><path class="cls-7" d="M120.79,92.68c-5,0-10.05,3-15.08,3s-10-3-15.09-3-10.16,3-15.09,3c-5.08,0-10.13-3-15.09-3-5.17,0-10.1,3-15.08,3s-10.2-3-15.07-3c-5.21,0-10.26,3-15.11,3-5.27,0-10.33-3-15.09-3-5.39,0-10.48,3-15.08,3-5.8,0-10.79-3-15.09-3v1.08c4.26,0,9.37,3,15.09,3,4.6,0,9.69-3,15.08-3,4.77,0,9.8,3,15.09,3,4.85,0,9.85-3,15.07-3,4.92,0,9.93,3,15.11,3,4.93,0,10-3,15.08-3s10,3,15.09,3c4.93,0,10.06-3,15.06-3s10.1,3,15.12,3,10.15-3,15.23-3,9.95,3,14.94,3,10.14-3,15.09-3V92.68c-4.9,0-10.08,3-15.09,3S125.89,92.68,120.79,92.68Z"/><path class="cls-7" d="M120.79,100.73c-5,0-10.05,3-15.08,3s-10-3-15.09-3-10.16,3-15.09,3c-5.08,0-10.13-3-15.09-3-5.17,0-10.1,3-15.08,3s-10.2-3-15.07-3c-5.21,0-10.26,3-15.11,3-5.27,0-10.33-3-15.09-3-5.39,0-10.48,3-15.08,3-5.8,0-10.79-3-15.09-3v1.08c4.26,0,9.37,3,15.09,3,4.6,0,9.69-3,15.08-3,4.77,0,9.8,3,15.09,3,4.85,0,9.85-3,15.07-3,4.92,0,9.93,3,15.11,3,4.93,0,10-3,15.08-3s10,3,15.09,3c4.93,0,10.06-3,15.06-3s10.1,3,15.12,3,10.15-3,15.23-3,9.95,3,14.94,3,10.14-3,15.09-3v-1.08c-4.9,0-10.08,3-15.09,3S125.89,100.73,120.79,100.73Z"/><path class="cls-7" d="M120.79,112.8c-5,0-10.05,3-15.08,3s-10-3-15.09-3-10.16,3-15.09,3c-5.08,0-10.13-3-15.09-3-5.17,0-10.1,3-15.08,3s-10.2-3-15.07-3c-5.21,0-10.26,3-15.11,3-5.27,0-10.33-3-15.09-3-5.39,0-10.48,3-15.08,3-5.8,0-10.79-3-15.09-3v1.08c4.26,0,9.37,3,15.09,3,4.6,0,9.69-3,15.08-3,4.77,0,9.8,3,15.09,3,4.85,0,9.85-3,15.07-3,4.92,0,9.93,3,15.11,3,4.93,0,10-3,15.08-3s10,3,15.09,3c4.93,0,10.06-3,15.06-3s10.1,3,15.12,3,10.15-3,15.23-3,9.95,3,14.94,3,10.14-3,15.09-3V112.8c-4.9,0-10.08,3-15.09,3S125.89,112.8,120.79,112.8Z"/><path class="cls-7" d="M120.79,116.83c-5,0-10.05,3-15.08,3s-10-3-15.09-3-10.16,3-15.09,3c-5.08,0-10.13-3-15.09-3-5.17,0-10.1,3-15.08,3s-10.2-3-15.07-3c-5.21,0-10.26,3-15.11,3-5.27,0-10.33-3-15.09-3-5.39,0-10.48,3-15.08,3-5.8,0-10.79-3-15.09-3v1.08c4.26,0,9.37,3,15.09,3,4.6,0,9.69-3,15.08-3,4.77,0,9.8,3,15.09,3,4.85,0,9.85-3,15.07-3,4.92,0,9.93,3,15.11,3,4.93,0,10-3,15.08-3s10,3,15.09,3c4.93,0,10.06-3,15.06-3s10.1,3,15.12,3,10.15-3,15.23-3,9.95,3,14.94,3,10.14-3,15.09-3v-1.08c-4.9,0-10.08,3-15.09,3S125.89,116.83,120.79,116.83Z"/><path class="cls-7" d="M120.79,80.61c-5,0-10.05,3-15.08,3s-10-3-15.09-3-10.16,3-15.09,3c-5.08,0-10.13-3-15.09-3-5.17,0-10.1,3-15.08,3s-10.2-3-15.07-3c-5.21,0-10.26,3-15.11,3-5.27,0-10.33-3-15.09-3-5.39,0-10.48,3-15.08,3-5.8,0-10.79-3-15.09-3v1.08c4.26,0,9.37,3,15.09,3,4.6,0,9.69-3,15.08-3,4.77,0,9.8,3,15.09,3,4.85,0,9.85-3,15.07-3,4.92,0,9.93,3,15.11,3,4.93,0,10-3,15.08-3s10,3,15.09,3c4.93,0,10.06-3,15.06-3s10.1,3,15.12,3,10.15-3,15.23-3,9.95,3,14.94,3,10.14-3,15.09-3V80.61c-4.9,0-10.08,3-15.09,3S125.89,80.61,120.79,80.61Z"/></g><path class="cls-8" d="M20.48,24.68v61.4a9.85,9.85,0,0,0,8.07,9.7L51.32,100A11.59,11.59,0,0,1,60,107h0a11.56,11.56,0,0,1,8.62-7l22.77-4.19a9.85,9.85,0,0,0,8.07-9.7V24.68Z"/><path class="cls-9" d="M78.87,31.7a2.92,2.92,0,0,1,.83-.12,3.64,3.64,0,0,1,1,.18,6.82,6.82,0,0,0,1.72.15,7.1,7.1,0,0,0,1.78-.16,4.19,4.19,0,0,1,1-.18,2.73,2.73,0,0,1,.8.13,1.51,1.51,0,0,1,.79,1.58,3.15,3.15,0,0,1-.24.89,2.9,2.9,0,0,1-.37.62,2.36,2.36,0,0,1-.51.5,2.22,2.22,0,0,0-1.86-1q-1.17,0-1.35.72c0-.53-.56-.78-1.55-.74s-1.54.38-1.66,1a2.28,2.28,0,0,1-.89-.93,3.88,3.88,0,0,1-.24-1.08A1.53,1.53,0,0,1,78.87,31.7Z"/><path class="cls-9" d="M84.42,40.76a1.32,1.32,0,0,1,.18-.55,3.34,3.34,0,0,1,1.13-.49c.6-.19,1-.2,1.19,0a1,1,0,0,1,.31.82A4.2,4.2,0,0,1,86.91,42c-.21.57-.4,1-.57,1.37a1,1,0,0,1-.72.59c-.33.06-.68-.17-1.07-.68a2.94,2.94,0,0,1-.6-1,1.13,1.13,0,0,1,.17-.55,1.68,1.68,0,0,1,.48-.35A1.94,1.94,0,0,1,84.42,40.76Z"/><path class="cls-9" d="M85.61,39.3a3,3,0,0,1-1.18.25,1.1,1.1,0,0,1-.46-.34,1.21,1.21,0,0,1-.19-.55,2.28,2.28,0,0,1-.58,0,1.15,1.15,0,0,1-.45-.33,3.23,3.23,0,0,1-.12-1.23c0-.63.12-1,.34-1.15a1.06,1.06,0,0,1,.87,0,4.45,4.45,0,0,1,1.28.75c.47.37.84.69,1.12,1a1,1,0,0,1,.35.86C86.54,38.81,86.21,39.08,85.61,39.3Z"/><path class="cls-9" d="M80.65,41.63a1.23,1.23,0,0,1,.18.55,3.24,3.24,0,0,1-.63,1c-.38.51-.69.75-.94.74a1.07,1.07,0,0,1-.73-.5,4.29,4.29,0,0,1-.6-1.35c-.16-.58-.27-1-.34-1.43a1,1,0,0,1,.24-.92c.23-.23.65-.25,1.27-.07a3.24,3.24,0,0,1,1.1.48,1.15,1.15,0,0,1,.17.55,1.37,1.37,0,0,1-.17.56A2.22,2.22,0,0,1,80.65,41.63Z"/><path class="cls-9" d="M80.39,39.52a3,3,0,0,1-1.2-.26c-.6-.2-.94-.43-1-.68a1.06,1.06,0,0,1,.24-.84,4.39,4.39,0,0,1,1.1-1c.51-.34.93-.59,1.26-.77a1,1,0,0,1,.95-.06c.29.14.44.54.46,1.19a3,3,0,0,1-.13,1.19,1,1,0,0,1-.46.33,1.31,1.31,0,0,1-.59,0,1.5,1.5,0,0,1-.18.54A1.29,1.29,0,0,1,80.39,39.52Z"/><path class="cls-9" d="M72.87,41.21a3,3,0,0,1,.15-.83,3.35,3.35,0,0,1,.47-.86,6.7,6.7,0,0,0,.67-1.6,6.76,6.76,0,0,0,.4-1.74,3.63,3.63,0,0,1,.13-1,2.49,2.49,0,0,1,.38-.72,1.45,1.45,0,0,1,1.72-.27,3.62,3.62,0,0,1,.78.5,4.44,4.44,0,0,1,.49.55,2.92,2.92,0,0,1,.32.64,2.2,2.2,0,0,0-1.54,1.46c-.25.73-.15,1.23.28,1.5-.53-.12-.93.29-1.19,1.24s-.12,1.58.47,1.91a2.4,2.4,0,0,1-1.17.56,4.5,4.5,0,0,1-1.11-.12A1.52,1.52,0,0,1,72.87,41.21Z"/><path class="cls-9" d="M82.06,47.9a3.57,3.57,0,0,1-.46,1,1.53,1.53,0,0,1-1.56.81,3,3,0,0,1-.76-.42,3.37,3.37,0,0,1-.66-.69,6.35,6.35,0,0,0-1.31-1.14,7.47,7.47,0,0,0-1.53-.92,3.52,3.52,0,0,1-.89-.43,2.85,2.85,0,0,1-.58-.57,1.49,1.49,0,0,1,.28-1.74,4.07,4.07,0,0,1,.72-.58A2.93,2.93,0,0,1,76,43a2.57,2.57,0,0,1,.71-.12,2.21,2.21,0,0,0,.91,1.91c.62.47,1.13.54,1.52.21-.28.47,0,1,.8,1.52s1.48.6,2,.14A2.33,2.33,0,0,1,82.06,47.9Z"/><path class="cls-9" d="M81,45.25a1,1,0,0,1-.8-.5c-.15-.29-.05-.7.32-1.23a3,3,0,0,1,.8-.9,1.41,1.41,0,0,1,.58,0,1.23,1.23,0,0,1,.47.35,1.89,1.89,0,0,1,.47-.34,1.37,1.37,0,0,1,.57,0,3,3,0,0,1,.8.92c.37.52.51.9.42,1.13a1.08,1.08,0,0,1-.7.55,4.67,4.67,0,0,1-1.47.14A14.49,14.49,0,0,1,81,45.25Z"/><path class="cls-9" d="M90.5,45.61a2.84,2.84,0,0,1-.61.59,3.61,3.61,0,0,1-.88.43,6.17,6.17,0,0,0-1.48.88,7.32,7.32,0,0,0-1.35,1.18,4.28,4.28,0,0,1-.69.71,2.76,2.76,0,0,1-.72.38A1.5,1.5,0,0,1,83.21,49a3.35,3.35,0,0,1-.33-.87,2.63,2.63,0,0,1-.07-.71,3.22,3.22,0,0,1,.11-.72A2.2,2.2,0,0,0,85,46.39c.63-.44.85-.9.66-1.36.35.4.91.3,1.7-.31s1-1.22.73-1.82a2.26,2.26,0,0,1,1.27.23,3.55,3.55,0,0,1,.83.75A1.51,1.51,0,0,1,90.5,45.61Z"/><path class="cls-9" d="M90.66,42.43a3.28,3.28,0,0,1-.92.06,2.68,2.68,0,0,1-.71-.16,2.88,2.88,0,0,1-.64-.34,2.17,2.17,0,0,0,.38-2.08c-.22-.73-.59-1.09-1.1-1.06.5-.2.58-.77.24-1.69s-.84-1.35-1.51-1.28A2.33,2.33,0,0,1,87,34.76a3.52,3.52,0,0,1,1-.56,1.51,1.51,0,0,1,1.74.27,2.58,2.58,0,0,1,.38.76,3.93,3.93,0,0,1,.13,1,6.6,6.6,0,0,0,.37,1.68,7.73,7.73,0,0,0,.71,1.64,4.06,4.06,0,0,1,.47.88,2.36,2.36,0,0,1,.13.8A1.49,1.49,0,0,1,90.66,42.43Z"/><path class="cls-9" d="M34,31.7a2.87,2.87,0,0,1,.83-.12,3.72,3.72,0,0,1,1,.18,6.73,6.73,0,0,0,1.71.15,7,7,0,0,0,1.78-.16,4.36,4.36,0,0,1,1-.18,2.67,2.67,0,0,1,.79.13,1.49,1.49,0,0,1,.79,1.58,3.52,3.52,0,0,1-.23.89,2.9,2.9,0,0,1-.37.62,2.38,2.38,0,0,1-.52.5,2.2,2.2,0,0,0-1.86-1q-1.15,0-1.35.72c0-.53-.55-.78-1.54-.74s-1.54.38-1.67,1a2.25,2.25,0,0,1-.88-.93,3.27,3.27,0,0,1-.24-1.08A1.53,1.53,0,0,1,34,31.7Z"/><path class="cls-9" d="M39.53,40.76a1.49,1.49,0,0,1,.17-.55,3.33,3.33,0,0,1,1.14-.49c.6-.19,1-.2,1.19,0a1,1,0,0,1,.3.82A3.93,3.93,0,0,1,42,42c-.21.57-.4,1-.57,1.37a1,1,0,0,1-.73.59c-.32.06-.67-.17-1.06-.68a2.94,2.94,0,0,1-.6-1,1.13,1.13,0,0,1,.17-.55,1.64,1.64,0,0,1,.47-.35A1.65,1.65,0,0,1,39.53,40.76Z"/><path class="cls-9" d="M40.71,39.3a2.93,2.93,0,0,1-1.17.25,1.13,1.13,0,0,1-.47-.34,1.19,1.19,0,0,1-.18-.55,2.27,2.27,0,0,1-.58,0,1.27,1.27,0,0,1-.46-.33,3.56,3.56,0,0,1-.11-1.23c0-.63.12-1,.33-1.15a1.08,1.08,0,0,1,.88,0,4.42,4.42,0,0,1,1.27.75,11.8,11.8,0,0,1,1.12,1,1,1,0,0,1,.35.86C41.64,38.81,41.31,39.08,40.71,39.3Z"/><path class="cls-9" d="M35.76,41.63a1.1,1.1,0,0,1,.17.55,3.14,3.14,0,0,1-.62,1c-.38.51-.69.75-1,.74a1.06,1.06,0,0,1-.72-.5,4.29,4.29,0,0,1-.6-1.35,14,14,0,0,1-.34-1.43,1.07,1.07,0,0,1,.23-.92c.23-.23.66-.25,1.28-.07a3.14,3.14,0,0,1,1.09.48,1.16,1.16,0,0,1,.18.55,1.37,1.37,0,0,1-.18.56A2.26,2.26,0,0,1,35.76,41.63Z"/><path class="cls-9" d="M35.5,39.52a3,3,0,0,1-1.21-.26c-.6-.2-.93-.43-1-.68a1.11,1.11,0,0,1,.25-.84,4.21,4.21,0,0,1,1.1-1c.5-.34.93-.59,1.26-.77a1,1,0,0,1,1-.06c.28.14.43.54.45,1.19a2.89,2.89,0,0,1-.12,1.19,1,1,0,0,1-.47.33,1.27,1.27,0,0,1-.58,0,2,2,0,0,1-.18.54A1.29,1.29,0,0,1,35.5,39.52Z"/><path class="cls-9" d="M28,41.21a3,3,0,0,1,.15-.83,3.3,3.3,0,0,1,.46-.86,6.63,6.63,0,0,0,.68-1.6,6.65,6.65,0,0,0,.39-1.74,4,4,0,0,1,.14-1,2.46,2.46,0,0,1,.37-.72,1.47,1.47,0,0,1,1.73-.27,4.19,4.19,0,0,1,.78.5,3.71,3.71,0,0,1,.48.55,2.61,2.61,0,0,1,.33.64,2.21,2.21,0,0,0-1.55,1.46c-.24.73-.15,1.23.28,1.5-.52-.12-.92.29-1.19,1.24s-.11,1.58.48,1.91a2.44,2.44,0,0,1-1.17.56,4.46,4.46,0,0,1-1.11-.12A1.5,1.5,0,0,1,28,41.21Z"/><path class="cls-9" d="M37.17,47.9a3.88,3.88,0,0,1-.46,1,1.53,1.53,0,0,1-1.57.81,2.93,2.93,0,0,1-.75-.42,3.4,3.4,0,0,1-.67-.69,6.23,6.23,0,0,0-1.3-1.14,7.23,7.23,0,0,0-1.54-.92,3.43,3.43,0,0,1-.88-.43,2.42,2.42,0,0,1-.58-.57,1.47,1.47,0,0,1,.28-1.74,3.46,3.46,0,0,1,.72-.58,2.85,2.85,0,0,1,.66-.28,2.69,2.69,0,0,1,.71-.12,2.22,2.22,0,0,0,.92,1.91c.62.47,1.12.54,1.51.21-.28.47,0,1,.81,1.52s1.47.6,2,.14A2.35,2.35,0,0,1,37.17,47.9Z"/><path class="cls-9" d="M36.08,45.25a1,1,0,0,1-.8-.5q-.22-.44.33-1.23a3,3,0,0,1,.8-.9.93.93,0,0,1,1.05.35,1.83,1.83,0,0,1,.46-.34,1.36,1.36,0,0,1,.57,0,3.15,3.15,0,0,1,.81.92c.37.52.51.9.41,1.13a1,1,0,0,1-.69.55,4.67,4.67,0,0,1-1.47.14A14.73,14.73,0,0,1,36.08,45.25Z"/><path class="cls-9" d="M45.61,45.61a2.67,2.67,0,0,1-.62.59,3.44,3.44,0,0,1-.88.43,6.37,6.37,0,0,0-1.48.88,7.18,7.18,0,0,0-1.34,1.18,4.28,4.28,0,0,1-.69.71,2.76,2.76,0,0,1-.72.38A1.48,1.48,0,0,1,38.32,49,2.76,2.76,0,0,1,38,48.1a2.28,2.28,0,0,1-.07-.71,2.73,2.73,0,0,1,.11-.72,2.18,2.18,0,0,0,2.1-.28c.64-.44.85-.9.66-1.36.35.4.92.3,1.7-.31s1-1.22.74-1.82a2.21,2.21,0,0,1,1.26.23,3.54,3.54,0,0,1,.84.75A1.53,1.53,0,0,1,45.61,45.61Z"/><path class="cls-9" d="M45.76,42.43a3.24,3.24,0,0,1-.92.06,2.77,2.77,0,0,1-.71-.16,3.42,3.42,0,0,1-.64-.34,2.2,2.2,0,0,0,.39-2.08c-.22-.73-.59-1.09-1.11-1.06.51-.2.59-.77.25-1.69s-.84-1.35-1.51-1.28a2.25,2.25,0,0,1,.61-1.12,3.52,3.52,0,0,1,1-.56,1.51,1.51,0,0,1,1.74.27,2.56,2.56,0,0,1,.37.76,3.5,3.5,0,0,1,.13,1,7.24,7.24,0,0,0,.38,1.68,7.24,7.24,0,0,0,.71,1.64,4.55,4.55,0,0,1,.47.88,2.63,2.63,0,0,1,.13.8A1.49,1.49,0,0,1,45.76,42.43Z"/><path class="cls-9" d="M66.4,34.72a2.59,2.59,0,0,0-1.58-.22,3,3,0,0,0-1.62.88,6.34,6.34,0,0,0-1.57,3,7.75,7.75,0,0,0-.12.82c0,.14,0,.34,0,.55h-.69v0c0-.29,0-.58.09-.88,0,0,0-.08,0-.12s0-.14,0-.2c0-.26.11-.52.18-.77A27.51,27.51,0,0,1,62.33,35a4.65,4.65,0,0,0,.4-1.87,5.61,5.61,0,0,0-.89-2.84A14.56,14.56,0,0,0,60,28h0a13.45,13.45,0,0,0-1.86,2.25,5.74,5.74,0,0,0-.9,2.84A4.67,4.67,0,0,0,57.6,35a27.42,27.42,0,0,1,1.22,2.79c.07.25.14.51.19.77l0,.2s0,.08,0,.12c0,.3.07.59.08.88v0h-.69c0-.21,0-.41-.05-.55a5.8,5.8,0,0,0-.12-.82,5.93,5.93,0,0,0-.27-.92,6.05,6.05,0,0,0-1.29-2.09,3.05,3.05,0,0,0-1.62-.88,2.62,2.62,0,0,0-1.59.22,2.55,2.55,0,0,0-1.39,2.6,3.15,3.15,0,0,0,.09.42A2.63,2.63,0,0,0,53.07,39a2.19,2.19,0,0,0,1.41.42s-1-1-.27-1.95A1.46,1.46,0,0,1,55.79,37a2.92,2.92,0,0,1,1.49,1.8,3,3,0,0,1,.18.83h0s0,.08,0,.13H57.1a.53.53,0,0,0,0,1.06h.36a2.13,2.13,0,0,1-.15.58,2,2,0,0,1-.45.72,1,1,0,0,1-1.14.09.86.86,0,0,1-.32-.81v-.07a.42.42,0,0,0-.23.07,1.36,1.36,0,0,0,.23,2.38,1.83,1.83,0,0,0,1.84-.31,3.07,3.07,0,0,0,.68-.85,5.61,5.61,0,0,0,.47-1.22,3.48,3.48,0,0,0,.08-.58h.66a4.8,4.8,0,0,1-.24,1.36c-.1.28-.46,1-.53,1.32a3.76,3.76,0,0,0,.55,2.83,8.33,8.33,0,0,0,1,1.26h0a7.81,7.81,0,0,0,1-1.26,3.77,3.77,0,0,0,.56-2.83c-.07-.3-.44-1-.53-1.32a5.19,5.19,0,0,1-.25-1.36h.66a4.15,4.15,0,0,0,.09.58A5.14,5.14,0,0,0,62,42.62a2.75,2.75,0,0,0,.68.85,1.82,1.82,0,0,0,1.84.31,1.36,1.36,0,0,0,.23-2.38.48.48,0,0,0-.24-.07v.07a.86.86,0,0,1-.33.81,1,1,0,0,1-1.14-.09,2.1,2.1,0,0,1-.45-.72,2.44,2.44,0,0,1-.14-.58h.35a.53.53,0,0,0,0-1.06h-.36v-.13h0a3.33,3.33,0,0,1,.17-.83A2.92,2.92,0,0,1,64.13,37a1.47,1.47,0,0,1,1.59.42c.73.95-.27,1.95-.27,1.95A2.19,2.19,0,0,0,66.86,39a2.71,2.71,0,0,0,.85-1.21,2.07,2.07,0,0,0,.08-.42A2.54,2.54,0,0,0,66.4,34.72Z"/><path class="cls-9" d="M49,85.17a2.66,2.66,0,0,0-1-.85A3,3,0,0,0,46.67,84a3.18,3.18,0,0,0-1.42.31,3.5,3.5,0,0,0-1.12.85,3.81,3.81,0,0,0-.74,1.23,4.28,4.28,0,0,0-.26,1.46,4.45,4.45,0,0,0,.26,1.52,3.92,3.92,0,0,0,.73,1.22,3.49,3.49,0,0,0,1.11.82,3.41,3.41,0,0,0,1.44.3,3.27,3.27,0,0,0,1.52-.34,3.44,3.44,0,0,0,1.17-1l.82.7a3.87,3.87,0,0,1-1.51,1.23,4.92,4.92,0,0,1-2,.39,4.58,4.58,0,0,1-1.86-.37,4.46,4.46,0,0,1-1.5-1,4.71,4.71,0,0,1-1-1.54,5.22,5.22,0,0,1-.36-2A5,5,0,0,1,42.3,86a4.68,4.68,0,0,1,1-1.55A4.68,4.68,0,0,1,46.67,83a4.85,4.85,0,0,1,1.81.34A3.26,3.26,0,0,1,50,84.47Z"/><path class="cls-9" d="M58.52,85.17a2.64,2.64,0,0,0-1-.85A3,3,0,0,0,56.2,84a3.21,3.21,0,0,0-1.42.31,3.61,3.61,0,0,0-1.12.85,3.81,3.81,0,0,0-.74,1.23,4.28,4.28,0,0,0-.26,1.46,4.45,4.45,0,0,0,.26,1.52,3.92,3.92,0,0,0,.73,1.22,3.42,3.42,0,0,0,1.12.82,3.36,3.36,0,0,0,1.43.3,3.24,3.24,0,0,0,1.52-.34,3.35,3.35,0,0,0,1.17-1l.83.7a3.9,3.9,0,0,1-1.52,1.23,4.92,4.92,0,0,1-2,.39,4.64,4.64,0,0,1-1.86-.37,4.46,4.46,0,0,1-1.5-1,4.71,4.71,0,0,1-1-1.54,5.45,5.45,0,0,1,0-3.87,4.7,4.7,0,0,1,1-1.55,4.47,4.47,0,0,1,1.49-1A4.58,4.58,0,0,1,56.2,83a4.9,4.9,0,0,1,1.82.34,3.23,3.23,0,0,1,1.46,1.11Z"/><path class="cls-9" d="M61.73,83.25H64.1a11.73,11.73,0,0,1,1.33.08,3.6,3.6,0,0,1,1.19.34,2.1,2.1,0,0,1,.85.77,2.48,2.48,0,0,1,.33,1.37,2.26,2.26,0,0,1-.61,1.65,2.92,2.92,0,0,1-1.71.8l2.64,4.28H66.77l-2.52-4.17H62.83v4.17h-1.1Zm1.1,4.09h1l.95,0a3.59,3.59,0,0,0,.9-.17,1.55,1.55,0,0,0,.68-.46,1.29,1.29,0,0,0,.27-.88,1.38,1.38,0,0,0-.2-.8,1.35,1.35,0,0,0-.51-.47,2.15,2.15,0,0,0-.72-.21,5.52,5.52,0,0,0-.81-.06H62.83Z"/><path class="cls-9" d="M76.75,85.17a2.66,2.66,0,0,0-1-.85A3,3,0,0,0,74.43,84a3.18,3.18,0,0,0-1.42.31,3.5,3.5,0,0,0-1.12.85,3.81,3.81,0,0,0-.74,1.23,4.28,4.28,0,0,0-.26,1.46,4.45,4.45,0,0,0,.26,1.52,3.92,3.92,0,0,0,.73,1.22,3.49,3.49,0,0,0,1.11.82,3.41,3.41,0,0,0,1.44.3A3.27,3.27,0,0,0,76,91.41a3.44,3.44,0,0,0,1.17-1l.82.7a3.87,3.87,0,0,1-1.51,1.23,4.92,4.92,0,0,1-2,.39,4.58,4.58,0,0,1-1.86-.37,4.46,4.46,0,0,1-1.5-1,4.71,4.71,0,0,1-1-1.54,5.22,5.22,0,0,1-.36-2A5,5,0,0,1,70.06,86a4.68,4.68,0,0,1,1-1.55A4.68,4.68,0,0,1,74.43,83a4.85,4.85,0,0,1,1.81.34,3.26,3.26,0,0,1,1.47,1.11Z"/></g></svg>