<svg xmlns="http://www.w3.org/2000/svg" xmlns:xlink="http://www.w3.org/1999/xlink" viewBox="0 0 600 320"><defs><style>.cls-1,.cls-3{fill:#7e2d40;}.cls-1,.cls-7,.cls-9{stroke:#fff;stroke-miterlimit:10;}.cls-1,.cls-9{stroke-width:2.45px;}.cls-2{fill:#5a6981;}.cls-4{clip-path:url(#clip-path);}.cls-5{fill:#13294b;}.cls-6{fill:#daaa00;}.cls-10,.cls-7{fill:#fff;}.cls-8{fill:#36749d;fill-rule:evenodd;}.cls-9{fill:none;}</style><clipPath id="clip-path"><path class="cls-1" d="M223.56,32.56V151.48a19.1,19.1,0,0,0,15.64,18.79l44.1,8.11A22.45,22.45,0,0,1,300,191.91h0a22.45,22.45,0,0,1,16.7-13.53l44.1-8.11a19.1,19.1,0,0,0,15.64-18.79V32.56Z"/></clipPath></defs><title>CCRC Logo Master RGB</title><g id="Layer_5" data-name="Layer 5"><path class="cls-2" d="M469.79,156.68,463.16,135a2.13,2.13,0,0,0-2.71-1.4l-53.09,17.63-.8.61-10.65,1L300,166.12l-95.91-13.28-10.65-1-.8-.61-53.09-17.63a2.13,2.13,0,0,0-2.71,1.4l-6.63,21.65a1.54,1.54,0,0,0,1.22,2l38.87,6.52a2.13,2.13,0,0,0,1.91-.64,25.62,25.62,0,0,1,19.63-7.66l1-.37,10.52,2,76,10.52-93.76,13-23,4.12.46,3.31-.46-3.32-.39-.29-16.72,3-.47.65.28,2,.62.5,16.91-1.65.3-.38v0l23.29-2.29L300,171.84l113.65,15.73,23.29,2.29v0l.3.38,16.91,1.65.62-.5.28-2-.47-.65-16.72-3-.39.29-.46,3.32.46-3.31-23-4.12-93.76-13,76-10.52,10.52-2,1,.37a25.62,25.62,0,0,1,19.63,7.66,2.13,2.13,0,0,0,1.91.64l38.87-6.52A1.54,1.54,0,0,0,469.79,156.68Z"/><path class="cls-3" d="M223.56,32.56V151.48a19.1,19.1,0,0,0,15.64,18.79l44.1,8.11A22.45,22.45,0,0,1,300,191.91h0a22.45,22.45,0,0,1,16.7-13.53l44.1-8.11a19.1,19.1,0,0,0,15.64-18.79V32.56Z"/><g class="cls-4"><rect class="cls-5" x="223.56" y="119.78" width="152.88" height="74.69"/><path class="cls-6" d="M300.71,94.78c30.36,0,58.26,4.54,81.27,12.38-1.2,11.31-2.65,23.08-4.35,34.07-20.21-9-48.14-14.1-76.92-14.1-29.38,0-57.88,5.35-78.19,14.66l-1.92.91c-1.73-11-3.22-22.92-4.45-34.39C239.77,99.76,268.88,94.78,300.71,94.78Z"/><path class="cls-6" d="M209.71,112.24l-1-9.82a1.92,1.92,0,0,1,1.22-2l8.59-3.32c5.26-2,10.74-3.87,16.4-5.49a1.92,1.92,0,0,1,2.44,1.85v8.62"/><path class="cls-6" d="M280.08,95.76V84.84A1.93,1.93,0,0,1,282,82.92q9.94-.19,20-.2,7.13,0,14.19.11a1.92,1.92,0,0,1,1.89,1.92V95.64"/><path class="cls-6" d="M360.76,101.57V92.64a1.92,1.92,0,0,1,2.41-1.86q8.37,2.25,16.18,5.09l8.8,3.21a1.92,1.92,0,0,1,1.26,2l-1,10"/><path class="cls-7" d="M222.89,141.23a154.36,154.36,0,0,1,34.31-10.42l.47-.09V120.37l-.68.12a174,174,0,0,0-35.92,10.25l-.28-.66a152.88,152.88,0,0,1,15.8-5.55l.42-.12V113.78l-.73.2a173,173,0,0,0-17.34,5.62l-.26-.67a197.2,197.2,0,0,1,38.51-10.21l.48-.08V98.35l-.67.11a220.56,220.56,0,0,0-40.19,10l-.24-.68a203.78,203.78,0,0,1,20-6l.44-.1V93.48a1.57,1.57,0,0,0-1.56-1.56A1.47,1.47,0,0,0,235,92c-5.67,1.62-11.18,3.46-16.37,5.47l-8.59,3.33a1.56,1.56,0,0,0-1,1.6l.94,9.25-.72.07-.94-9.24a2.28,2.28,0,0,1,1.45-2.35l8.59-3.33c5.21-2,10.74-3.87,16.43-5.5a2.59,2.59,0,0,1,.63-.08,2.29,2.29,0,0,1,2.27,2.28v8.07l.71-.16a258.45,258.45,0,0,1,40.75-6.18l.53,0V84.84A2.3,2.3,0,0,1,282,82.56c6.47-.13,13.07-.2,19.62-.2,4.84,0,9.75,0,14.59.11a2.29,2.29,0,0,1,2.25,2.28V95l.54,0a263.46,263.46,0,0,1,40.75,5.62l.7.16V92.64a2.28,2.28,0,0,1,.9-1.82,2.23,2.23,0,0,1,1.37-.47,2.33,2.33,0,0,1,.59.08c5.58,1.5,11,3.21,16.22,5.1l8.8,3.21a2.29,2.29,0,0,1,1.49,2.37l-.94,9.42-.72-.07.94-9.42a1.57,1.57,0,0,0-1-1.62l-8.8-3.21c-5.15-1.88-10.58-3.59-16.15-5.08a1.37,1.37,0,0,0-.4,0,1.55,1.55,0,0,0-.95.32,1.58,1.58,0,0,0-.61,1.24v8.3l.45.11c7.13,1.64,13.85,3.52,20,5.58l-.24.69a228.24,228.24,0,0,0-40.7-9.4l-.66-.09v10.24l.49.07A203.85,203.85,0,0,1,380.12,118l-.25.68a178.37,178.37,0,0,0-18-5.52l-.72-.18v10.55l.43.12a160.11,160.11,0,0,1,17.14,5.69l-.28.67a179.73,179.73,0,0,0-37.78-10.12l-.67-.11v10.29l.48.08c13.78,2.39,26.5,6,36.81,10.54l-.29.66c-20.12-8.8-47.87-13.83-76.26-13.83-29.07,0-57.28,5.24-77.51,14.38Zm77.81-24.52a247.87,247.87,0,0,0-41.83,3.46l-.48.08v10.33l.68-.13a232.49,232.49,0,0,1,41.63-3.68,234.94,234.94,0,0,1,37.86,3l.68.11V119.64l-.49-.08A251,251,0,0,0,300.7,116.71Zm-21.6-9.93a238.38,238.38,0,0,0-40.94,6.71l-.43.11v10.6l.73-.21a217.56,217.56,0,0,1,40.73-7.11l.53,0v-10.1Zm39.31,9.82.53,0a222.69,222.69,0,0,1,40.74,6.5l.72.19V112.79l-.44-.11A243.82,243.82,0,0,0,319,106.55l-.61,0ZM300.7,105.92c-6.45,0-13.08.25-19.72.73l-.53,0v10.1l.62,0c6.57-.5,13.18-.75,19.63-.75,5.46,0,11,.17,16.37.51l.62,0V106.45l-.55,0C311.68,106.09,306.15,105.92,300.7,105.92Zm0-10.78a285.78,285.78,0,0,0-41.81,3l-.5.08v10.26l.67-.1a270.51,270.51,0,0,1,79.52-.57l.66.09V97.74l-.51-.07A287.14,287.14,0,0,0,300.7,95.14Zm.93-12c-6.56,0-13.17.06-19.66.19a1.57,1.57,0,0,0-1.52,1.56V95.15l.61-.05c7-.46,13.41-.68,19.64-.68,4.95,0,10.3.16,16.38.49l.61,0V84.75a1.58,1.58,0,0,0-1.54-1.56C311.34,83.12,306.46,83.09,301.63,83.09Z"/><path class="cls-8" d="M417.84,148.67c-9.7,0-19.47,5.85-29.22,5.85s-19.41-5.85-29.22-5.85-19.67,5.85-29.22,5.85c-9.84,0-19.61-5.85-29.22-5.85-10,0-19.56,5.85-29.22,5.85-9.91,0-19.75-5.85-29.18-5.85-10.09,0-19.86,5.85-29.26,5.85-10.21,0-20-5.85-29.22-5.85-10.45,0-20.3,5.85-29.22,5.85-11.21,0-20.89-5.84-29.21-5.85v2.1c8.25,0,18.14,5.84,29.21,5.84,8.92,0,18.77-5.84,29.22-5.84,9.24,0,19,5.84,29.22,5.84,9.4,0,19.09-5.84,29.18-5.84,9.53,0,19.24,5.84,29.26,5.84,9.55,0,19.33-5.84,29.22-5.84,9.69,0,19.3,5.84,29.22,5.84,9.55,0,19.49-5.84,29.17-5.84s19.55,5.84,29.27,5.84c9.89,0,19.68-5.84,29.52-5.84s19.27,5.84,28.92,5.84c9.82,0,19.64-5.84,29.22-5.84v-2.1c-9.47,0-19.51,5.85-29.22,5.85S427.72,148.67,417.84,148.67Z"/><path class="cls-8" d="M417.84,172.05c-9.7,0-19.47,5.85-29.22,5.85s-19.41-5.85-29.22-5.85-19.67,5.85-29.22,5.85c-9.84,0-19.61-5.85-29.22-5.85-10,0-19.56,5.85-29.22,5.85-9.91,0-19.75-5.85-29.18-5.85-10.09,0-19.86,5.85-29.26,5.85-10.21,0-20-5.85-29.22-5.85-10.45,0-20.3,5.85-29.22,5.85-11.21,0-20.89-5.84-29.21-5.85v2.1c8.25,0,18.14,5.84,29.21,5.84,8.92,0,18.77-5.84,29.22-5.84,9.24,0,19,5.84,29.22,5.84,9.4,0,19.09-5.84,29.18-5.84,9.53,0,19.24,5.84,29.26,5.84,9.55,0,19.33-5.84,29.22-5.84,9.69,0,19.3,5.84,29.22,5.84,9.55,0,19.49-5.84,29.17-5.84S378.9,180,388.62,180c9.89,0,19.68-5.84,29.52-5.84S437.41,180,447.06,180c9.82,0,19.64-5.84,29.22-5.84v-2.1c-9.47,0-19.51,5.85-29.22,5.85S427.72,172.05,417.84,172.05Z"/><path class="cls-8" d="M417.84,187.64c-9.7,0-19.47,5.85-29.22,5.85s-19.41-5.85-29.22-5.85-19.67,5.85-29.22,5.85c-9.84,0-19.61-5.85-29.22-5.85-10,0-19.56,5.85-29.22,5.85-9.91,0-19.75-5.85-29.18-5.85-10.09,0-19.86,5.85-29.26,5.85-10.21,0-20-5.85-29.22-5.85-10.45,0-20.3,5.85-29.22,5.85-11.21,0-20.89-5.84-29.21-5.85v2.1c8.25,0,18.14,5.84,29.21,5.84,8.92,0,18.77-5.84,29.22-5.84,9.24,0,19,5.84,29.22,5.84,9.4,0,19.09-5.84,29.18-5.84,9.53,0,19.24,5.84,29.26,5.84,9.55,0,19.33-5.84,29.22-5.84,9.69,0,19.3,5.84,29.22,5.84,9.55,0,19.49-5.84,29.17-5.84s19.55,5.84,29.27,5.84c9.89,0,19.68-5.84,29.52-5.84s19.27,5.84,28.92,5.84c9.82,0,19.64-5.84,29.22-5.84v-2.1c-9.47,0-19.51,5.85-29.22,5.85S427.72,187.64,417.84,187.64Z"/><path class="cls-8" d="M417.84,156.47c-9.7,0-19.47,5.84-29.22,5.84s-19.41-5.84-29.22-5.84-19.67,5.84-29.22,5.84c-9.84,0-19.61-5.84-29.22-5.84-10,0-19.56,5.84-29.22,5.84-9.91,0-19.75-5.84-29.18-5.84-10.09,0-19.86,5.84-29.26,5.84-10.21,0-20-5.84-29.22-5.84-10.45,0-20.3,5.84-29.22,5.84-11.21,0-20.89-5.84-29.21-5.84v2.09c8.25,0,18.14,5.85,29.21,5.85,8.92,0,18.77-5.85,29.22-5.85,9.24,0,19,5.85,29.22,5.85,9.4,0,19.09-5.85,29.18-5.85,9.53,0,19.24,5.85,29.26,5.85,9.55,0,19.33-5.85,29.22-5.85,9.69,0,19.3,5.85,29.22,5.85,9.55,0,19.49-5.85,29.17-5.85s19.55,5.85,29.27,5.85c9.89,0,19.68-5.85,29.52-5.85s19.27,5.85,28.92,5.85c9.82,0,19.64-5.85,29.22-5.85v-2.09c-9.47,0-19.51,5.84-29.22,5.84S427.72,156.47,417.84,156.47Z"/><path class="cls-8" d="M417.84,195.43c-9.7,0-19.47,5.85-29.22,5.85s-19.41-5.85-29.22-5.85-19.67,5.85-29.22,5.85c-9.84,0-19.61-5.85-29.22-5.85-10,0-19.56,5.85-29.22,5.85-9.91,0-19.75-5.85-29.18-5.85-10.09,0-19.86,5.85-29.26,5.85-10.21,0-20-5.85-29.22-5.85-10.45,0-20.3,5.85-29.22,5.85-11.21,0-20.89-5.84-29.21-5.85v2.1c8.25,0,18.14,5.84,29.21,5.84,8.92,0,18.77-5.84,29.22-5.84,9.24,0,19,5.84,29.22,5.84,9.4,0,19.09-5.84,29.18-5.84,9.53,0,19.24,5.84,29.26,5.84,9.55,0,19.33-5.84,29.22-5.84,9.69,0,19.3,5.84,29.22,5.84,9.55,0,19.49-5.84,29.17-5.84s19.55,5.84,29.27,5.84c9.89,0,19.68-5.84,29.52-5.84s19.27,5.84,28.92,5.84c9.82,0,19.64-5.84,29.22-5.84v-2.1c-9.47,0-19.51,5.85-29.22,5.85S427.72,195.43,417.84,195.43Z"/><path class="cls-8" d="M417.84,164.26c-9.7,0-19.47,5.85-29.22,5.85s-19.41-5.85-29.22-5.85-19.67,5.85-29.22,5.85c-9.84,0-19.61-5.85-29.22-5.85-10,0-19.56,5.85-29.22,5.85-9.91,0-19.75-5.85-29.18-5.85-10.09,0-19.86,5.85-29.26,5.85-10.21,0-20-5.85-29.22-5.85-10.45,0-20.3,5.85-29.22,5.85-11.21,0-20.89-5.84-29.21-5.85v2.1c8.25,0,18.14,5.84,29.21,5.84,8.92,0,18.77-5.85,29.22-5.85,9.24,0,19,5.85,29.22,5.85,9.4,0,19.09-5.85,29.18-5.85,9.53,0,19.24,5.85,29.26,5.85,9.55,0,19.33-5.85,29.22-5.85,9.69,0,19.3,5.85,29.22,5.85,9.55,0,19.49-5.85,29.17-5.85s19.55,5.85,29.27,5.85c9.89,0,19.68-5.85,29.52-5.85s19.27,5.85,28.92,5.85c9.82,0,19.64-5.85,29.22-5.85v-2.09c-9.47,0-19.51,5.85-29.22,5.85S427.72,164.26,417.84,164.26Z"/><path class="cls-8" d="M417.84,179.85c-9.7,0-19.47,5.84-29.22,5.84s-19.41-5.84-29.22-5.84-19.67,5.84-29.22,5.84c-9.84,0-19.61-5.84-29.22-5.84-10,0-19.56,5.84-29.22,5.84-9.91,0-19.75-5.84-29.18-5.84-10.09,0-19.86,5.84-29.26,5.84-10.21,0-20-5.84-29.22-5.84-10.45,0-20.3,5.84-29.22,5.84-11.21,0-20.89-5.84-29.21-5.84v2.09c8.25,0,18.14,5.85,29.21,5.85,8.92,0,18.77-5.85,29.22-5.85,9.24,0,19,5.85,29.22,5.85,9.4,0,19.09-5.85,29.18-5.85,9.53,0,19.24,5.85,29.26,5.85,9.55,0,19.33-5.85,29.22-5.85,9.69,0,19.3,5.85,29.22,5.85,9.55,0,19.49-5.85,29.17-5.85s19.55,5.85,29.27,5.85c9.89,0,19.68-5.85,29.52-5.85s19.27,5.85,28.92,5.85c9.82,0,19.64-5.85,29.22-5.85v-2.09c-9.47,0-19.51,5.84-29.22,5.84S427.72,179.85,417.84,179.85Z"/><path class="cls-8" d="M417.84,203.23c-9.7,0-19.47,5.84-29.22,5.84s-19.41-5.84-29.22-5.84-19.67,5.84-29.22,5.84c-9.84,0-19.61-5.84-29.22-5.84-10,0-19.56,5.84-29.22,5.84-9.91,0-19.75-5.84-29.18-5.84-10.09,0-19.86,5.84-29.26,5.84-10.21,0-20-5.84-29.22-5.84-10.45,0-20.3,5.84-29.22,5.84-11.21,0-20.89-5.84-29.21-5.84v2.09c8.25,0,18.14,5.85,29.21,5.85,8.92,0,18.77-5.85,29.22-5.85,9.24,0,19,5.85,29.22,5.85,9.4,0,19.09-5.85,29.18-5.85,9.53,0,19.24,5.85,29.26,5.85,9.55,0,19.33-5.85,29.22-5.85,9.69,0,19.3,5.85,29.22,5.85,9.55,0,19.49-5.85,29.17-5.85s19.55,5.85,29.27,5.85c9.89,0,19.68-5.85,29.52-5.85s19.27,5.85,28.92,5.85c9.82,0,19.64-5.85,29.22-5.85v-2.09c-9.47,0-19.51,5.84-29.22,5.84S427.72,203.23,417.84,203.23Z"/><path class="cls-8" d="M417.84,211c-9.7,0-19.47,5.85-29.22,5.85S369.21,211,359.4,211s-19.67,5.85-29.22,5.85c-9.84,0-19.61-5.85-29.22-5.85-10,0-19.56,5.85-29.22,5.85-9.91,0-19.75-5.85-29.18-5.85-10.09,0-19.86,5.85-29.26,5.85-10.21,0-20-5.85-29.22-5.85-10.45,0-20.3,5.85-29.22,5.85-11.21,0-20.89-5.84-29.21-5.85v2.1c8.25,0,18.14,5.84,29.21,5.84,8.92,0,18.77-5.84,29.22-5.84,9.24,0,19,5.84,29.22,5.84,9.4,0,19.09-5.84,29.18-5.84,9.53,0,19.24,5.84,29.26,5.84,9.55,0,19.33-5.84,29.22-5.84,9.69,0,19.3,5.84,29.22,5.84,9.55,0,19.49-5.84,29.17-5.84S378.9,219,388.62,219c9.89,0,19.68-5.84,29.52-5.84S437.41,219,447.06,219c9.82,0,19.64-5.84,29.22-5.84V211c-9.47,0-19.51,5.85-29.22,5.85S427.72,211,417.84,211Z"/><path class="cls-8" d="M417.84,140.88c-9.7,0-19.47,5.85-29.22,5.85s-19.41-5.85-29.22-5.85-19.67,5.85-29.22,5.85c-9.84,0-19.61-5.85-29.22-5.85-10,0-19.56,5.85-29.22,5.85-9.91,0-19.75-5.85-29.18-5.85-10.09,0-19.86,5.85-29.26,5.85-10.21,0-20-5.85-29.22-5.85-10.45,0-20.3,5.85-29.22,5.85-11.21,0-20.89-5.84-29.21-5.85V143c8.25,0,18.14,5.84,29.21,5.84,8.92,0,18.77-5.85,29.22-5.85,9.24,0,19,5.85,29.22,5.85,9.4,0,19.09-5.85,29.18-5.85,9.53,0,19.24,5.85,29.26,5.85,9.55,0,19.33-5.85,29.22-5.85,9.69,0,19.3,5.85,29.22,5.85,9.55,0,19.49-5.85,29.17-5.85s19.55,5.85,29.27,5.85c9.89,0,19.68-5.85,29.52-5.85s19.27,5.85,28.92,5.85c9.82,0,19.64-5.85,29.22-5.85v-2.09c-9.47,0-19.51,5.85-29.22,5.85S427.72,140.88,417.84,140.88Z"/></g><path class="cls-9" d="M223.56,32.56V151.48a19.1,19.1,0,0,0,15.64,18.79l44.1,8.11A22.45,22.45,0,0,1,300,191.91h0a22.45,22.45,0,0,1,16.7-13.53l44.1-8.11a19.1,19.1,0,0,0,15.64-18.79V32.56Z"/><path class="cls-10" d="M336.65,46.15a5.2,5.2,0,0,1,1.62-.22,6.88,6.88,0,0,1,1.87.34,13.29,13.29,0,0,0,3.32.29,13.84,13.84,0,0,0,3.45-.31,7.81,7.81,0,0,1,1.9-.33,5.15,5.15,0,0,1,1.55.23,2.91,2.91,0,0,1,1.53,3.06,5.92,5.92,0,0,1-1.17,2.94,5,5,0,0,1-1,1,4.21,4.21,0,0,0-3.6-2c-1.49,0-2.36.44-2.61,1.4-.08-1-1.08-1.52-3-1.45s-3,.74-3.23,2a4.49,4.49,0,0,1-1.71-1.8,6.67,6.67,0,0,1-.46-2.11A3,3,0,0,1,336.65,46.15Z"/><path class="cls-10" d="M347.4,63.7a2.76,2.76,0,0,1,.34-1.06,6.45,6.45,0,0,1,2.19-1c1.17-.37,1.94-.39,2.31-.07a1.9,1.9,0,0,1,.6,1.6,8,8,0,0,1-.61,2.79c-.41,1.09-.78,2-1.11,2.65a1.89,1.89,0,0,1-1.41,1.15c-.62.11-1.3-.33-2-1.32a5.72,5.72,0,0,1-1.17-2,2.26,2.26,0,0,1,.34-1.07,3.27,3.27,0,0,1,.91-.68A3.67,3.67,0,0,1,347.4,63.7Z"/><path class="cls-10" d="M349.7,60.88a5.52,5.52,0,0,1-2.28.47,2.21,2.21,0,0,1-.9-.64,2.56,2.56,0,0,1-.36-1.07,4.25,4.25,0,0,1-1.12,0,2.57,2.57,0,0,1-.88-.64,6.46,6.46,0,0,1-.22-2.38c0-1.23.23-2,.65-2.23a2,2,0,0,1,1.69-.07,8.76,8.76,0,0,1,2.47,1.47,26.29,26.29,0,0,1,2.17,1.85,2,2,0,0,1,.68,1.68C351.5,59.93,350.86,60.46,349.7,60.88Z"/><path class="cls-10" d="M340.1,65.39a2.19,2.19,0,0,1,.34,1.06,6,6,0,0,1-1.2,2c-.74,1-1.35,1.46-1.84,1.42A2,2,0,0,1,336,69a8.46,8.46,0,0,1-1.15-2.61,25.83,25.83,0,0,1-.66-2.79,2,2,0,0,1,.45-1.77c.45-.45,1.27-.49,2.47-.13a6.1,6.1,0,0,1,2.12.92,2.33,2.33,0,0,1,.34,1.07,2.75,2.75,0,0,1-.34,1.08A4.21,4.21,0,0,1,340.1,65.39Z"/><path class="cls-10" d="M339.59,61.3a5.54,5.54,0,0,1-2.32-.51c-1.17-.38-1.82-.82-1.94-1.31a2.1,2.1,0,0,1,.48-1.63,8.34,8.34,0,0,1,2.12-1.9c1-.64,1.8-1.14,2.44-1.48a1.93,1.93,0,0,1,1.84-.11c.55.27.85,1,.88,2.29a5.8,5.8,0,0,1-.24,2.31,2,2,0,0,1-.9.64,2.55,2.55,0,0,1-1.13,0,3.33,3.33,0,0,1-.34,1A2.48,2.48,0,0,1,339.59,61.3Z"/><path class="cls-10" d="M325,64.58a5.15,5.15,0,0,1,.29-1.61,6.25,6.25,0,0,1,.9-1.67,13.52,13.52,0,0,0,1.31-3.09,13.13,13.13,0,0,0,.76-3.38,7.89,7.89,0,0,1,.25-1.9,5.28,5.28,0,0,1,.73-1.39,2.83,2.83,0,0,1,3.35-.51,6,6,0,0,1,2.45,2,5.09,5.09,0,0,1,.62,1.24,4.28,4.28,0,0,0-3,2.83c-.47,1.41-.29,2.38.55,2.91-1-.24-1.79.56-2.31,2.39s-.22,3.07.92,3.7a4.63,4.63,0,0,1-2.26,1.09,7.6,7.6,0,0,1-2.16-.24A2.9,2.9,0,0,1,325,64.58Z"/><path class="cls-10" d="M342.84,77.54a7.07,7.07,0,0,1-.9,2,2.93,2.93,0,0,1-3,1.57,6.12,6.12,0,0,1-1.46-.8A6.64,6.64,0,0,1,336.16,79a12.62,12.62,0,0,0-2.53-2.21,13.91,13.91,0,0,0-3-1.78,6.71,6.71,0,0,1-1.72-.84,4.87,4.87,0,0,1-1.12-1.1,2.87,2.87,0,0,1,.55-3.36,6.83,6.83,0,0,1,1.39-1.14,5.44,5.44,0,0,1,1.29-.54,5.15,5.15,0,0,1,1.38-.22,4.26,4.26,0,0,0,1.76,3.7c1.2.9,2.18,1,2.94.41q-.81,1.34,1.56,2.93t3.81.27A4.7,4.7,0,0,1,342.84,77.54Z"/><path class="cls-10" d="M340.73,72.41a2,2,0,0,1-1.54-1c-.3-.55-.09-1.34.62-2.37a5.68,5.68,0,0,1,1.55-1.74,2.34,2.34,0,0,1,1.12,0,2.47,2.47,0,0,1,.92.67,3.37,3.37,0,0,1,.9-.65,2.54,2.54,0,0,1,1.1,0A6,6,0,0,1,347,69.11c.72,1,1,1.74.8,2.19a2,2,0,0,1-1.34,1.06,8.85,8.85,0,0,1-2.85.27C342.4,72.58,341.46,72.51,340.73,72.41Z"/><path class="cls-10" d="M359.17,73.1A5,5,0,0,1,358,74.24a6.34,6.34,0,0,1-1.69.83,12.66,12.66,0,0,0-2.87,1.7,13.11,13.11,0,0,0-2.6,2.3,9.24,9.24,0,0,1-1.34,1.37,5.66,5.66,0,0,1-1.4.73,2.89,2.89,0,0,1-3-1.56,5.94,5.94,0,0,1-.64-1.68,5.12,5.12,0,0,1-.14-1.39,5.85,5.85,0,0,1,.22-1.38,4.29,4.29,0,0,0,4.08-.54c1.22-.86,1.64-1.75,1.27-2.65q1,1.17,3.3-.6c1.49-1.17,2-2.35,1.42-3.53a4.39,4.39,0,0,1,2.45.46,7,7,0,0,1,1.61,1.44A2.92,2.92,0,0,1,359.17,73.1Z"/><path class="cls-10" d="M359.48,66.94a6.9,6.9,0,0,1-1.78.12,6.63,6.63,0,0,1-1.38-.31,6.13,6.13,0,0,1-1.24-.66,4.23,4.23,0,0,0,.75-4c-.43-1.43-1.15-2.12-2.14-2.06,1-.4,1.13-1.49.47-3.28s-1.63-2.61-2.92-2.48a4.55,4.55,0,0,1,1.17-2.17A7.27,7.27,0,0,1,354.3,51a2.92,2.92,0,0,1,3.36.53,4.55,4.55,0,0,1,.73,1.48,6.8,6.8,0,0,1,.26,1.87,12.65,12.65,0,0,0,.73,3.26,13.68,13.68,0,0,0,1.37,3.17,8.4,8.4,0,0,1,.9,1.7,4.82,4.82,0,0,1,.26,1.56A2.86,2.86,0,0,1,359.48,66.94Z"/><path class="cls-10" d="M249.71,46.15a5.13,5.13,0,0,1,1.61-.22,6.81,6.81,0,0,1,1.87.34,13.44,13.44,0,0,0,3.33.29,13.9,13.9,0,0,0,3.45-.31,7.73,7.73,0,0,1,1.9-.33,5.09,5.09,0,0,1,1.54.23,2.91,2.91,0,0,1,1.53,3.06,6.19,6.19,0,0,1-.46,1.73,5.68,5.68,0,0,1-.71,1.21,5.24,5.24,0,0,1-1,1,4.23,4.23,0,0,0-3.6-2c-1.5,0-2.37.44-2.62,1.4-.08-1-1.07-1.52-3-1.45s-3,.74-3.22,2a4.52,4.52,0,0,1-1.72-1.8,7.29,7.29,0,0,1-.46-2.11A3,3,0,0,1,249.71,46.15Z"/><path class="cls-10" d="M260.46,63.7a2.6,2.6,0,0,1,.34-1.06,6.25,6.25,0,0,1,2.19-1c1.16-.37,1.93-.39,2.31-.07a1.9,1.9,0,0,1,.59,1.6,8,8,0,0,1-.61,2.79c-.41,1.09-.77,2-1.1,2.65a1.93,1.93,0,0,1-1.41,1.15c-.62.11-1.31-.33-2.06-1.32a5.72,5.72,0,0,1-1.17-2,2.38,2.38,0,0,1,.34-1.07,3.31,3.31,0,0,1,.92-.68A3.37,3.37,0,0,1,260.46,63.7Z"/><path class="cls-10" d="M262.75,60.88a5.51,5.51,0,0,1-2.27.47,2.21,2.21,0,0,1-.9-.64,2.31,2.31,0,0,1-.36-1.07,4.25,4.25,0,0,1-1.12,0,2.62,2.62,0,0,1-.89-.64A6.7,6.7,0,0,1,257,56.6c0-1.23.23-2,.65-2.23a2.06,2.06,0,0,1,1.7-.07,8.87,8.87,0,0,1,2.46,1.47A24.71,24.71,0,0,1,264,57.62a2,2,0,0,1,.68,1.68C264.55,59.93,263.92,60.46,262.75,60.88Z"/><path class="cls-10" d="M253.16,65.39a2.43,2.43,0,0,1,.34,1.06,6.11,6.11,0,0,1-1.21,2c-.74,1-1.35,1.46-1.83,1.42a2,2,0,0,1-1.41-1,8.22,8.22,0,0,1-1.16-2.61,25.83,25.83,0,0,1-.66-2.79,2,2,0,0,1,.46-1.77c.44-.45,1.26-.49,2.46-.13a6.1,6.1,0,0,1,2.12.92,2.22,2.22,0,0,1,.34,1.07,2.59,2.59,0,0,1-.34,1.08A4.25,4.25,0,0,1,253.16,65.39Z"/><path class="cls-10" d="M252.65,61.3a5.58,5.58,0,0,1-2.33-.51c-1.17-.38-1.81-.82-1.94-1.31a2.1,2.1,0,0,1,.48-1.63A8.51,8.51,0,0,1,251,56c1-.64,1.8-1.14,2.45-1.48a1.91,1.91,0,0,1,1.83-.11c.56.27.85,1,.88,2.29a5.68,5.68,0,0,1-.23,2.31,2.13,2.13,0,0,1-.9.64,2.59,2.59,0,0,1-1.14,0,3.33,3.33,0,0,1-.34,1A2.45,2.45,0,0,1,252.65,61.3Z"/><path class="cls-10" d="M238.09,64.58a5.15,5.15,0,0,1,.29-1.61,6.25,6.25,0,0,1,.9-1.67,13.08,13.08,0,0,0,1.31-3.09,12.72,12.72,0,0,0,.76-3.38,7.84,7.84,0,0,1,.26-1.9,5,5,0,0,1,.73-1.39,2.81,2.81,0,0,1,3.34-.51,6.23,6.23,0,0,1,1.51,1,6.48,6.48,0,0,1,.94,1,5.57,5.57,0,0,1,.63,1.24,4.25,4.25,0,0,0-3,2.83q-.72,2.12.54,2.91c-1-.24-1.79.56-2.31,2.39s-.21,3.07.92,3.7a4.63,4.63,0,0,1-2.26,1.09A7.66,7.66,0,0,1,240.5,67,2.91,2.91,0,0,1,238.09,64.58Z"/><path class="cls-10" d="M255.89,77.54a7.07,7.07,0,0,1-.9,2,2.91,2.91,0,0,1-3,1.57,5.94,5.94,0,0,1-1.46-.8A6.38,6.38,0,0,1,249.22,79a12.92,12.92,0,0,0-2.53-2.21,13.68,13.68,0,0,0-3-1.78,6.79,6.79,0,0,1-1.71-.84,4.68,4.68,0,0,1-1.12-1.1,2.86,2.86,0,0,1,.54-3.36,7.11,7.11,0,0,1,1.39-1.14A5.81,5.81,0,0,1,244.1,68a5.21,5.21,0,0,1,1.38-.22,4.3,4.3,0,0,0,1.77,3.7c1.2.9,2.18,1,2.93.41q-.81,1.34,1.57,2.93t3.8.27A4.6,4.6,0,0,1,255.89,77.54Z"/><path class="cls-10" d="M253.78,72.41a2,2,0,0,1-1.54-1q-.45-.83.63-2.37a5.7,5.7,0,0,1,1.54-1.74,2.34,2.34,0,0,1,1.12,0,2.39,2.39,0,0,1,.92.67,3.72,3.72,0,0,1,.9-.65,2.54,2.54,0,0,1,1.1,0A6.15,6.15,0,0,1,260,69.11c.71,1,1,1.74.8,2.19a2.06,2.06,0,0,1-1.35,1.06,8.85,8.85,0,0,1-2.85.27C255.45,72.58,254.51,72.51,253.78,72.41Z"/><path class="cls-10" d="M272.23,73.1A5.14,5.14,0,0,1,271,74.24a6.41,6.41,0,0,1-1.7.83,12.88,12.88,0,0,0-2.87,1.7,13.42,13.42,0,0,0-2.6,2.3,8.35,8.35,0,0,1-1.34,1.37,5.59,5.59,0,0,1-1.39.73,2.91,2.91,0,0,1-3-1.56,6.26,6.26,0,0,1-.64-1.68,5.55,5.55,0,0,1-.14-1.39,6.42,6.42,0,0,1,.22-1.38,4.28,4.28,0,0,0,4.08-.54c1.22-.86,1.65-1.75,1.27-2.65q1,1.17,3.3-.6t1.43-3.53a4.35,4.35,0,0,1,2.44.46,6.62,6.62,0,0,1,1.61,1.44A2.94,2.94,0,0,1,272.23,73.1Z"/><path class="cls-10" d="M272.53,66.94a6.9,6.9,0,0,1-1.78.12,6.78,6.78,0,0,1-1.38-.31,6,6,0,0,1-1.23-.66,4.22,4.22,0,0,0,.74-4c-.43-1.43-1.14-2.12-2.14-2.06,1-.4,1.13-1.49.48-3.28s-1.63-2.61-2.92-2.48a4.46,4.46,0,0,1,1.17-2.17A7.35,7.35,0,0,1,267.35,51a2.94,2.94,0,0,1,3.37.53,4.76,4.76,0,0,1,.73,1.48,7.24,7.24,0,0,1,.25,1.87,13.1,13.1,0,0,0,.73,3.26,14.06,14.06,0,0,0,1.38,3.17,8.4,8.4,0,0,1,.9,1.7,4.81,4.81,0,0,1,.25,1.56A2.86,2.86,0,0,1,272.53,66.94Z"/><path class="cls-10" d="M312.5,52a5,5,0,0,0-3.07-.45,6,6,0,0,0-3.14,1.71,11.76,11.76,0,0,0-2.5,4.06,10.24,10.24,0,0,0-.52,1.78A12,12,0,0,0,303,60.7c0,.28-.06.66-.08,1.07h-1.33v-.1c0-.56.08-1.13.16-1.7l0-.24c0-.13.05-.26.07-.39.1-.5.22-1,.36-1.49a57.08,57.08,0,0,1,2.37-5.4,9.08,9.08,0,0,0,.79-3.63,11,11,0,0,0-1.74-5.49,28.19,28.19,0,0,0-3.6-4.37H300a28.19,28.19,0,0,0-3.6,4.37,11,11,0,0,0-1.73,5.49,9.07,9.07,0,0,0,.78,3.63,52.36,52.36,0,0,1,2.37,5.4c.14.49.27,1,.36,1.49,0,.13.05.26.07.39l0,.24c.08.57.14,1.14.17,1.7v.1h-1.34c0-.41-.05-.79-.08-1.07a13.69,13.69,0,0,0-.23-1.58,10.36,10.36,0,0,0-.53-1.78,11.6,11.6,0,0,0-2.5-4.06,6,6,0,0,0-3.14-1.71,5,5,0,0,0-3.07.45,4.88,4.88,0,0,0-2.69,5,4.26,4.26,0,0,0,.17.82,5.06,5.06,0,0,0,1.64,2.34,4.15,4.15,0,0,0,2.73.82s-2-1.93-.52-3.78a2.83,2.83,0,0,1,3.06-.81,5.7,5.7,0,0,1,2.9,3.49,6.05,6.05,0,0,1,.33,1.6h0c0,.07,0,.16,0,.26h-.71a1,1,0,0,0,0,2.06h.69a4.13,4.13,0,0,1-.28,1.11,3.87,3.87,0,0,1-.87,1.4,1.85,1.85,0,0,1-2.21.18,1.69,1.69,0,0,1-.62-1.58V64.8a1,1,0,0,0-.46.14,2.64,2.64,0,0,0,.45,4.61,3.49,3.49,0,0,0,3.56-.6,5.43,5.43,0,0,0,1.32-1.64,10.29,10.29,0,0,0,.91-2.37,6.42,6.42,0,0,0,.16-1.11h1.28a9.9,9.9,0,0,1-.47,2.63c-.18.54-.89,2-1,2.54A7.31,7.31,0,0,0,298,74.49a14.61,14.61,0,0,0,2,2.44v0h.06v0a15.08,15.08,0,0,0,2-2.44A7.31,7.31,0,0,0,303.14,69c-.14-.58-.84-2-1-2.54a9.53,9.53,0,0,1-.48-2.63h1.28a7,7,0,0,0,.17,1.11,10.74,10.74,0,0,0,.9,2.37A5.58,5.58,0,0,0,305.31,69a3.5,3.5,0,0,0,3.56.6,2.63,2.63,0,0,0,.45-4.61,1,1,0,0,0-.45-.14v.14a1.7,1.7,0,0,1-.63,1.58,1.86,1.86,0,0,1-2.21-.18,3.87,3.87,0,0,1-.87-1.4,4.66,4.66,0,0,1-.28-1.11h.69a1,1,0,0,0,0-2.06h-.71c0-.1,0-.19,0-.26h0a6.17,6.17,0,0,1,.34-1.6,5.71,5.71,0,0,1,2.89-3.49,2.85,2.85,0,0,1,3.07.81c1.42,1.85-.52,3.78-.52,3.78a4.16,4.16,0,0,0,2.73-.82A5.14,5.14,0,0,0,315,57.85a4.26,4.26,0,0,0,.17-.82A4.88,4.88,0,0,0,312.5,52Z"/><path class="cls-10" d="M68.15,236.29a7.23,7.23,0,0,0-5.57-2.61c-5.46,0-9.09,4.18-9.09,9.46,0,5.64,3.63,9.83,9.09,9.83a7.42,7.42,0,0,0,5.94-3.22l3.89,2.77a11.71,11.71,0,0,1-9.87,4.71c-8.15,0-14-5.53-14-13.8,0-8.48,5.83-14,14-14a11.52,11.52,0,0,1,9.27,4.18Z"/><path class="cls-10" d="M84.94,230.09H89l11.41,26.47H95l-2.46-6.06H81.09l-2.39,6.06H73.43Zm6,16.37L86.85,235.7,82.7,246.46Z"/><path class="cls-10" d="M103.57,230.09h7.18l7.06,18.54L125,230.09h7.11v26.47h-4.49v-22h-.07l-8,22h-3.29l-8-22h-.07v22h-4.49Z"/><path class="cls-10" d="M138.05,230.09h10.31c4,0,8.12,1.83,8.12,6.65,0,3-1.87,5-4.6,5.8v.07A6.3,6.3,0,0,1,157.6,249c0,5.76-5,7.56-10,7.56h-9.53Zm4.71,10.77h4.3c3.14,0,4.71-1.35,4.71-3.33,0-2.28-1.57-3.4-5.13-3.4h-3.88Zm0,11.66h4.33c2.43,0,5.8-.41,5.8-3.89,0-2.76-1.8-3.74-5.61-3.74h-4.52Z"/><path class="cls-10" d="M162.22,230.09h9.19c5.09,0,9.87,1.64,9.87,7.59a6.79,6.79,0,0,1-6.13,7.18l7,11.7H176.5l-6.13-11.22h-3.44v11.22h-4.71Zm8.37,11.21c2.66,0,5.76-.22,5.76-3.66,0-3.14-2.92-3.51-5.35-3.51h-4.07v7.17Z"/><path class="cls-10" d="M185.79,230.09h4.71v26.47h-4.71Z"/><path class="cls-10" d="M196.3,230.09h10.43c7,0,13.46,4.26,13.46,13.23s-7.66,13.24-14,13.24H196.3Zm8.23,22.2c5.91,0,10.73-2.54,10.73-9s-4.19-9-9.95-9H201v17.94Z"/><path class="cls-10" d="M248.28,254.61a22.89,22.89,0,0,1-10.95,2.62c-8.15,0-14-5.53-14-13.8,0-8.48,5.83-14,14-14,4,0,7.66.86,10.43,3.32l-3.48,3.52a10,10,0,0,0-6.91-2.58c-5.46,0-9.09,4.18-9.09,9.46,0,5.64,3.63,9.83,9.09,9.83a12.6,12.6,0,0,0,6.2-1.39v-6.24h-5.42v-4.26h10.13Z"/><path class="cls-10" d="M253.86,230.09h17.53v4.26H258.57v6.51h12.15v4.26H258.57v7.17h13.49v4.27h-18.2Z"/><path class="cls-10" d="M288.51,230.09h9.2c5.08,0,9.87,1.64,9.87,7.59a6.8,6.8,0,0,1-6.13,7.18l7,11.7h-5.69l-6.13-11.22h-3.44v11.22h-4.71Zm8.38,11.21c2.65,0,5.75-.22,5.75-3.66,0-3.14-2.91-3.51-5.34-3.51h-4.08v7.17Z"/><path class="cls-10" d="M324.44,229.42c8.26-.15,14.09,5.38,14.09,13.87,0,8.26-5.83,13.79-14.09,13.94-8.15,0-14-5.53-14-13.8C310.46,235,316.29,229.42,324.44,229.42Zm0,23.55c5.49,0,9.12-4.19,9.12-9.83,0-5.28-3.63-9.46-9.12-9.46s-9.09,4.18-9.09,9.46C315.39,248.78,319,253,324.48,253Z"/><path class="cls-10" d="M339.56,230.09h5.16l5,19.06h.07l5.95-19.06h4.63l5.84,19.06h.07l5.2-19.06h4.78l-7.7,26.47H364l-6.13-20.15h-.07l-6.13,20.15h-4.34Z"/><path class="cls-10" d="M379.3,230.09H384v26.47H379.3Z"/><path class="cls-10" d="M389.81,230.09h6.24l12.82,19.66.08.08h-.08l.08-.08V230.09h4.71v26.47h-6l-13.09-20.3h-.07v20.3h-4.71Z"/><path class="cls-10" d="M443.15,254.61a22.93,22.93,0,0,1-11,2.62c-8.15,0-14-5.53-14-13.8,0-8.48,5.83-14,14-14,4,0,7.67.86,10.43,3.32l-3.47,3.52a10,10,0,0,0-6.92-2.58c-5.46,0-9.08,4.18-9.08,9.46,0,5.64,3.62,9.83,9.08,9.83a12.67,12.67,0,0,0,6.21-1.39v-6.24H433v-4.26h10.13Z"/><path class="cls-10" d="M478.7,236.29a7.23,7.23,0,0,0-5.57-2.61c-5.46,0-9.09,4.18-9.09,9.46,0,5.64,3.63,9.83,9.09,9.83a7.42,7.42,0,0,0,5.94-3.22l3.89,2.77a11.71,11.71,0,0,1-9.87,4.71c-8.15,0-14-5.53-14-13.8,0-8.48,5.83-14,14-14a11.52,11.52,0,0,1,9.27,4.18Z"/><path class="cls-10" d="M486.15,230.09h4.71v22.2h11.25v4.27h-16Z"/><path class="cls-10" d="M526.1,246.84c0,6.39-4.6,10.39-10.66,10.39s-10.65-4-10.65-10.39V230.09h4.71v16.6c0,2.61,1.42,6.05,5.94,6.05s5.95-3.44,5.95-6.05v-16.6h4.71Z"/><path class="cls-10" d="M531.89,230.09h10.32c4,0,8.11,1.83,8.11,6.65,0,3-1.87,5-4.6,5.8v.07a6.3,6.3,0,0,1,5.72,6.39c0,5.76-5,7.56-10,7.56h-9.53Zm4.71,10.77h4.3c3.14,0,4.71-1.35,4.71-3.33,0-2.28-1.57-3.4-5.12-3.4H536.6Zm0,11.66h4.34c2.43,0,5.79-.41,5.79-3.89,0-2.76-1.79-3.74-5.61-3.74H536.6Z"/><path class="cls-6" d="M269.05,278v1.21h-5.16v4.36h5.16v1.19h-6.37V272.5h6.37v1.21h-5.16V278Z"/><path class="cls-6" d="M272.15,281.26a2.27,2.27,0,0,0,2.25,2.49,2.25,2.25,0,0,0,2.32-2.49c0-1.77-1.17-2.05-2.88-2.62s-2.53-1.43-2.53-3a3.16,3.16,0,0,1,3.28-3.33c1.81,0,3,1.15,3.08,3.24h-1.14c-.12-1.34-.82-2.09-1.94-2.09a2,2,0,0,0-2.07,2.11,1.67,1.67,0,0,0,.72,1.46,12.1,12.1,0,0,0,2.45,1,3,3,0,0,1,2.24,3.07c0,2.34-1.38,4-3.55,4-2,0-3.36-1.5-3.4-3.75Z"/><path class="cls-6" d="M281.75,284.76V273.71H279.3V272.5h6.1v1.21H283v11.05Z"/><path class="cls-6" d="M287.2,279.64V272.5h2.3a3.4,3.4,0,0,1,3.58,3.6,3.47,3.47,0,0,1-1.43,2.91,3.79,3.79,0,0,1-2.44.63Zm2.26-.95a2.4,2.4,0,0,0,2.58-2.58,2.48,2.48,0,0,0-2.77-2.63H288.2v5.21Z"/><path class="cls-6" d="M303.48,284.76v-11.2h-2.14V272.5h3.42v12.26Z"/><path class="cls-6" d="M309.56,275.5a3.32,3.32,0,0,1,3.35-3.24,3.28,3.28,0,0,1,3.4,3.16,2.73,2.73,0,0,1-1.37,2.5,3.32,3.32,0,0,1,1.92,3.1,3.93,3.93,0,1,1-7.85.09,3.46,3.46,0,0,1,1.86-3.19A2.78,2.78,0,0,1,309.56,275.5Zm3.3,8.45a2.67,2.67,0,0,0,2.76-2.76,2.69,2.69,0,1,0-5.38.06A2.62,2.62,0,0,0,312.86,284Zm0-6.58c1.48,0,2.27-.73,2.27-2a2,2,0,0,0-2.17-2,2,2,0,0,0-2.19,2A2,2,0,0,0,312.86,277.37Z"/><path class="cls-6" d="M325,272.5l-2.86,4.44a5.37,5.37,0,0,1,1.33-.19,3.85,3.85,0,0,1,3.85,4.08,4.07,4.07,0,0,1-4.2,4.18,4,4,0,0,1-4.13-4c0-1.6.84-2.76,1.74-4.16l2.77-4.31Zm-4.76,8.35a3,3,0,0,0,3,3.09,3.07,3.07,0,0,0,0-6.13A3,3,0,0,0,320.27,280.85Z"/><path class="cls-6" d="M330.71,281.14a2.65,2.65,0,0,0,2.62,2.81,2.68,2.68,0,0,0,2.76-2.82c0-1.87-1.1-2.87-3.24-2.87a5.62,5.62,0,0,0-.57,0v-1a4.88,4.88,0,0,0,.53,0c1.62,0,2.44-.67,2.44-2a1.89,1.89,0,1,0-3.78.1h-1.12a3,3,0,0,1,3.12-3.12,3,3,0,0,1,3,3,2.62,2.62,0,0,1-1.19,2.28,3.61,3.61,0,0,1,2,3.44,3.88,3.88,0,0,1-3.92,4,3.67,3.67,0,0,1-3.91-4h1.22Z"/><rect class="cls-6" x="289.36" y="281.6" width="1.01" height="5.33" transform="translate(5.6 574.12) rotate(-90)"/><path class="cls-10" d="M271.73,207.71a4.05,4.05,0,0,0-1.6-1.31,4.68,4.68,0,0,0-2-.43,4.9,4.9,0,0,0-2.2.49,5.29,5.29,0,0,0-1.73,1.3,5.92,5.92,0,0,0-1.14,1.91,6.35,6.35,0,0,0-.4,2.25,6.61,6.61,0,0,0,.4,2.34,5.76,5.76,0,0,0,1.13,1.89,5.28,5.28,0,0,0,1.72,1.26,5.53,5.53,0,0,0,4.57,0,5.29,5.29,0,0,0,1.8-1.48l1.28,1.07a5.91,5.91,0,0,1-2.34,1.9,7.44,7.44,0,0,1-3.09.61,7.26,7.26,0,0,1-2.88-.57,7,7,0,0,1-2.32-1.57,7.29,7.29,0,0,1-1.54-2.38,8.52,8.52,0,0,1,0-6,7.14,7.14,0,0,1,6.76-4.58,7.41,7.41,0,0,1,2.8.53,5.08,5.08,0,0,1,2.26,1.72Z"/><path class="cls-10" d="M276.37,204.75h1.71V219.1h-1.71Z"/><path class="cls-10" d="M292.15,206.33h-4.74V219.1h-1.7V206.33H281v-1.58h11.18Z"/><path class="cls-10" d="M299.1,212.92l-5.35-8.17h2.17l4,6.49,4.16-6.49h2l-5.35,8.17v6.18h-1.7Z"/><path class="cls-10" d="M319,219.46a7.72,7.72,0,0,1-3-.57,7.11,7.11,0,0,1-2.37-1.57,7,7,0,0,1-1.56-2.39,8.34,8.34,0,0,1,0-6,6.88,6.88,0,0,1,1.56-2.39A7.11,7.11,0,0,1,316,205a8.21,8.21,0,0,1,6,0,7,7,0,0,1,3.93,4,8.34,8.34,0,0,1,0,6,7,7,0,0,1-3.93,4A7.71,7.71,0,0,1,319,219.46Zm0-1.58a5.55,5.55,0,0,0,4.09-1.74,5.65,5.65,0,0,0,1.16-1.9,6.33,6.33,0,0,0,.42-2.32,6.41,6.41,0,0,0-.42-2.32,5.7,5.7,0,0,0-1.16-1.89,5.62,5.62,0,0,0-8.19,0,5.87,5.87,0,0,0-1.16,1.89,6.41,6.41,0,0,0-.42,2.32,6.33,6.33,0,0,0,.42,2.32,5.81,5.81,0,0,0,1.16,1.9,5.55,5.55,0,0,0,4.1,1.74Z"/><path class="cls-10" d="M330.25,204.75h8.89v1.58H332v4.74h6.69v1.58H332v6.45h-1.7Z"/></g></svg>