<svg xmlns="http://www.w3.org/2000/svg" xmlns:xlink="http://www.w3.org/1999/xlink" viewBox="0 0 120 120"><defs><style>.cls-1,.cls-8{fill:none;}.cls-2,.cls-5{fill:#7e2d40;}.cls-14,.cls-2,.cls-8{stroke:#fff;stroke-miterlimit:10;}.cls-2,.cls-8{stroke-width:1.48px;}.cls-3{clip-path:url(#clip-path);}.cls-4{fill:#b8bfc9;}.cls-6{clip-path:url(#clip-path-2);}.cls-7{fill:#36749d;fill-rule:evenodd;}.cls-9{fill:#13294b;}.cls-10{clip-path:url(#clip-path-3);}.cls-11{fill:#5a6981;}.cls-12{clip-path:url(#clip-path-4);}.cls-13{fill:#daaa00;}.cls-14,.cls-15{fill:#fff;}.cls-14{stroke-width:0.6px;}</style><clipPath id="clip-path"><rect class="cls-1" x="148.06" y="-0.9" width="121.62" height="121.62"/></clipPath><clipPath id="clip-path-2"><path class="cls-2" d="M163.05,11.73V83.5a11.53,11.53,0,0,0,9.44,11.34l26.61,4.9a13.53,13.53,0,0,1,10.08,8.16h0a13.53,13.53,0,0,1,10.08-8.16l26.61-4.9a11.53,11.53,0,0,0,9.44-11.34V11.73Z"/></clipPath><clipPath id="clip-path-3"><rect class="cls-1" x="-0.94" y="-0.9" width="121.62" height="121.62"/></clipPath><clipPath id="clip-path-4"><path class="cls-2" d="M14.05,11.73V83.5a11.53,11.53,0,0,0,9.44,11.34l26.61,4.9a13.53,13.53,0,0,1,10.08,8.16h0a13.53,13.53,0,0,1,10.08-8.16l26.61-4.9a11.53,11.53,0,0,0,9.44-11.34V11.73Z"/></clipPath></defs><title>CCRC Logo Master RGB</title><g id="Layer_5" data-name="Layer 5"><g class="cls-3"><path class="cls-4" d="M331.52,99.35l-4.77-15.59a1.54,1.54,0,0,0-2-1l-38.24,12.7-.58.44-7.67.7-69.09,9.57-69.08-9.57-7.67-.7-.59-.44L93.64,82.75a1.54,1.54,0,0,0-2,1L86.91,99.35a1.1,1.1,0,0,0,.87,1.42l28,4.7a1.53,1.53,0,0,0,1.37-.46,18.45,18.45,0,0,1,14.14-5.52l.69-.27,7.58,1.42,54.76,7.58-67.54,9.34-16.6,3,.38,2.72,16.78-1.65,81.86-11.33,81.87,11.33,16.78,1.65h0l.22.27,12.17,1.19.45-.35.2-1.43-.34-.47-12-2.16-.28.2v0l-16.6-3-67.54-9.34,54.76-7.58,7.57-1.42.7.27A18.47,18.47,0,0,1,301.27,105a1.52,1.52,0,0,0,1.37.46l28-4.7A1.1,1.1,0,0,0,331.52,99.35Z"/></g><path class="cls-5" d="M163.05,11.73V83.5a11.53,11.53,0,0,0,9.44,11.34l26.61,4.9a13.53,13.53,0,0,1,10.08,8.16h0a13.53,13.53,0,0,1,10.08-8.16l26.61-4.9a11.53,11.53,0,0,0,9.44-11.34V11.73Z"/><g class="cls-6"><path class="cls-7" d="M280.3,81.81c-5.86,0-11.75,3.53-17.64,3.53S251,81.81,245,81.81s-11.87,3.53-17.63,3.53c-5.94,0-11.84-3.53-17.64-3.53-6,0-11.81,3.53-17.63,3.53-6,0-11.93-3.53-17.61-3.53-6.1,0-12,3.53-17.66,3.53-6.17,0-12.07-3.53-17.64-3.53-6.3,0-12.25,3.53-17.63,3.53-6.77,0-12.61-3.53-17.63-3.53v1.26c5,0,11,3.53,17.63,3.53,5.38,0,11.33-3.53,17.63-3.53,5.58,0,11.45,3.53,17.64,3.53,5.67,0,11.52-3.53,17.61-3.53,5.75,0,11.61,3.53,17.66,3.53,5.76,0,11.66-3.53,17.63-3.53s11.65,3.53,17.64,3.53c5.76,0,11.75-3.53,17.6-3.53s11.8,3.53,17.66,3.53,11.88-3.53,17.82-3.53,11.63,3.53,17.45,3.53,11.86-3.53,17.64-3.53V81.81c-5.72,0-11.78,3.53-17.64,3.53S286.26,81.81,280.3,81.81Z"/><path class="cls-7" d="M280.3,95.92c-5.86,0-11.75,3.53-17.64,3.53S251,95.92,245,95.92s-11.87,3.53-17.63,3.53c-5.94,0-11.84-3.53-17.64-3.53-6,0-11.81,3.53-17.63,3.53-6,0-11.93-3.53-17.61-3.53-6.1,0-12,3.53-17.66,3.53-6.17,0-12.07-3.53-17.64-3.53-6.3,0-12.25,3.53-17.63,3.53-6.77,0-12.61-3.53-17.63-3.53v1.26c5,0,11,3.53,17.63,3.53,5.38,0,11.33-3.53,17.63-3.53,5.58,0,11.45,3.53,17.64,3.53,5.67,0,11.52-3.53,17.61-3.53,5.75,0,11.61,3.53,17.66,3.53,5.76,0,11.66-3.53,17.63-3.53s11.65,3.53,17.64,3.53c5.76,0,11.75-3.53,17.6-3.53s11.8,3.53,17.66,3.53,11.88-3.53,17.82-3.53,11.63,3.53,17.45,3.53,11.86-3.53,17.64-3.53V95.92c-5.72,0-11.78,3.53-17.64,3.53S286.26,95.92,280.3,95.92Z"/><path class="cls-7" d="M280.3,105.33c-5.86,0-11.75,3.52-17.64,3.52S251,105.33,245,105.33s-11.87,3.52-17.63,3.52c-5.94,0-11.84-3.52-17.64-3.52-6,0-11.81,3.52-17.63,3.52-6,0-11.93-3.52-17.61-3.52-6.1,0-12,3.52-17.66,3.52-6.17,0-12.07-3.52-17.64-3.52-6.3,0-12.25,3.52-17.63,3.52-6.77,0-12.61-3.52-17.63-3.52v1.26c5,0,11,3.53,17.63,3.53,5.38,0,11.33-3.53,17.63-3.53,5.58,0,11.45,3.53,17.64,3.53,5.67,0,11.52-3.53,17.61-3.53,5.75,0,11.61,3.53,17.66,3.53,5.76,0,11.66-3.53,17.63-3.53s11.65,3.53,17.64,3.53c5.76,0,11.75-3.53,17.6-3.53s11.8,3.53,17.66,3.53,11.88-3.53,17.82-3.53,11.63,3.53,17.45,3.53,11.86-3.53,17.64-3.53v-1.26c-5.72,0-11.78,3.52-17.64,3.52S286.26,105.33,280.3,105.33Z"/><path class="cls-7" d="M280.3,86.51c-5.86,0-11.75,3.53-17.64,3.53S251,86.51,245,86.51,233.16,90,227.4,90c-5.94,0-11.84-3.53-17.64-3.53-6,0-11.81,3.53-17.63,3.53-6,0-11.93-3.53-17.61-3.53-6.1,0-12,3.53-17.66,3.53-6.17,0-12.07-3.53-17.64-3.53-6.3,0-12.25,3.53-17.63,3.53C114.82,90,109,86.52,104,86.51v1.27c5,0,11,3.52,17.63,3.52,5.38,0,11.33-3.52,17.63-3.52,5.58,0,11.45,3.52,17.64,3.52,5.67,0,11.52-3.52,17.61-3.52,5.75,0,11.61,3.52,17.66,3.52,5.76,0,11.66-3.52,17.63-3.52s11.65,3.52,17.64,3.52c5.76,0,11.75-3.52,17.6-3.52s11.8,3.52,17.66,3.52,11.88-3.52,17.82-3.52,11.63,3.52,17.45,3.52,11.86-3.52,17.64-3.52V86.51c-5.72,0-11.78,3.53-17.64,3.53S286.26,86.51,280.3,86.51Z"/><path class="cls-7" d="M280.3,110c-5.86,0-11.75,3.53-17.64,3.53S251,110,245,110s-11.87,3.53-17.63,3.53c-5.94,0-11.84-3.53-17.64-3.53-6,0-11.81,3.53-17.63,3.53-6,0-11.93-3.53-17.61-3.53-6.1,0-12,3.53-17.66,3.53-6.17,0-12.07-3.53-17.64-3.53-6.3,0-12.25,3.53-17.63,3.53C114.82,113.56,109,110,104,110v1.26c5,0,11,3.53,17.63,3.53,5.38,0,11.33-3.53,17.63-3.53,5.58,0,11.45,3.53,17.64,3.53,5.67,0,11.52-3.53,17.61-3.53,5.75,0,11.61,3.53,17.66,3.53,5.76,0,11.66-3.53,17.63-3.53s11.65,3.53,17.64,3.53c5.76,0,11.75-3.53,17.6-3.53s11.8,3.53,17.66,3.53,11.88-3.53,17.82-3.53,11.63,3.53,17.45,3.53,11.86-3.53,17.64-3.53V110c-5.72,0-11.78,3.53-17.64,3.53S286.26,110,280.3,110Z"/><path class="cls-7" d="M280.3,91.22c-5.86,0-11.75,3.52-17.64,3.52S251,91.22,245,91.22s-11.87,3.52-17.63,3.52c-5.94,0-11.84-3.52-17.64-3.52-6,0-11.81,3.52-17.63,3.52-6,0-11.93-3.52-17.61-3.52-6.1,0-12,3.52-17.66,3.52-6.17,0-12.07-3.52-17.64-3.52-6.3,0-12.25,3.52-17.63,3.52-6.77,0-12.61-3.52-17.63-3.52v1.26c5,0,11,3.53,17.63,3.53,5.38,0,11.33-3.53,17.63-3.53,5.58,0,11.45,3.53,17.64,3.53,5.67,0,11.52-3.53,17.61-3.53,5.75,0,11.61,3.53,17.66,3.53,5.76,0,11.66-3.53,17.63-3.53S221.41,96,227.4,96c5.76,0,11.75-3.53,17.6-3.53S256.8,96,262.66,96s11.88-3.53,17.82-3.53S292.11,96,297.93,96s11.86-3.53,17.64-3.53V91.22c-5.72,0-11.78,3.52-17.64,3.52S286.26,91.22,280.3,91.22Z"/><path class="cls-7" d="M280.3,100.62c-5.86,0-11.75,3.53-17.64,3.53S251,100.62,245,100.62s-11.87,3.53-17.63,3.53c-5.94,0-11.84-3.53-17.64-3.53-6,0-11.81,3.53-17.63,3.53-6,0-11.93-3.53-17.61-3.53-6.1,0-12,3.53-17.66,3.53-6.17,0-12.07-3.53-17.64-3.53-6.3,0-12.25,3.53-17.63,3.53-6.77,0-12.61-3.52-17.63-3.53v1.27c5,0,11,3.52,17.63,3.52,5.38,0,11.33-3.52,17.63-3.52,5.58,0,11.45,3.52,17.64,3.52,5.67,0,11.52-3.52,17.61-3.52,5.75,0,11.61,3.52,17.66,3.52,5.76,0,11.66-3.52,17.63-3.52s11.65,3.52,17.64,3.52c5.76,0,11.75-3.52,17.6-3.52s11.8,3.52,17.66,3.52,11.88-3.52,17.82-3.52,11.63,3.52,17.45,3.52,11.86-3.52,17.64-3.52v-1.27c-5.72,0-11.78,3.53-17.64,3.53S286.26,100.62,280.3,100.62Z"/><path class="cls-7" d="M280.3,114.73c-5.86,0-11.75,3.53-17.64,3.53S251,114.73,245,114.73s-11.87,3.53-17.63,3.53c-5.94,0-11.84-3.53-17.64-3.53-6,0-11.81,3.53-17.63,3.53-6,0-11.93-3.53-17.61-3.53-6.1,0-12,3.53-17.66,3.53-6.17,0-12.07-3.53-17.64-3.53-6.3,0-12.25,3.53-17.63,3.53-6.77,0-12.61-3.52-17.63-3.53V116c5,0,11,3.52,17.63,3.52,5.38,0,11.33-3.52,17.63-3.52,5.58,0,11.45,3.52,17.64,3.52,5.67,0,11.52-3.52,17.61-3.52,5.75,0,11.61,3.52,17.66,3.52,5.76,0,11.66-3.52,17.63-3.52s11.65,3.52,17.64,3.52c5.76,0,11.75-3.52,17.6-3.52s11.8,3.52,17.66,3.52S274.54,116,280.48,116s11.63,3.52,17.45,3.52S309.79,116,315.57,116v-1.27c-5.72,0-11.78,3.53-17.64,3.53S286.26,114.73,280.3,114.73Z"/><path class="cls-7" d="M280.3,119.44c-5.86,0-11.75,3.52-17.64,3.52S251,119.44,245,119.44,233.16,123,227.4,123c-5.94,0-11.84-3.52-17.64-3.52-6,0-11.81,3.52-17.63,3.52-6,0-11.93-3.52-17.61-3.52-6.1,0-12,3.52-17.66,3.52-6.17,0-12.07-3.52-17.64-3.52-6.3,0-12.25,3.52-17.63,3.52-6.77,0-12.61-3.52-17.63-3.52v1.26c5,0,11,3.53,17.63,3.53,5.38,0,11.33-3.53,17.63-3.53,5.58,0,11.45,3.53,17.64,3.53,5.67,0,11.52-3.53,17.61-3.53,5.75,0,11.61,3.53,17.66,3.53,5.76,0,11.66-3.53,17.63-3.53s11.65,3.53,17.64,3.53c5.76,0,11.75-3.53,17.6-3.53s11.8,3.53,17.66,3.53,11.88-3.53,17.82-3.53,11.63,3.53,17.45,3.53,11.86-3.53,17.64-3.53v-1.26c-5.72,0-11.78,3.52-17.64,3.52S286.26,119.44,280.3,119.44Z"/><path class="cls-7" d="M280.3,77.11c-5.86,0-11.75,3.52-17.64,3.52S251,77.11,245,77.11s-11.87,3.52-17.63,3.52c-5.94,0-11.84-3.52-17.64-3.52-6,0-11.81,3.52-17.63,3.52-6,0-11.93-3.52-17.61-3.52-6.1,0-12,3.52-17.66,3.52-6.17,0-12.07-3.52-17.64-3.52-6.3,0-12.25,3.52-17.63,3.52-6.77,0-12.61-3.52-17.63-3.52v1.26c5,0,11,3.53,17.63,3.53,5.38,0,11.33-3.53,17.63-3.53,5.58,0,11.45,3.53,17.64,3.53,5.67,0,11.52-3.53,17.61-3.53,5.75,0,11.61,3.53,17.66,3.53,5.76,0,11.66-3.53,17.63-3.53s11.65,3.53,17.64,3.53c5.76,0,11.75-3.53,17.6-3.53s11.8,3.53,17.66,3.53,11.88-3.53,17.82-3.53,11.63,3.53,17.45,3.53,11.86-3.53,17.64-3.53V77.11c-5.72,0-11.78,3.52-17.64,3.52S286.26,77.11,280.3,77.11Z"/></g><path class="cls-8" d="M163.05,11.73V83.5a11.53,11.53,0,0,0,9.44,11.34l26.61,4.9a13.53,13.53,0,0,1,10.08,8.16h0a13.53,13.53,0,0,1,10.08-8.16l26.61-4.9a11.53,11.53,0,0,0,9.44-11.34V11.73Z"/><rect class="cls-9" x="-0.94" y="-0.9" width="121.62" height="121.62"/><g class="cls-10"><path class="cls-11" d="M182.52,99.35l-4.77-15.59a1.54,1.54,0,0,0-2-1l-38.24,12.7-.58.44-7.67.7-69.09,9.57L-8.87,96.59l-7.67-.7-.59-.44-38.23-12.7a1.54,1.54,0,0,0-2,1l-4.77,15.59a1.1,1.1,0,0,0,.87,1.42l28,4.7a1.53,1.53,0,0,0,1.37-.46A18.45,18.45,0,0,1-17.7,99.49l.69-.27,7.58,1.42,54.76,7.58-67.54,9.34-16.6,3,.38,2.72,16.78-1.65,81.86-11.33,81.87,11.33,16.78,1.65h0l.22.27,12.17,1.19.45-.35.2-1.43-.34-.47-12-2.16-.28.2v0l-16.6-3L75.1,108.22l54.76-7.58,7.57-1.42.7.27A18.47,18.47,0,0,1,152.27,105a1.52,1.52,0,0,0,1.37.46l28-4.7A1.1,1.1,0,0,0,182.52,99.35Z"/></g><path class="cls-5" d="M14.05,11.73V83.5a11.53,11.53,0,0,0,9.44,11.34l26.61,4.9a13.53,13.53,0,0,1,10.08,8.16h0a13.53,13.53,0,0,1,10.08-8.16l26.61-4.9a11.53,11.53,0,0,0,9.44-11.34V11.73Z"/><g class="cls-12"><rect class="cls-9" x="14.05" y="64.37" width="92.26" height="45.07"/><path class="cls-13" d="M60.61,49.28c18.32,0,35.16,2.74,49.05,7.48-.73,6.82-1.6,13.92-2.63,20.56-12.2-5.41-29-8.51-46.42-8.51-17.73,0-34.93,3.23-47.19,8.85l-1.16.54c-1-6.66-1.94-13.83-2.69-20.75C23.83,52.29,41.4,49.28,60.61,49.28Z"/><path class="cls-13" d="M5.69,59.82,5.1,53.9a1.15,1.15,0,0,1,.73-1.2l5.18-2q4.77-1.84,9.9-3.31a1.16,1.16,0,0,1,1.47,1.12v5.2"/><path class="cls-13" d="M48.16,49.88V43.29a1.15,1.15,0,0,1,1.13-1.16q6-.12,12.08-.12,4.31,0,8.56.06a1.16,1.16,0,0,1,1.14,1.16V49.8"/><path class="cls-13" d="M96.85,53.38V48a1.16,1.16,0,0,1,1.46-1.12q5,1.35,9.76,3.07l5.31,1.94a1.16,1.16,0,0,1,.76,1.2l-.61,6"/><path class="cls-14" d="M13.65,77.31A93.15,93.15,0,0,1,34.35,71l.28-.06V64.73l-.41.07A104.59,104.59,0,0,0,12.54,71l-.17-.4a92.12,92.12,0,0,1,9.54-3.35l.25-.07V60.75l-.44.12a107.92,107.92,0,0,0-10.46,3.39l-.16-.4A118.82,118.82,0,0,1,34.34,57.7l.29-.05V51.44l-.4.06a133.74,133.74,0,0,0-24.25,6l-.15-.41a122.61,122.61,0,0,1,12.07-3.6l.26-.07v-5a.94.94,0,0,0-.94-.94,1.07,1.07,0,0,0-.25,0c-3.42,1-6.74,2.09-9.88,3.31l-5.18,2a.94.94,0,0,0-.6,1l.56,5.58-.43,0-.56-5.58a1.37,1.37,0,0,1,.87-1.42l5.18-2c3.15-1.22,6.49-2.33,9.92-3.32a1.58,1.58,0,0,1,.38-.05,1.38,1.38,0,0,1,.82.28,1.35,1.35,0,0,1,.55,1.1v4.87l.43-.1a156.12,156.12,0,0,1,24.59-3.72l.32,0V43.29a1.38,1.38,0,0,1,1.35-1.38c3.9-.08,7.88-.12,11.84-.12,2.92,0,5.88,0,8.8.07a1.38,1.38,0,0,1,1.36,1.37v6.18l.33,0a159.26,159.26,0,0,1,24.59,3.39l.42.09V48a1.37,1.37,0,0,1,.54-1.09,1.35,1.35,0,0,1,.83-.29,1.49,1.49,0,0,1,.36,0c3.36.9,6.66,1.94,9.78,3.08l5.32,1.94a1.35,1.35,0,0,1,.89,1.42l-.56,5.69-.44,0,.57-5.69a.93.93,0,0,0-.61-1L108,50.15c-3.1-1.13-6.38-2.17-9.74-3.07l-.24,0a1,1,0,0,0-.57.19.93.93,0,0,0-.37.75v5l.27.07c4.3,1,8.36,2.12,12.06,3.37l-.14.41a137.35,137.35,0,0,0-24.57-5.67l-.4-.06V57.3l.3.05a122.55,122.55,0,0,1,23.94,5.93l-.15.41A113.7,113.7,0,0,0,97.5,60.36l-.43-.11v6.37l.25.07a96.54,96.54,0,0,1,10.35,3.44l-.17.41a108.14,108.14,0,0,0-22.8-6.12l-.41-.06v6.21l.29.05A98.36,98.36,0,0,1,106.8,77l-.17.4C94.49,72.07,77.74,69,60.61,69,43.06,69,26,72.19,13.83,77.71Zm47-14.79a149.38,149.38,0,0,0-25.25,2.09l-.29,0v6.23l.41-.08a143,143,0,0,1,48-.38l.41.06v-6.2l-.3-.05A151.33,151.33,0,0,0,60.61,62.52Zm-13-6a144.88,144.88,0,0,0-24.71,4l-.26.07V67l.44-.13a131.76,131.76,0,0,1,24.58-4.29l.32,0V56.5Zm23.72,5.92.32,0A134.76,134.76,0,0,1,96.2,66.4l.43.11V60.15l-.26-.06a146.55,146.55,0,0,0-24.71-3.7l-.37,0ZM60.61,56c-3.9,0-7.9.15-11.91.44l-.32,0v6.09l.37,0c4-.29,8-.45,11.86-.45,3.29,0,6.61.11,9.87.31l.37,0V56.33l-.32,0C67.23,56.11,63.89,56,60.61,56Zm0-6.51a172.28,172.28,0,0,0-25.24,1.84l-.3,0v6.19l.4-.06a163,163,0,0,1,48-.34l.4,0V51.07l-.3,0A174.15,174.15,0,0,0,60.61,49.5Zm.55-7.27c-3.95,0-7.94,0-11.86.12a.94.94,0,0,0-.92.94V49.5l.37,0c4.22-.28,8.1-.41,11.86-.41,3,0,6.21.09,9.88.3l.36,0V43.23a.94.94,0,0,0-.92-.94C67,42.25,64.08,42.23,61.16,42.23Z"/><path class="cls-7" d="M131.3,81.81c-5.86,0-11.75,3.53-17.64,3.53S102,81.81,96,81.81,84.16,85.34,78.4,85.34c-5.94,0-11.84-3.53-17.64-3.53-6,0-11.81,3.53-17.63,3.53-6,0-11.93-3.53-17.61-3.53-6.1,0-12,3.53-17.66,3.53-6.17,0-12.07-3.53-17.64-3.53-6.3,0-12.25,3.53-17.63,3.53-6.77,0-12.61-3.53-17.63-3.53v1.26c5,0,10.95,3.53,17.63,3.53,5.38,0,11.33-3.53,17.63-3.53,5.58,0,11.45,3.53,17.64,3.53,5.67,0,11.52-3.53,17.61-3.53,5.75,0,11.61,3.53,17.66,3.53,5.76,0,11.66-3.53,17.63-3.53S72.41,86.6,78.4,86.6c5.76,0,11.75-3.53,17.6-3.53s11.8,3.53,17.66,3.53,11.88-3.53,17.82-3.53,11.63,3.53,17.45,3.53,11.86-3.53,17.64-3.53V81.81c-5.72,0-11.78,3.53-17.64,3.53S137.26,81.81,131.3,81.81Z"/><path class="cls-7" d="M131.3,95.92c-5.86,0-11.75,3.53-17.64,3.53S102,95.92,96,95.92,84.16,99.45,78.4,99.45c-5.94,0-11.84-3.53-17.64-3.53-6,0-11.81,3.53-17.63,3.53-6,0-11.93-3.53-17.61-3.53-6.1,0-12,3.53-17.66,3.53-6.17,0-12.07-3.53-17.64-3.53-6.3,0-12.25,3.53-17.63,3.53-6.77,0-12.61-3.53-17.63-3.53v1.26c5,0,10.95,3.53,17.63,3.53,5.38,0,11.33-3.53,17.63-3.53,5.58,0,11.45,3.53,17.64,3.53,5.67,0,11.52-3.53,17.61-3.53,5.75,0,11.61,3.53,17.66,3.53,5.76,0,11.66-3.53,17.63-3.53s11.65,3.53,17.64,3.53c5.76,0,11.75-3.53,17.6-3.53s11.8,3.53,17.66,3.53,11.88-3.53,17.82-3.53,11.63,3.53,17.45,3.53,11.86-3.53,17.64-3.53V95.92c-5.72,0-11.78,3.53-17.64,3.53S137.26,95.92,131.3,95.92Z"/><path class="cls-7" d="M131.3,105.33c-5.86,0-11.75,3.52-17.64,3.52S102,105.33,96,105.33s-11.87,3.52-17.63,3.52c-5.94,0-11.84-3.52-17.64-3.52-6,0-11.81,3.52-17.63,3.52-6,0-11.93-3.52-17.61-3.52-6.1,0-12,3.52-17.66,3.52-6.17,0-12.07-3.52-17.64-3.52-6.3,0-12.25,3.52-17.63,3.52-6.77,0-12.61-3.52-17.63-3.52v1.26c5,0,10.95,3.53,17.63,3.53,5.38,0,11.33-3.53,17.63-3.53,5.58,0,11.45,3.53,17.64,3.53,5.67,0,11.52-3.53,17.61-3.53,5.75,0,11.61,3.53,17.66,3.53,5.76,0,11.66-3.53,17.63-3.53s11.65,3.53,17.64,3.53c5.76,0,11.75-3.53,17.6-3.53s11.8,3.53,17.66,3.53,11.88-3.53,17.82-3.53,11.63,3.53,17.45,3.53,11.86-3.53,17.64-3.53v-1.26c-5.72,0-11.78,3.52-17.64,3.52S137.26,105.33,131.3,105.33Z"/><path class="cls-7" d="M131.3,86.51c-5.86,0-11.75,3.53-17.64,3.53S102,86.51,96,86.51,84.16,90,78.4,90c-5.94,0-11.84-3.53-17.64-3.53C54.72,86.51,49,90,43.13,90c-6,0-11.93-3.53-17.61-3.53-6.1,0-12,3.53-17.66,3.53C1.69,90-4.21,86.51-9.78,86.51-16.08,86.51-22,90-27.41,90-34.18,90-40,86.52-45,86.51v1.27c5,0,10.95,3.52,17.63,3.52,5.38,0,11.33-3.52,17.63-3.52,5.58,0,11.45,3.52,17.64,3.52,5.67,0,11.52-3.52,17.61-3.52,5.75,0,11.61,3.52,17.66,3.52,5.76,0,11.66-3.52,17.63-3.52S72.41,91.3,78.4,91.3c5.76,0,11.75-3.52,17.6-3.52s11.8,3.52,17.66,3.52,11.88-3.52,17.82-3.52,11.63,3.52,17.45,3.52,11.86-3.52,17.64-3.52V86.51c-5.72,0-11.78,3.53-17.64,3.53S137.26,86.51,131.3,86.51Z"/><path class="cls-7" d="M131.3,110c-5.86,0-11.75,3.53-17.64,3.53S102,110,96,110s-11.87,3.53-17.63,3.53c-5.94,0-11.84-3.53-17.64-3.53-6,0-11.81,3.53-17.63,3.53-6,0-11.93-3.53-17.61-3.53-6.1,0-12,3.53-17.66,3.53C1.69,113.56-4.21,110-9.78,110c-6.3,0-12.25,3.53-17.63,3.53C-34.18,113.56-40,110-45,110v1.26c5,0,10.95,3.53,17.63,3.53,5.38,0,11.33-3.53,17.63-3.53,5.58,0,11.45,3.53,17.64,3.53,5.67,0,11.52-3.53,17.61-3.53,5.75,0,11.61,3.53,17.66,3.53,5.76,0,11.66-3.53,17.63-3.53s11.65,3.53,17.64,3.53c5.76,0,11.75-3.53,17.6-3.53s11.8,3.53,17.66,3.53,11.88-3.53,17.82-3.53,11.63,3.53,17.45,3.53,11.86-3.53,17.64-3.53V110c-5.72,0-11.78,3.53-17.64,3.53S137.26,110,131.3,110Z"/><path class="cls-7" d="M131.3,91.22c-5.86,0-11.75,3.52-17.64,3.52S102,91.22,96,91.22,84.16,94.74,78.4,94.74c-5.94,0-11.84-3.52-17.64-3.52-6,0-11.81,3.52-17.63,3.52-6,0-11.93-3.52-17.61-3.52-6.1,0-12,3.52-17.66,3.52-6.17,0-12.07-3.52-17.64-3.52-6.3,0-12.25,3.52-17.63,3.52-6.77,0-12.61-3.52-17.63-3.52v1.26c5,0,10.95,3.53,17.63,3.53,5.38,0,11.33-3.53,17.63-3.53C-4.2,92.48,1.67,96,7.86,96c5.67,0,11.52-3.53,17.61-3.53,5.75,0,11.61,3.53,17.66,3.53,5.76,0,11.66-3.53,17.63-3.53S72.41,96,78.4,96c5.76,0,11.75-3.53,17.6-3.53S107.8,96,113.66,96s11.88-3.53,17.82-3.53S143.11,96,148.93,96s11.86-3.53,17.64-3.53V91.22c-5.72,0-11.78,3.52-17.64,3.52S137.26,91.22,131.3,91.22Z"/><path class="cls-7" d="M131.3,100.62c-5.86,0-11.75,3.53-17.64,3.53S102,100.62,96,100.62s-11.87,3.53-17.63,3.53c-5.94,0-11.84-3.53-17.64-3.53-6,0-11.81,3.53-17.63,3.53-6,0-11.93-3.53-17.61-3.53-6.1,0-12,3.53-17.66,3.53-6.17,0-12.07-3.53-17.64-3.53-6.3,0-12.25,3.53-17.63,3.53-6.77,0-12.61-3.52-17.63-3.53v1.27c5,0,10.95,3.52,17.63,3.52,5.38,0,11.33-3.52,17.63-3.52,5.58,0,11.45,3.52,17.64,3.52,5.67,0,11.52-3.52,17.61-3.52,5.75,0,11.61,3.52,17.66,3.52,5.76,0,11.66-3.52,17.63-3.52s11.65,3.52,17.64,3.52c5.76,0,11.75-3.52,17.6-3.52s11.8,3.52,17.66,3.52,11.88-3.52,17.82-3.52,11.63,3.52,17.45,3.52,11.86-3.52,17.64-3.52v-1.27c-5.72,0-11.78,3.53-17.64,3.53S137.26,100.62,131.3,100.62Z"/><path class="cls-7" d="M131.3,114.73c-5.86,0-11.75,3.53-17.64,3.53S102,114.73,96,114.73s-11.87,3.53-17.63,3.53c-5.94,0-11.84-3.53-17.64-3.53-6,0-11.81,3.53-17.63,3.53-6,0-11.93-3.53-17.61-3.53-6.1,0-12,3.53-17.66,3.53-6.17,0-12.07-3.53-17.64-3.53-6.3,0-12.25,3.53-17.63,3.53-6.77,0-12.61-3.52-17.63-3.53V116c5,0,10.95,3.52,17.63,3.52,5.38,0,11.33-3.52,17.63-3.52,5.58,0,11.45,3.52,17.64,3.52,5.67,0,11.52-3.52,17.61-3.52,5.75,0,11.61,3.52,17.66,3.52,5.76,0,11.66-3.52,17.63-3.52s11.65,3.52,17.64,3.52c5.76,0,11.75-3.52,17.6-3.52s11.8,3.52,17.66,3.52S125.54,116,131.48,116s11.63,3.52,17.45,3.52S160.79,116,166.57,116v-1.27c-5.72,0-11.78,3.53-17.64,3.53S137.26,114.73,131.3,114.73Z"/><path class="cls-7" d="M131.3,119.44c-5.86,0-11.75,3.52-17.64,3.52S102,119.44,96,119.44,84.16,123,78.4,123c-5.94,0-11.84-3.52-17.64-3.52-6,0-11.81,3.52-17.63,3.52-6,0-11.93-3.52-17.61-3.52-6.1,0-12,3.52-17.66,3.52-6.17,0-12.07-3.52-17.64-3.52-6.3,0-12.25,3.52-17.63,3.52-6.77,0-12.61-3.52-17.63-3.52v1.26c5,0,10.95,3.53,17.63,3.53,5.38,0,11.33-3.53,17.63-3.53,5.58,0,11.45,3.53,17.64,3.53,5.67,0,11.52-3.53,17.61-3.53,5.75,0,11.61,3.53,17.66,3.53,5.76,0,11.66-3.53,17.63-3.53s11.65,3.53,17.64,3.53c5.76,0,11.75-3.53,17.6-3.53s11.8,3.53,17.66,3.53,11.88-3.53,17.82-3.53,11.63,3.53,17.45,3.53,11.86-3.53,17.64-3.53v-1.26c-5.72,0-11.78,3.52-17.64,3.52S137.26,119.44,131.3,119.44Z"/><path class="cls-7" d="M131.3,77.11c-5.86,0-11.75,3.52-17.64,3.52S102,77.11,96,77.11,84.16,80.63,78.4,80.63c-5.94,0-11.84-3.52-17.64-3.52-6,0-11.81,3.52-17.63,3.52-6,0-11.93-3.52-17.61-3.52-6.1,0-12,3.52-17.66,3.52-6.17,0-12.07-3.52-17.64-3.52-6.3,0-12.25,3.52-17.63,3.52-6.77,0-12.61-3.52-17.63-3.52v1.26c5,0,10.95,3.53,17.63,3.53,5.38,0,11.33-3.53,17.63-3.53,5.58,0,11.45,3.53,17.64,3.53,5.67,0,11.52-3.53,17.61-3.53,5.75,0,11.61,3.53,17.66,3.53,5.76,0,11.66-3.53,17.63-3.53S72.41,81.9,78.4,81.9c5.76,0,11.75-3.53,17.6-3.53s11.8,3.53,17.66,3.53,11.88-3.53,17.82-3.53,11.63,3.53,17.45,3.53,11.86-3.53,17.64-3.53V77.11c-5.72,0-11.78,3.52-17.64,3.52S137.26,77.11,131.3,77.11Z"/></g><path class="cls-8" d="M14.05,11.73V83.5a11.53,11.53,0,0,0,9.44,11.34l26.61,4.9a13.53,13.53,0,0,1,10.08,8.16h0a13.53,13.53,0,0,1,10.08-8.16l26.61-4.9a11.53,11.53,0,0,0,9.44-11.34V11.73Z"/><path class="cls-15" d="M82.3,19.94a3.23,3.23,0,0,1,1-.14A4.13,4.13,0,0,1,84.4,20a7.93,7.93,0,0,0,2,.17A8.75,8.75,0,0,0,88.49,20a4.87,4.87,0,0,1,1.15-.21,3,3,0,0,1,.93.15,1.73,1.73,0,0,1,.92,1.84,3.45,3.45,0,0,1-.7,1.78,2.93,2.93,0,0,1-.61.58A2.54,2.54,0,0,0,88,23c-.9,0-1.43.27-1.58.84q-.08-.93-1.8-.87c-1.15,0-1.8.44-1.95,1.21a2.62,2.62,0,0,1-1-1.09,3.81,3.81,0,0,1-.28-1.27A1.78,1.78,0,0,1,82.3,19.94Z"/><path class="cls-15" d="M88.79,30.53a1.56,1.56,0,0,1,.2-.64,3.82,3.82,0,0,1,1.33-.57c.7-.23,1.16-.24,1.39-.05a1.16,1.16,0,0,1,.36,1,4.84,4.84,0,0,1-.37,1.68c-.25.66-.47,1.19-.67,1.6a1.13,1.13,0,0,1-.85.69c-.37.07-.79-.19-1.24-.79a3.4,3.4,0,0,1-.7-1.21,1.32,1.32,0,0,1,.2-.65,2,2,0,0,1,.55-.41A2.26,2.26,0,0,1,88.79,30.53Z"/><path class="cls-15" d="M90.17,28.82a3.14,3.14,0,0,1-1.37.29,1.37,1.37,0,0,1-.54-.39,1.4,1.4,0,0,1-.22-.64,3.13,3.13,0,0,1-.68,0,1.49,1.49,0,0,1-.53-.39,3.81,3.81,0,0,1-.13-1.44c0-.74.13-1.18.39-1.34a1.21,1.21,0,0,1,1,0,5.06,5.06,0,0,1,1.49.88,14.88,14.88,0,0,1,1.31,1.12,1.19,1.19,0,0,1,.41,1C91.26,28.25,90.88,28.57,90.17,28.82Z"/><path class="cls-15" d="M84.38,31.55a1.38,1.38,0,0,1,.21.64,3.79,3.79,0,0,1-.73,1.23c-.45.59-.81.88-1.11.86a1.27,1.27,0,0,1-.85-.58,5.24,5.24,0,0,1-.7-1.58,14.62,14.62,0,0,1-.39-1.68,1.2,1.2,0,0,1,.27-1.06c.27-.28.76-.3,1.49-.08a3.71,3.71,0,0,1,1.28.55,1.31,1.31,0,0,1,.2.64,1.47,1.47,0,0,1-.2.66A2.63,2.63,0,0,1,84.38,31.55Z"/><path class="cls-15" d="M84.07,29.08a3.24,3.24,0,0,1-1.4-.31c-.7-.23-1.09-.49-1.17-.79a1.24,1.24,0,0,1,.29-1,5.14,5.14,0,0,1,1.28-1.15A16.42,16.42,0,0,1,84.55,25a1.14,1.14,0,0,1,1.1-.07q.51.24.54,1.38a3.69,3.69,0,0,1-.15,1.4,1.26,1.26,0,0,1-.54.39,1.79,1.79,0,0,1-.69,0,1.73,1.73,0,0,1-.2.62A1.53,1.53,0,0,1,84.07,29.08Z"/><path class="cls-15" d="M75.29,31.06a3.26,3.26,0,0,1,.18-1,3.66,3.66,0,0,1,.54-1,7.9,7.9,0,0,0,.79-1.87,7.73,7.73,0,0,0,.46-2A4.4,4.4,0,0,1,77.41,24a3.37,3.37,0,0,1,.44-.84,1.71,1.71,0,0,1,2-.31,3.84,3.84,0,0,1,.91.58,4,4,0,0,1,.57.64,3.3,3.3,0,0,1,.38.75,2.58,2.58,0,0,0-1.81,1.71c-.28.85-.17,1.43.33,1.75-.61-.14-1.08.34-1.39,1.45s-.13,1.85.55,2.23a2.83,2.83,0,0,1-1.36.66,4.88,4.88,0,0,1-1.3-.15A1.76,1.76,0,0,1,75.29,31.06Z"/><path class="cls-15" d="M86,38.88a4,4,0,0,1-.54,1.2,1.76,1.76,0,0,1-1.83.94,4,4,0,0,1-.88-.48,4.34,4.34,0,0,1-.78-.81,7.4,7.4,0,0,0-1.52-1.33,8,8,0,0,0-1.8-1.08,4.12,4.12,0,0,1-1-.5,3.09,3.09,0,0,1-.68-.67,1.73,1.73,0,0,1,.33-2,3.45,3.45,0,0,1,1.62-1,3.19,3.19,0,0,1,.83-.14,2.59,2.59,0,0,0,1.07,2.24c.72.55,1.31.63,1.77.25-.33.53,0,1.13.94,1.77s1.72.7,2.3.16A2.79,2.79,0,0,1,86,38.88Z"/><path class="cls-15" d="M84.76,35.78a1.19,1.19,0,0,1-.93-.59c-.18-.34,0-.81.38-1.44a3.42,3.42,0,0,1,.93-1,1.3,1.3,0,0,1,.68,0,1.43,1.43,0,0,1,.55.4,1.88,1.88,0,0,1,.54-.39,1.51,1.51,0,0,1,.67,0,3.54,3.54,0,0,1,.94,1.07c.43.61.59,1.05.48,1.33a1.22,1.22,0,0,1-.81.63,5.2,5.2,0,0,1-1.72.17C85.77,35.89,85.2,35.84,84.76,35.78Z"/><path class="cls-15" d="M95.89,36.2a3,3,0,0,1-.72.69,3.73,3.73,0,0,1-1,.5,7.23,7.23,0,0,0-1.73,1,8.11,8.11,0,0,0-1.57,1.38,5,5,0,0,1-.81.83,3.37,3.37,0,0,1-.84.44,1.75,1.75,0,0,1-1.83-.94,3.45,3.45,0,0,1-.38-1,3.14,3.14,0,0,1-.09-.84,3.48,3.48,0,0,1,.14-.83,2.59,2.59,0,0,0,2.46-.32c.73-.52,1-1.06.77-1.6.4.47,1.07.35,2-.36s1.19-1.42.86-2.13a2.67,2.67,0,0,1,1.48.27,4,4,0,0,1,1,.87A1.76,1.76,0,0,1,95.89,36.2Z"/><path class="cls-15" d="M96.08,32.48a3.7,3.7,0,0,1-1.08.07,3.26,3.26,0,0,1-.83-.18,3.67,3.67,0,0,1-.75-.4,2.52,2.52,0,0,0,.45-2.43c-.26-.86-.69-1.27-1.29-1.24.59-.24.68-.9.29-2s-1-1.58-1.76-1.49a2.74,2.74,0,0,1,.7-1.32A4.46,4.46,0,0,1,93,22.86a1.75,1.75,0,0,1,2,.32,2.75,2.75,0,0,1,.44.89,3.82,3.82,0,0,1,.15,1.13,8.2,8.2,0,0,0,.44,2,9.31,9.31,0,0,0,.83,1.92,5,5,0,0,1,.55,1,2.94,2.94,0,0,1,.15.94A1.72,1.72,0,0,1,96.08,32.48Z"/><path class="cls-15" d="M29.83,19.94a3.16,3.16,0,0,1,1-.14,4.19,4.19,0,0,1,1.13.21,7.93,7.93,0,0,0,2,.17A8.75,8.75,0,0,0,36,20a4.78,4.78,0,0,1,1.15-.21,3,3,0,0,1,.93.15A1.73,1.73,0,0,1,39,21.78a3.76,3.76,0,0,1-.27,1,4.34,4.34,0,0,1-.43.73,3.19,3.19,0,0,1-.61.58A2.54,2.54,0,0,0,35.54,23c-.9,0-1.43.27-1.58.84q-.08-.93-1.8-.87c-1.15,0-1.8.44-1.95,1.21a2.66,2.66,0,0,1-1-1.09,4.15,4.15,0,0,1-.27-1.27A1.78,1.78,0,0,1,29.83,19.94Z"/><path class="cls-15" d="M36.32,30.53a1.56,1.56,0,0,1,.2-.64,3.84,3.84,0,0,1,1.32-.57c.71-.23,1.17-.24,1.4-.05a1.16,1.16,0,0,1,.36,1,5.08,5.08,0,0,1-.37,1.68c-.25.66-.47,1.19-.67,1.6a1.13,1.13,0,0,1-.85.69c-.38.07-.79-.19-1.24-.79a3.68,3.68,0,0,1-.71-1.21,1.45,1.45,0,0,1,.21-.65,2,2,0,0,1,.55-.41A2.26,2.26,0,0,1,36.32,30.53Z"/><path class="cls-15" d="M37.7,28.82a3.14,3.14,0,0,1-1.37.29,1.4,1.4,0,0,1-.55-.39,1.38,1.38,0,0,1-.21-.64,3.12,3.12,0,0,1-.68,0,1.49,1.49,0,0,1-.53-.39,3.81,3.81,0,0,1-.13-1.44c0-.74.13-1.18.39-1.34a1.2,1.2,0,0,1,1,0,5.19,5.19,0,0,1,1.49.88,14.88,14.88,0,0,1,1.31,1.12,1.19,1.19,0,0,1,.41,1C38.79,28.25,38.4,28.57,37.7,28.82Z"/><path class="cls-15" d="M31.91,31.55a1.26,1.26,0,0,1,.2.64,3.69,3.69,0,0,1-.72,1.23c-.45.59-.82.88-1.11.86a1.25,1.25,0,0,1-.85-.58,5,5,0,0,1-.7-1.58c-.19-.67-.32-1.23-.4-1.68a1.21,1.21,0,0,1,.28-1.06c.27-.28.76-.3,1.49-.08a3.81,3.81,0,0,1,1.28.55,1.42,1.42,0,0,1,.2.64,1.6,1.6,0,0,1-.2.66A3,3,0,0,1,31.91,31.55Z"/><path class="cls-15" d="M31.6,29.08a3.24,3.24,0,0,1-1.4-.31c-.71-.23-1.1-.49-1.17-.79a1.24,1.24,0,0,1,.29-1,5,5,0,0,1,1.28-1.15A16.48,16.48,0,0,1,32.07,25a1.17,1.17,0,0,1,1.11-.07c.34.16.51.62.53,1.38a3.56,3.56,0,0,1-.14,1.4,1.26,1.26,0,0,1-.54.39,1.79,1.79,0,0,1-.69,0,2.24,2.24,0,0,1-.2.62A1.53,1.53,0,0,1,31.6,29.08Z"/><path class="cls-15" d="M22.82,31.06a3.25,3.25,0,0,1,.17-1,3.72,3.72,0,0,1,.55-1,7.9,7.9,0,0,0,.79-1.87,8.17,8.17,0,0,0,.46-2A4.4,4.4,0,0,1,24.94,24a3.07,3.07,0,0,1,.44-.84,1.71,1.71,0,0,1,2-.31,3.84,3.84,0,0,1,.91.58,4,4,0,0,1,.57.64,2.86,2.86,0,0,1,.37.75,2.58,2.58,0,0,0-1.8,1.71c-.29.85-.18,1.43.33,1.75-.62-.14-1.08.34-1.39,1.45s-.13,1.85.55,2.23a2.83,2.83,0,0,1-1.36.66,5,5,0,0,1-1.31-.15A1.75,1.75,0,0,1,22.82,31.06Z"/><path class="cls-15" d="M33.56,38.88a4.33,4.33,0,0,1-.54,1.2,1.77,1.77,0,0,1-1.83.94,3.5,3.5,0,0,1-1.66-1.29A7.25,7.25,0,0,0,28,38.4a7.8,7.8,0,0,0-1.79-1.08,4.12,4.12,0,0,1-1-.5,3.09,3.09,0,0,1-.68-.67,1.73,1.73,0,0,1,.33-2,4,4,0,0,1,.84-.68,3.52,3.52,0,0,1,.78-.33,3.12,3.12,0,0,1,.83-.14,2.58,2.58,0,0,0,1.06,2.24c.73.55,1.32.63,1.78.25-.33.53,0,1.13.94,1.77s1.72.7,2.29.16A2.81,2.81,0,0,1,33.56,38.88Z"/><path class="cls-15" d="M32.29,35.78a1.19,1.19,0,0,1-.93-.59c-.18-.34-.05-.81.38-1.44a3.42,3.42,0,0,1,.93-1,1.26,1.26,0,0,1,.67,0,1.39,1.39,0,0,1,.56.4,1.88,1.88,0,0,1,.54-.39,1.51,1.51,0,0,1,.67,0,3.54,3.54,0,0,1,.94,1.07c.43.61.59,1.05.48,1.33a1.24,1.24,0,0,1-.81.63,5.23,5.23,0,0,1-1.72.17C33.3,35.89,32.73,35.84,32.29,35.78Z"/><path class="cls-15" d="M43.42,36.2a3.14,3.14,0,0,1-.72.69,3.73,3.73,0,0,1-1,.5,7.44,7.44,0,0,0-1.74,1,8,8,0,0,0-1.56,1.38,5.86,5.86,0,0,1-.81.83,3.37,3.37,0,0,1-.84.44,1.74,1.74,0,0,1-1.83-.94,3.8,3.8,0,0,1-.39-1,3.16,3.16,0,0,1-.08-.84,4.14,4.14,0,0,1,.13-.83A2.58,2.58,0,0,0,37,37.12c.74-.52,1-1.06.77-1.6.41.47,1.08.35,2-.36S41,33.74,40.64,33a2.67,2.67,0,0,1,1.48.27,4.18,4.18,0,0,1,1,.87A1.77,1.77,0,0,1,43.42,36.2Z"/><path class="cls-15" d="M43.6,32.48a3.61,3.61,0,0,1-1.07.07,3.17,3.17,0,0,1-.83-.18A3.67,3.67,0,0,1,41,32a2.57,2.57,0,0,0,.45-2.43c-.26-.86-.69-1.27-1.29-1.24.59-.24.68-.9.29-2s-1-1.58-1.77-1.49a2.75,2.75,0,0,1,.71-1.32,4.29,4.29,0,0,1,1.14-.65,1.75,1.75,0,0,1,2,.32,2.75,2.75,0,0,1,.44.89,4.18,4.18,0,0,1,.15,1.13,8.2,8.2,0,0,0,.44,2,8.79,8.79,0,0,0,.83,1.92,5.6,5.6,0,0,1,.55,1,2.94,2.94,0,0,1,.15.94A1.74,1.74,0,0,1,43.6,32.48Z"/><path class="cls-15" d="M67.73,23.48a3,3,0,0,0-1.86-.27,3.61,3.61,0,0,0-1.89,1,6.84,6.84,0,0,0-1.51,2.45,6.16,6.16,0,0,0-.32,1.07,8.24,8.24,0,0,0-.14,1c0,.16,0,.39,0,.64h-.8V29.3c0-.34.05-.68.09-1a.77.77,0,0,0,0-.15c0-.08,0-.15,0-.23a8.44,8.44,0,0,1,.21-.9A34.76,34.76,0,0,1,63,23.74a5.52,5.52,0,0,0,.47-2.19,6.66,6.66,0,0,0-1-3.31,16.12,16.12,0,0,0-2.17-2.64h0A16.12,16.12,0,0,0,58,18.24a6.66,6.66,0,0,0-1,3.31,5.52,5.52,0,0,0,.47,2.19A34.76,34.76,0,0,1,58.87,27a8.44,8.44,0,0,1,.21.9c0,.08,0,.15.05.23a.77.77,0,0,0,0,.15c0,.34.08.68.09,1v.06h-.8c0-.25,0-.48,0-.64a8.24,8.24,0,0,0-.14-1,6.16,6.16,0,0,0-.32-1.07,6.84,6.84,0,0,0-1.51-2.45,3.61,3.61,0,0,0-1.89-1,3,3,0,0,0-1.86.27,2.94,2.94,0,0,0-1.62,3,2.77,2.77,0,0,0,.1.5,3.11,3.11,0,0,0,1,1.41,2.5,2.5,0,0,0,1.65.49s-1.18-1.16-.32-2.28a1.71,1.71,0,0,1,1.85-.49,3.46,3.46,0,0,1,1.75,2.11,3.77,3.77,0,0,1,.2,1h0v.16h-.42a.62.62,0,1,0,0,1.24h.41a2.58,2.58,0,0,1-.16.68,2.46,2.46,0,0,1-.53.84,1.12,1.12,0,0,1-1.33.11,1,1,0,0,1-.38-.95v-.09a.66.66,0,0,0-.28.09,1.59,1.59,0,0,0,.27,2.78A2.12,2.12,0,0,0,57,33.7a3.19,3.19,0,0,0,.8-1,6.24,6.24,0,0,0,.55-1.42,4.48,4.48,0,0,0,.1-.68h.77a5.72,5.72,0,0,1-.29,1.59c-.11.33-.53,1.19-.62,1.54A4.44,4.44,0,0,0,59,37a9.33,9.33,0,0,0,1.21,1.47h0A9.33,9.33,0,0,0,61.43,37a4.44,4.44,0,0,0,.65-3.31c-.09-.35-.51-1.21-.62-1.54a5.72,5.72,0,0,1-.29-1.59h.77a4.48,4.48,0,0,0,.1.68,6.24,6.24,0,0,0,.55,1.42,3.19,3.19,0,0,0,.8,1,2.12,2.12,0,0,0,2.15.36,1.59,1.59,0,0,0,.27-2.78.66.66,0,0,0-.28-.09v.09a1,1,0,0,1-.38.95,1.12,1.12,0,0,1-1.33-.11,2.3,2.3,0,0,1-.52-.84,2.33,2.33,0,0,1-.17-.68h.41a.62.62,0,0,0,0-1.24h-.42V29.2h0a3.77,3.77,0,0,1,.2-1,3.46,3.46,0,0,1,1.75-2.11,1.71,1.71,0,0,1,1.85.49c.86,1.12-.32,2.28-.32,2.28a2.5,2.5,0,0,0,1.65-.49,3.11,3.11,0,0,0,1-1.41,2.77,2.77,0,0,0,.1-.5A2.94,2.94,0,0,0,67.73,23.48Z"/><path class="cls-15" d="M47.35,82.43a3.12,3.12,0,0,0-1.21-1,3.56,3.56,0,0,0-1.5-.33,3.86,3.86,0,0,0-1.67.37,4.4,4.4,0,0,0-1.31,1,4.52,4.52,0,0,0-.86,1.44,5,5,0,0,0-.3,1.71,5.14,5.14,0,0,0,.3,1.77,4.64,4.64,0,0,0,.85,1.43,4,4,0,0,0,1.31,1,3.83,3.83,0,0,0,1.68.36,3.9,3.9,0,0,0,1.77-.39,4.21,4.21,0,0,0,1.37-1.13l1,.81A4.35,4.35,0,0,1,47,90.86a5.64,5.64,0,0,1-2.33.46,5.44,5.44,0,0,1-2.18-.43A5.22,5.22,0,0,1,40.7,89.7a5.42,5.42,0,0,1-1.16-1.8,6,6,0,0,1-.42-2.28,6.14,6.14,0,0,1,.4-2.24,5.6,5.6,0,0,1,1.15-1.8,5.36,5.36,0,0,1,1.74-1.22,5.62,5.62,0,0,1,2.23-.44,5.7,5.7,0,0,1,2.12.4,3.88,3.88,0,0,1,1.71,1.3Z"/><path class="cls-15" d="M58.49,82.43a3.12,3.12,0,0,0-1.21-1,3.56,3.56,0,0,0-1.5-.33,3.89,3.89,0,0,0-1.67.37,4.4,4.4,0,0,0-1.31,1A4.5,4.5,0,0,0,52,83.91a4.75,4.75,0,0,0-.31,1.71A4.92,4.92,0,0,0,52,87.39a4.28,4.28,0,0,0,.85,1.43,4,4,0,0,0,3,1.31,4,4,0,0,0,1.78-.39,4.18,4.18,0,0,0,1.36-1.13l1,.81a4.45,4.45,0,0,1-1.78,1.44,5.57,5.57,0,0,1-2.33.46,5.47,5.47,0,0,1-2.18-.43,5.18,5.18,0,0,1-1.75-1.19,5.29,5.29,0,0,1-1.17-1.8,6,6,0,0,1-.42-2.28,6.15,6.15,0,0,1,.41-2.24,5.41,5.41,0,0,1,1.14-1.8,5.3,5.3,0,0,1,1.75-1.22,5.53,5.53,0,0,1,2.22-.44,5.7,5.7,0,0,1,2.12.4,3.88,3.88,0,0,1,1.71,1.3Z"/><path class="cls-15" d="M62.24,80.19H65a13.47,13.47,0,0,1,1.56.1,4.25,4.25,0,0,1,1.39.39,2.52,2.52,0,0,1,1,.9,2.89,2.89,0,0,1,.39,1.6,2.63,2.63,0,0,1-.72,1.93,3.45,3.45,0,0,1-2,.94l3.08,5H68.13l-2.95-4.88H63.53v4.88H62.24ZM63.53,85h1.15l1.11,0a4.43,4.43,0,0,0,1.06-.2,1.9,1.9,0,0,0,.79-.53,1.54,1.54,0,0,0,.32-1,1.71,1.71,0,0,0-.23-.93,1.61,1.61,0,0,0-.61-.55,2.75,2.75,0,0,0-.84-.25,7.42,7.42,0,0,0-.94-.06H63.53Z"/><path class="cls-15" d="M79.79,82.43a3.05,3.05,0,0,0-1.21-1,3.56,3.56,0,0,0-1.5-.33,3.81,3.81,0,0,0-1.66.37,4.28,4.28,0,0,0-1.31,1,4.35,4.35,0,0,0-.86,1.44,5,5,0,0,0-.31,1.71,5.14,5.14,0,0,0,.31,1.77,4.45,4.45,0,0,0,.85,1.43,4,4,0,0,0,1.3,1,4.18,4.18,0,0,0,3.46,0,4.08,4.08,0,0,0,1.36-1.13l1,.81a4.35,4.35,0,0,1-1.77,1.44,5.65,5.65,0,0,1-2.34.46,5.39,5.39,0,0,1-2.17-.43,5.32,5.32,0,0,1-2.92-3,5.83,5.83,0,0,1-.43-2.28A6.15,6.15,0,0,1,72,83.38a5.41,5.41,0,0,1,1.14-1.8,5.3,5.3,0,0,1,1.75-1.22,5.53,5.53,0,0,1,2.22-.44,5.66,5.66,0,0,1,2.12.4,3.88,3.88,0,0,1,1.71,1.3Z"/></g></svg>